<?xml version="1.0" standalone="no"?>
<!DOCTYPE svg PUBLIC "-//W3C//DTD SVG 1.1//EN" "http://www.w3.org/Graphics/SVG/1.1/DTD/svg11.dtd" >
<svg xmlns="http://www.w3.org/2000/svg" xmlns:xlink="http://www.w3.org/1999/xlink" version="1.1">
<metadata>
Created by FontForge 20170924 at Wed Jul  1 02:29:33 2015
 By root
Copyright (c) 2014 by www.Fontiran.com. All rights reserved.
</metadata>
<defs>
<font id="IRANBlack" horiz-adv-x="0" >
  <font-face 
    font-family="IRANBlack"
    font-weight="900"
    font-stretch="condensed"
    units-per-em="2200"
    panose-1="2 0 5 3 0 0 0 2 0 4"
    ascent="1760"
    descent="-440"
    x-height="1062"
    cap-height="1466"
    bbox="-721 -1327.27 3879.88 2676.06"
    underline-thickness="102"
    underline-position="-205"
    unicode-range="U+0020-FEFC"
  />
<missing-glyph horiz-adv-x="1229" 
d="M102 -362v1806h1024v-1806h-1024zM217 -248h795v1577h-795v-1577z" />
    <glyph glyph-name="uniFEFB" unicode="&#xfedf;&#xfe8e;" horiz-adv-x="1286" arabic-form="isolated" 
d="M1150 1886q1 -1 5 -42.5t10.5 -111.5t14.5 -162t15.5 -193.5t14 -206t11 -199.5t5.5 -174t-3 -130l-10 -97q-24 -150 -87.5 -260.5t-161.5 -184t-227.5 -111t-284.5 -41.5q-15 4 -46 18.5t-68 36t-76.5 46.5t-71.5 49t-53.5 43.5t-22.5 30.5q-1 14 17 24t49.5 18t74.5 16
t92.5 19t103 25.5t107.5 35.5q-30 72 -78.5 165t-103.5 192.5t-112.5 198t-106.5 181.5t-85 143.5t-48 83.5q3 8 24 38t50 70.5t63 85.5t63.5 82.5t50.5 61.5t26 24q13 -2 37 -41.5t55 -105.5t67 -153.5t73.5 -185t75.5 -199.5t72 -197t63.5 -178t49.5 -143q32 13 61.5 33.5
t51 49t33.5 65.5t8 82q-5 58 -13.5 128t-18.5 145.5t-21 152.5t-22 149q-26 168 -54 344q6 7 32.5 31.5t62.5 56.5t76.5 67t75.5 63.5t58.5 46t25.5 14.5z" />
    <glyph glyph-name="uniFEFC" unicode="&#xfee0;&#xfe8e;" horiz-adv-x="1392" arabic-form="final" 
d="M1412 0h-23q-36 0 -75 17t-76 51.5t-70 87.5t-55 125q-19 -51 -58.5 -92.5t-92 -74t-114.5 -56.5t-127 -39.5t-130 -23t-123 -7.5q-5 0 -32.5 13t-65.5 34t-80.5 46.5t-78 50.5t-58.5 46t-22 34t24.5 24t61 21t85.5 20t97 21t95 24t81 29q-31 50 -69.5 114.5t-80.5 136.5
t-85.5 147.5t-85 148.5t-79 139.5t-67.5 120t-50.5 90t-27.5 49.5q4 9 23.5 37.5t47.5 67t60 81.5t60 80t48.5 62.5t25.5 29.5q15 13 40 -25.5t57.5 -110.5t70.5 -170.5t78 -205.5t80 -215.5t77 -200.5q33 -86 58.5 -150t32.5 -110q34 24 66 50.5t55.5 61t36 81t6.5 110.5
q-2 19 -9 66t-16.5 110.5t-20.5 138t-23 149.5q-27 175 -61 385q6 7 33 31l63 56t76.5 67.5t74.5 64.5t56.5 47.5t23.5 16.5q2 -4 6.5 -44t10.5 -106.5t13.5 -154t15 -187t15.5 -206t15.5 -209.5t13.5 -198.5t10 -173.5q2 -55 18 -84.5t39 -43t51 -16t54 -2.5v-477z" />
    <glyph glyph-name="uniFEF7" unicode="&#xfedf;&#xfe84;" horiz-adv-x="1325" arabic-form="isolated" 
d="M1150 1886q1 -1 5 -42.5t10.5 -111.5t14.5 -162t15.5 -193.5t14 -206t11 -199.5t5.5 -174t-3 -130l-10 -97q-24 -150 -87.5 -260.5t-161.5 -184t-227.5 -111t-284.5 -41.5q-15 4 -46 18.5t-68 36t-76.5 46.5t-71.5 49t-53.5 43.5t-22.5 30.5q-1 14 17 24t49.5 18t74.5 16
t92.5 19t103 25.5t107.5 35.5q-30 72 -78.5 165t-103.5 192.5t-112.5 198t-106.5 181.5t-85 143.5t-48 83.5q3 8 24 38t50 70.5t63 85.5t63.5 82.5t50.5 61.5t26 24q13 -2 37 -41.5t55 -105.5t67 -153.5t73.5 -185t75.5 -199.5t72 -197t63.5 -178t49.5 -143q32 13 61.5 33.5
t51 49t33.5 65.5t8 82q-5 58 -13.5 128t-18.5 145.5t-21 152.5t-22 149q-26 168 -54 344q6 7 32.5 31.5t62.5 56.5t76.5 67t75.5 63.5t58.5 46t25.5 14.5zM2 1738q19 15 35 26q14 10 25 19t13 11q-23 9 -40 26.5t-29 39t-18.5 45.5t-7.5 46q4 28 22 64t46 68.5t64 57
t77 30.5q18 1 40 -3t45 -17t46 -36t43 -59q8 -16 1 -28.5t-27 -5.5q-4 2 -14 6.5t-25 8.5t-34.5 6t-41.5 0q-47 -5 -77 -28t-31 -57q7 -24 33 -36.5t58.5 -17.5t64.5 -3t53 7q19 5 38.5 8t29.5 7q2 2 7.5 1t3.5 -6q1 -35 1 -63v-46t-1 -27q-55 -7 -115 -24t-117 -43.5
t-107 -63t-85 -83.5z" />
    <glyph glyph-name="uniFEF8" unicode="&#xfee0;&#xfe84;" horiz-adv-x="1397" arabic-form="final" 
d="M1412 0h-23q-36 0 -75 17t-76 51.5t-70 87.5t-55 125q-19 -51 -58.5 -92.5t-92 -74t-114.5 -56.5t-127 -39.5t-130 -23t-123 -7.5q-5 0 -32.5 13t-65.5 34t-80.5 46.5t-78 50.5t-58.5 46t-22 34t24.5 24t61 21t85.5 20t97 21t95 24t81 29q-31 50 -69.5 114.5t-80.5 136.5
t-85.5 147.5t-85 148.5t-79 139.5t-67.5 120t-50.5 90t-27.5 49.5q4 9 23.5 37.5t47.5 67t60 81.5t60 80t48.5 62.5t25.5 29.5q15 13 40 -25.5t57.5 -110.5t70.5 -170.5t78 -205.5t80 -215.5t77 -200.5q33 -86 58.5 -150t32.5 -110q34 24 66 50.5t55.5 61t36 81t6.5 110.5
q-2 19 -9 66t-16.5 110.5t-20.5 138t-23 149.5q-27 175 -61 385q6 7 33 31l63 56t76.5 67.5t74.5 64.5t56.5 47.5t23.5 16.5q2 -4 6.5 -44t10.5 -106.5t13.5 -154t15 -187t15.5 -206t15.5 -209.5t13.5 -198.5t10 -173.5q2 -55 18 -84.5t39 -43t51 -16t54 -2.5v-477zM6 1728
q19 15 35 26q14 10 25 19t13 11q-23 9 -40 26.5t-29 39t-18.5 45.5t-7.5 46q4 28 22 64t46 68.5t64 57t77 30.5q18 1 40 -3t45 -17t46 -36t43 -59q8 -16 1 -28.5t-27 -5.5q-4 2 -14 6.5t-25 8.5t-34.5 6t-41.5 0q-47 -5 -77 -28t-31 -57q7 -24 33 -36.5t58.5 -17.5t64.5 -3
t53 7q19 5 38.5 8t29.5 7q2 2 7.5 1t3.5 -6q1 -35 1 -63v-46t-1 -27q-55 -7 -115 -24t-117 -43.5t-107 -63t-85 -83.5z" />
    <glyph glyph-name="uniFEF9" unicode="&#xfedf;&#xfe88;" horiz-adv-x="1303" arabic-form="isolated" 
d="M1150 1886q1 -1 5 -42.5t10.5 -111.5t14.5 -162t15.5 -193.5t14 -206t11 -199.5t5.5 -174t-3 -130l-10 -97q-24 -150 -87.5 -260.5t-161.5 -184t-227.5 -111t-284.5 -41.5q-15 4 -46 18.5t-68 36t-76.5 46.5t-71.5 49t-53.5 43.5t-22.5 30.5q-1 14 17 24t49.5 18t74.5 16
t92.5 19t103 25.5t107.5 35.5q-30 72 -78.5 165t-103.5 192.5t-112.5 198t-106.5 181.5t-85 143.5t-48 83.5q3 8 24 38t50 70.5t63 85.5t63.5 82.5t50.5 61.5t26 24q13 -2 37 -41.5t55 -105.5t67 -153.5t73.5 -185t75.5 -199.5t72 -197t63.5 -178t49.5 -143q32 13 61.5 33.5
t51 49t33.5 65.5t8 82q-5 58 -13.5 128t-18.5 145.5t-21 152.5t-22 149q-26 168 -54 344q6 7 32.5 31.5t62.5 56.5t76.5 67t75.5 63.5t58.5 46t25.5 14.5zM607 -502q19 15 35 26q14 10 25 19t13 11q-23 9 -40 26.5t-29 39t-18.5 45.5t-7.5 46q4 28 22 64t46 68.5t64 57
t77 30.5q18 1 40 -3t45 -17t46 -36t43 -59q8 -16 1 -28.5t-27 -5.5q-4 2 -14 6.5t-25 8.5t-34.5 6t-41.5 0q-47 -5 -77 -28t-31 -57q7 -24 33 -36.5t58.5 -17.5t64.5 -3t53 7q19 5 38.5 8t29.5 7q2 2 7.5 1t3.5 -6q1 -35 1 -63v-46t-1 -27q-55 -7 -115 -24t-117 -43.5
t-107 -63t-85 -83.5z" />
    <glyph glyph-name="uniFEFA" unicode="&#xfee0;&#xfe88;" horiz-adv-x="1397" arabic-form="final" 
d="M1412 0h-23q-36 0 -75 17t-76 51.5t-70 87.5t-55 125q-19 -51 -58.5 -92.5t-92 -74t-114.5 -56.5t-127 -39.5t-130 -23t-123 -7.5q-5 0 -32.5 13t-65.5 34t-80.5 46.5t-78 50.5t-58.5 46t-22 34t24.5 24t61 21t85.5 20t97 21t95 24t81 29q-31 50 -69.5 114.5t-80.5 136.5
t-85.5 147.5t-85 148.5t-79 139.5t-67.5 120t-50.5 90t-27.5 49.5q4 9 23.5 37.5t47.5 67t60 81.5t60 80t48.5 62.5t25.5 29.5q15 13 40 -25.5t57.5 -110.5t70.5 -170.5t78 -205.5t80 -215.5t77 -200.5q33 -86 58.5 -150t32.5 -110q34 24 66 50.5t55.5 61t36 81t6.5 110.5
q-2 19 -9 66t-16.5 110.5t-20.5 138t-23 149.5q-27 175 -61 385q6 7 33 31l63 56t76.5 67.5t74.5 64.5t56.5 47.5t23.5 16.5q2 -4 6.5 -44t10.5 -106.5t13.5 -154t15 -187t15.5 -206t15.5 -209.5t13.5 -198.5t10 -173.5q2 -55 18 -84.5t39 -43t51 -16t54 -2.5v-477z
M607 -502q19 15 35 26q14 10 25 19t13 11q-23 9 -40 26.5t-29 39t-18.5 45.5t-7.5 46q4 28 22 64t46 68.5t64 57t77 30.5q18 1 40 -3t45 -17t46 -36t43 -59q8 -16 1 -28.5t-27 -5.5q-4 2 -14 6.5t-25 8.5t-34.5 6t-41.5 0q-47 -5 -77 -28t-31 -57q7 -24 33 -36.5t58.5 -17.5
t64.5 -3t53 7q19 5 38.5 8t29.5 7q2 2 7.5 1t3.5 -6q1 -35 1 -63v-46t-1 -27q-55 -7 -115 -24t-117 -43.5t-107 -63t-85 -83.5z" />
    <glyph glyph-name="uniFEF5" unicode="&#xfedf;&#xfe82;" horiz-adv-x="1397" arabic-form="isolated" 
d="M1252 1886q1 -1 5 -42.5t10.5 -111.5t14.5 -162t15.5 -193.5t14 -206t11 -199.5t5.5 -174t-3 -130l-10 -97q-24 -150 -87.5 -260.5t-161.5 -184t-227.5 -111t-284.5 -41.5q-15 4 -46 18.5t-68 36t-76.5 46.5t-71.5 49t-53.5 43.5t-22.5 30.5q-1 14 17 24t49.5 18t74.5 16
t92.5 19t103 25.5t107.5 35.5q-30 72 -78.5 165t-103.5 192.5t-112.5 198t-106.5 181.5t-85 143.5t-48 83.5q3 8 24 38t50 70.5t63 85.5t63.5 82.5t50.5 61.5t26 24q13 -2 37 -41.5t55 -105.5t67 -153.5t73.5 -185t75.5 -199.5t72 -197t63.5 -178t49.5 -143q32 13 61.5 33.5
t51 49t33.5 65.5t8 82q-5 58 -13.5 128t-18.5 145.5t-21 152.5t-22 149q-26 168 -54 344q6 7 32.5 31.5t62.5 56.5t76.5 67t75.5 63.5t58.5 46t25.5 14.5zM672 2035q15 -9 13.5 -34.5t-17 -58.5t-44 -69.5t-68 -67.5t-88.5 -52.5t-106 -25.5q-42 -6 -87.5 -4.5t-89.5 6
t-84 8t-72 0.5q-23 -1 -42 -10.5t-34.5 -23.5t-28.5 -29.5t-25 -28t-24 -19.5t-26 -3q-13 3 -16 33t3 73t21 92t37.5 91t53 70t68.5 28q51 0 94 -7.5t86 -16t89.5 -13t103.5 1.5q54 6 97 20.5t77 27.5t60.5 18.5t48.5 -6.5z" />
    <glyph glyph-name="uniFEF6" unicode="&#xfee0;&#xfe82;" horiz-adv-x="1392" arabic-form="final" 
d="M1412 0h-23q-36 0 -75 17t-76 51.5t-70 87.5t-55 125q-19 -51 -58.5 -92.5t-92 -74t-114.5 -56.5t-127 -39.5t-130 -23t-123 -7.5q-5 0 -32.5 13t-65.5 34t-80.5 46.5t-78 50.5t-58.5 46t-22 34t24.5 24t61 21t85.5 20t97 21t95 24t81 29q-31 50 -69.5 114.5t-80.5 136.5
t-85.5 147.5t-85 148.5t-79 139.5t-67.5 120t-50.5 90t-27.5 49.5q4 9 23.5 37.5t47.5 67t60 81.5t60 80t48.5 62.5t25.5 29.5q15 13 40 -25.5t57.5 -110.5t70.5 -170.5t78 -205.5t80 -215.5t77 -200.5q33 -86 58.5 -150t32.5 -110q34 24 66 50.5t55.5 61t36 81t6.5 110.5
q-2 19 -9 66t-16.5 110.5t-20.5 138t-23 149.5q-27 175 -61 385q6 7 33 31l63 56t76.5 67.5t74.5 64.5t56.5 47.5t23.5 16.5q2 -4 6.5 -44t10.5 -106.5t13.5 -154t15 -187t15.5 -206t15.5 -209.5t13.5 -198.5t10 -173.5q2 -55 18 -84.5t39 -43t51 -16t54 -2.5v-477z
M587 2059q15 -9 13.5 -34.5t-17 -58.5t-44 -69.5t-68 -67.5t-88.5 -52.5t-106 -25.5q-42 -6 -87.5 -4.5t-89.5 6t-84 8t-72 0.5q-23 -1 -42 -10.5t-34.5 -23.5t-28.5 -29.5t-25 -28t-24 -19.5t-26 -3q-13 3 -16 33t3 73t21 92t37.5 91t53 70t68.5 28q51 0 94 -7.5t86 -16
t89.5 -13t103.5 1.5q54 6 97 20.5t77 27.5t60.5 18.5t48.5 -6.5z" />
    <glyph glyph-name="uni06440671.isol" unicode="&#xfedf;&#xfb51;" horiz-adv-x="1303" 
d="M1150 1857q1 -1 5 -42.5t10.5 -111.5t14.5 -162t15.5 -193.5t14 -206t11 -199.5t5.5 -174t-3 -130l-10 -97q-24 -150 -87.5 -260.5t-161.5 -184t-227.5 -111t-284.5 -41.5q-15 4 -46 18.5t-68 36t-76.5 46.5t-71.5 49t-53.5 43.5t-22.5 30.5q-1 14 17 24t49.5 18t74.5 16
t92.5 19t103 25.5t107.5 35.5q-30 72 -78.5 165t-103.5 192.5t-112.5 198t-106.5 181.5t-85 143.5t-48 83.5q3 8 24 38t50 70.5t63 85.5t63.5 82.5t50.5 61.5t26 24q13 -2 37 -41.5t55 -105.5t67 -153.5t73.5 -185t75.5 -199.5t72 -197t63.5 -178t49.5 -143q32 13 61.5 33.5
t51 49t33.5 65.5t8 82q-5 58 -13.5 128t-18.5 145.5t-21 152.5t-22 149q-26 168 -54 344q6 7 32.5 31.5t62.5 56.5t76.5 67t75.5 63.5t58.5 46t25.5 14.5zM512 2014q12 -16 20 -46.5t10.5 -64.5t-2.5 -66t-20 -50q-23 -29 -49.5 -41.5t-46.5 -17.5q-9 -2 -24.5 -4t-29.5 -3
q-18 -2 -36 -2q-52 4 -80.5 16t-51.5 25q-20 10 -38 17.5t-49 8.5q-10 -1 -23.5 -10t-25.5 -19.5t-21.5 -20l-11.5 -11.5q-9 -8 -18.5 -11.5t-18 -3.5t-15 2t-9.5 4q-4 3 -8.5 9t-6.5 14t-0.5 18.5t9.5 22.5q23 34 44 61.5t42.5 47t44.5 30t49 10.5q5 0 13.5 -2t27.5 -10
q55 80 109 116.5t116 36.5q59 0 100 -56zM461 1884q-28 42 -69 42q-47 0 -108 -47q25 -6 51 -8t49.5 -1t43.5 4.5t33 9.5z" />
    <glyph glyph-name="uni06440671.fina" unicode="&#xfee0;&#xfb51;" horiz-adv-x="1397" 
d="M1412 0h-23q-36 0 -75 17t-76 51.5t-70 87.5t-55 125q-19 -51 -58.5 -92.5t-92 -74t-114.5 -56.5t-127 -39.5t-130 -23t-123 -7.5q-5 0 -32.5 13t-65.5 34t-80.5 46.5t-78 50.5t-58.5 46t-22 34t24.5 24t61 21t85.5 20t97 21t95 24t81 29q-31 50 -69.5 114.5t-80.5 136.5
t-85.5 147.5t-85 148.5t-79 139.5t-67.5 120t-50.5 90t-27.5 49.5q4 9 23.5 37.5t47.5 67t60 81.5t60 80t48.5 62.5t25.5 29.5q15 13 40 -25.5t57.5 -110.5t70.5 -170.5t78 -205.5t80 -215.5t77 -200.5q33 -86 58.5 -150t32.5 -110q34 24 66 50.5t55.5 61t36 81t6.5 110.5
q-2 19 -9 66t-16.5 110.5t-20.5 138t-23 149.5q-27 175 -61 385q6 7 33 31l63 56t76.5 67.5t74.5 64.5t56.5 47.5t23.5 16.5q2 -4 6.5 -44t10.5 -106.5t13.5 -154t15 -187t15.5 -206t15.5 -209.5t13.5 -198.5t10 -173.5q2 -55 18 -84.5t39 -43t51 -16t54 -2.5v-477z
M527 2044q12 -16 20 -46.5t10.5 -64.5t-2.5 -66t-20 -50q-23 -29 -49.5 -41.5t-46.5 -17.5q-9 -2 -24.5 -4t-29.5 -3q-18 -2 -36 -2q-52 4 -80.5 16t-51.5 25q-20 10 -38 17.5t-49 8.5q-10 -1 -23.5 -10t-25.5 -19.5t-21.5 -20l-11.5 -11.5q-9 -8 -18.5 -11.5t-18 -3.5
t-15 2t-9.5 4q-4 3 -8.5 9t-6.5 14t-0.5 18.5t9.5 22.5q23 34 44 61.5t42.5 47t44.5 30t49 10.5q5 0 13.5 -2t27.5 -10q55 80 109 116.5t116 36.5q59 0 100 -56zM476 1914q-28 42 -69 42q-47 0 -108 -47q25 -6 51 -8t49.5 -1t43.5 4.5t33 9.5z" />
    <glyph glyph-name="uniFDF2" unicode="&#x627;&#xfedf;&#xfee0;&#xfeea;" horiz-adv-x="2897" arabic-form="isolated" 
d="M2248 1842q23 16 33.5 10t14.5 -19.5t3 -29t-1 -18.5q1 -210 2.5 -413t0.5 -384t-5 -331.5t-13 -256.5q-7 -86 -33 -149.5t-63.5 -107.5t-83 -71.5t-92.5 -43t-92 -21t-80 -5.5h-105h-9.5t-9.5 2h-108q-72 0 -126 32.5t-91 89.5q-44 -60 -106.5 -92t-128.5 -32h-72h-40
h-3h-5q-136 2 -222.5 55t-130.5 167q-17 -12 -59.5 -22t-97.5 -13t-116.5 1.5t-116.5 19.5t-98.5 43t-62.5 72q-9 20 -14.5 53.5t-8 73t-2 81.5t4 80.5t8.5 69.5t13 48q13 22 38 46.5t57.5 49.5t70 50t74.5 49t71 46.5t61 42.5q0 3 -2 18.5t-4.5 34.5t-4 36t-0.5 23
q5 8 27 33t53.5 56.5t67.5 66.5t67.5 63t55 45.5t30.5 14.5q7 -48 14 -114.5t14 -141t14 -152t15 -148t16.5 -129t18.5 -93.5q7 -24 16 -48t26 -44.5t44.5 -35t71.5 -19.5q32 -1 72 -0.5t76 8t61 24t27 48.5q1 22 -2.5 63.5t-9 95t-12.5 114t-14 120.5t-14 116t-12.5 98.5
t-8 69t-1.5 27.5q3 3 24 20.5t53 42.5t71 54.5t77 58.5t71.5 53.5t55.5 38.5t34.5 8.5t14.5 -30.5q1 -64 -1 -153.5t-4.5 -191t-5 -209t-2.5 -207.5q0 -69 3 -117.5t4 -62.5q1 -18 8.5 -31.5t19.5 -23.5t27.5 -16t31.5 -10q37 -9 85 -8v-3q30 1 59.5 3t45.5 6q62 16 85 55
t22 92q-4 82 -12.5 179t-18 196t-20 193.5t-18.5 171.5t-13.5 129.5t-5.5 67.5q7 7 34.5 30t66 52.5t81 62t79.5 60t62 46t28 20.5zM255 621q4 -22 25 -35.5t52 -21.5t68.5 -11t74 -3t68.5 2.5t52 5.5q-11 50 -24 114.5t-18 126.5q-43 -18 -96 -41.5t-99 -48t-76 -47.5
t-27 -41zM2791 1965q2 -2 3.5 -33t2.5 -79t0.5 -107.5t-0.5 -119.5t-1 -114t-1 -91q0 -63 -1 -156t-3 -201.5t-5 -225.5t-7 -228t-9.5 -208t-11.5 -166q-24 -36 -51 -70.5t-52 -63.5t-45.5 -50.5t-30.5 -31.5q-14 -15 -24.5 -17.5t-17 2t-10 12.5t-3.5 13l-111 1618
q-3 18 1 32t10 24.5t13 16.5t10 9q15 13 45.5 37t67 51.5t75.5 55.5t72 49.5t56 33.5t28 8zM1361 2133q1 20 2 38t1 36q0 143 -56 240q40 90 110 90q30 -96 30 -209q0 -195 -87 -195zM1664 1887q4 -61 -7.5 -102t-32.5 -66.5t-47 -37t-49 -13.5q-45 -6 -70 3.5t-45 32.5
q-20 -37 -50.5 -50t-65.5 -13q-55 0 -85.5 22.5t-44 56.5t-14 73t5 73.5t12 58.5t7.5 26q6 22 19 30.5t25.5 6t21.5 -14.5t7 -30q0 -5 -2 -25.5t1 -43t12.5 -40.5t32.5 -18q24 -1 36.5 7.5t18.5 24.5t7.5 39t3.5 51q0 6 1 14t5 15t11.5 12t19.5 5q20 1 30.5 -14.5
t13.5 -30.5q3 -20 5 -39t7.5 -34t17 -23.5t35.5 -6.5q6 1 14 3t15.5 6t12.5 10.5t4 15.5q0 8 -8.5 25t-19.5 35.5t-21 34.5t-14 23l36 72q14 27 26 50t14 24q3 0 17 -17.5t30.5 -50t31 -78t19.5 -102.5z" />
    <glyph glyph-name="uniFDFC" unicode="&#x631;&#xfef3;&#xfe8e;&#x644;" horiz-adv-x="3363" arabic-form="isolated" 
d="M3109 851q24 -21 47 -61.5t42.5 -93t35 -114t25 -126t13 -128.5t-0.5 -120q-9 -128 -39 -244.5t-75 -213.5t-101 -169.5t-118 -112.5q-8 -6 -19.5 -14.5t-28.5 -14t-41.5 -5.5t-58.5 12q-16 4 -47.5 13.5t-70 21t-79.5 24.5t-76.5 24.5t-61 19.5t-32.5 11
q-24 17 -33 36.5t-5 38t19 34.5t38 26q126 53 237 111.5t193.5 119.5t130.5 122t48 120q-1 12 -12 39.5t-28.5 62.5t-39.5 74t-44 74.5t-41.5 63.5t-32.5 41q-4 4 -1 9q14 21 37 54t50.5 69.5t56.5 72.5t53 64.5t40.5 45t19.5 13.5zM1984 5q-161 16 -249.5 103.5
t-93.5 248.5q-3 101 -8 229.5t-10.5 264t-11.5 267t-11 238.5t-9.5 178.5t-7.5 86.5q7 8 31 27.5t57 45t71.5 55t75 57t67.5 50.5t49 36q5 4 13.5 7.5t16 3t13.5 -7t6 -22.5q1 -113 0.5 -229.5t-2.5 -231.5t-5.5 -226.5t-7 -213.5t-7.5 -192.5t-8 -163.5q-2 -40 11.5 -65.5
t38 -41t57.5 -22.5t71 -9q45 0 98 0.5t99.5 4.5t78.5 12.5t36 23.5q3 11 -4.5 31t-21.5 45t-32 52.5t-36.5 54t-36 49t-28.5 37.5q-11 14 -7 33t11 28q13 19 36 47.5t49.5 61t53.5 64.5t50 57t38 40.5t18 13.5q30 -21 57 -68t48.5 -110.5t37 -138.5t22 -152t3.5 -151.5
t-18 -137.5q-23 -94 -61 -164t-100.5 -117t-154.5 -70.5t-223 -23.5h-1h-1h-129q-16 0 -29 5zM1397 1858q29 20 44.5 15t12.5 -46q-1 -19 -2 -64.5t-2 -111.5t-1.5 -148.5t-1 -175.5t-1 -192.5t-0.5 -198.5q-1 -350 -1 -777q-3 -109 -17.5 -213t-45.5 -196t-82.5 -169.5
t-129 -133.5t-184.5 -87t-249 -31q-202 0 -345.5 71.5t-221.5 203.5t-86 318.5t61 415.5q9 26 21 59t27 66.5t32.5 65t37 54.5t40 34.5t41.5 5.5q27 -12 33 -38t-1 -64.5t-21 -89.5t-27 -114q-48 -254 59.5 -378.5t370.5 -127.5q105 -2 176 19.5t116 59t68 87t32 103.5
t8.5 109t-2.5 104q-1 16 -3.5 53t-6 89t-8.5 117t-10.5 137.5t-12 149.5t-12.5 154q-22 271 -49 600q82 63 152 118q30 23 59.5 46t55.5 43t46 35.5t30 22.5zM2162 -93l193 -194l-192 -193l-169 169l-170 -169l-192 194l192 193l168 -168z" />
    <glyph glyph-name="uni0621" unicode="&#x621;" horiz-adv-x="973" arabic-form="isolated" 
d="M836 329q3 1 13 -1t8 -10q-1 -61 -3 -112q-1 -22 -1.5 -43.5t-1.5 -39.5t-1.5 -31t-1.5 -18q-98 -10 -206.5 -36t-212 -70.5t-195 -107t-156.5 -144.5l53 304l63 45q24 17 45 32t25 18q-39 18 -68.5 50.5t-49.5 72t-30 82.5t-10 81q6 34 23 73.5t43.5 80t61 79t75.5 69.5
t86.5 51.5t94.5 26.5q31 1 70 -7.5t79.5 -33t80 -66.5t73.5 -108q7 -15 7.5 -28.5t-5.5 -22.5t-19 -11.5t-31 3.5q-7 3 -25 11t-44 16t-60.5 13.5t-74.5 2.5q-41 -2 -76.5 -13.5t-62 -30.5t-42 -44t-17.5 -55q8 -29 31.5 -49.5t56.5 -33.5t72 -20t77.5 -9t74 0.5t60.5 8.5
q16 3 33.5 6t34 6t30.5 6.5t23 6.5z" />
    <glyph glyph-name="uni0627" unicode="&#x627;" horiz-adv-x="529" arabic-form="isolated" 
d="M439 1937q2 -2 3.5 -33t2 -79t0.5 -107.5t-0.5 -119.5t-1 -114t-0.5 -91q0 -63 -1 -156t-3 -201.5t-5 -225.5t-7.5 -228t-10 -208t-11.5 -166q-24 -36 -51 -71t-51.5 -64t-45 -50t-30.5 -31q-14 -15 -24.5 -17.5t-17.5 2t-10 12.5t-3 13l-112 1618q-2 18 2 32t10 24
t12.5 16.5l9.5 9.5q15 13 45.5 37t67 51.5t75.5 55.5t72.5 49.5t56.5 33.5t28 8z" />
    <glyph glyph-name="uniFE8E" unicode="&#x627;" horiz-adv-x="617" arabic-form="final" 
d="M634 478v-478h-74q-95 0 -174 24.5t-138.5 79t-96.5 142t-48 213.5q-4 48 -9.5 121.5t-11.5 161.5t-12 185.5t-12 193t-11.5 184t-10.5 158.5t-8.5 116t-5.5 57q7 8 34 27.5t63.5 45t79.5 55t83.5 57t74.5 50.5t52 36q6 4 15 8t17.5 3.5t13.5 -7.5t3 -23q0 -2 -0.5 -53.5
t-0.5 -135v-190v-217.5v-591q0 -115 42.5 -169.5t134.5 -54.5v1z" />
    <glyph glyph-name="uni062D" unicode="&#x62d;" horiz-adv-x="1536" arabic-form="isolated" 
d="M1342 573q-50 -2 -109 -5t-119 -8t-116 -12t-99 -15q-134 -27 -237.5 -69.5t-175 -95t-111 -113t-44.5 -122.5q-6 -64 12 -117.5t54 -96t88 -74.5t115 -54.5t134.5 -35.5t146.5 -16q93 -4 167.5 -1.5t133 8.5t101.5 13t72 13q108 17 141 -14t-12 -116q-19 -38 -57 -81
t-92.5 -83.5t-125.5 -74t-158.5 -53.5t-189.5 -22.5t-219 19.5q-151 28 -264 92.5t-186.5 157t-107 210t-25.5 252.5q3 54 16 122t44 141t83.5 147t134 140.5t197 121.5t271.5 89q-59 21 -99.5 33t-76.5 21t-73.5 17t-89.5 21q-56 14 -101.5 9t-75.5 -28q-9 -7 -23.5 -19
t-29 -25t-28 -26t-20.5 -21q-17 -16 -35 -21.5t-31.5 0t-20 22.5t0.5 47q11 49 27 100t38 99t50.5 90t65.5 73t82 48t100 14q52 -3 118 -21.5t142.5 -45.5t161 -58.5t174 -60t183 -50t186.5 -27.5q12 -1 24 -3.5t21.5 -8.5t14 -15.5t0.5 -23.5z" />
    <glyph glyph-name="uniFEA3" unicode="&#x62d;" horiz-adv-x="1422" arabic-form="initial" 
d="M1329 835q25 -2 38.5 -7.5t19 -13.5t4.5 -17.5t-5 -19.5l-138 -388q-88 -12 -168 -46t-161 -77.5t-166.5 -91t-184.5 -86.5t-215 -64t-257 -23q-23 0 -41 1t-39 -1q-42 -3 -54 19t-12 64v317q0 27 3.5 42t9.5 22.5t15.5 10t21.5 2.5q21 1 45.5 0.5t51.5 -1.5
q56 1 122 2.5t136 5.5t141.5 11t138 19.5t125.5 31t105 45.5q-54 22 -117 46.5t-124.5 46t-117.5 38.5t-97 25q-37 8 -73 -5.5t-66 -34.5t-51.5 -42.5t-30.5 -29.5q-21 -24 -42.5 -32t-36 1t-18.5 36t10 72q33 111 71.5 185t81 118t90 62t98.5 18q53 0 111.5 -16.5
t124 -42.5t138 -57t153.5 -60t171 -52.5t189 -32.5z" />
    <glyph glyph-name="uniFEA4" unicode="&#x62d;" horiz-adv-x="1424" arabic-form="medial" 
d="M1284 479q-10 -1 -9 -1.5t9.5 -0.5h23h31.5h96l-1 -477h-97q-56 -1 -112.5 14.5t-105.5 52t-86 96.5t-52 150q-51 -24 -107 -57t-121 -68t-142 -69t-170 -60.5t-204 -43t-245 -15.5q-13 0 -22.5 3t-15.5 12t-9 25.5t-2 43.5v49v74v86.5v86.5q0 33 2 52.5t7.5 29
t15.5 12.5t26 3q187 -1 353 10q71 5 144.5 13t141 20.5t124 29.5t94.5 41q-51 20 -103 41t-101.5 39.5t-95.5 34t-85 24.5q-24 5 -53 12.5t-63.5 4.5t-74 -23t-82.5 -69q-32 -36 -57 -48t-40.5 -3.5t-18.5 36.5t10 72q26 88 57.5 159t72.5 120.5t93 76.5t118 27
q56 0 115 -17t123.5 -43t137.5 -58t156.5 -61t180 -52.5t209.5 -32.5q24 -2 34.5 -9t12 -19t-3.5 -28t-11 -36z" />
    <glyph glyph-name="uniFEA2" unicode="&#x62d;" horiz-adv-x="1525" arabic-form="final" 
d="M109 688q10 43 26 91t38.5 95t52 89.5t66.5 73t82 46.5t100 10q58 -5 121 -23.5t133 -44t148.5 -55t168 -57t191.5 -50.5t219 -35q28 -5 36 -20t-3 -45l-103 -286h100h62l-2 -477h-104q-101 2 -175 29.5t-123 76.5t-72.5 117t-23.5 152q-176 -17 -311 -61.5
t-226.5 -107.5t-137 -139.5t-42.5 -155.5q3 -57 24.5 -103t57 -82.5t81 -63.5t97 -46.5t105 -31t104.5 -16.5q143 -15 288 -8.5t289 35.5q45 9 80.5 1.5t46.5 -34.5t-8.5 -75.5t-85.5 -121.5q-60 -69 -142.5 -114t-175.5 -69.5t-189.5 -30.5t-184.5 5q-136 17 -239.5 57.5
t-178.5 97.5t-124 127.5t-76.5 147.5t-35.5 156.5t-2 155.5q5 60 23.5 130t54.5 142.5t92 144.5t135 135t183 113t238 80q-58 19 -98.5 32.5t-75.5 23t-69.5 18t-79.5 18.5q-40 10 -84.5 9.5t-82.5 -26.5q-12 -6 -26.5 -17.5t-28.5 -24.5t-26 -25.5t-19 -21.5
q-23 -20 -42.5 -26t-32 2t-17 29t3.5 54z" />
    <glyph glyph-name="uni062F" unicode="&#x62f;" horiz-adv-x="1076" arabic-form="isolated" 
d="M531 1299q3 -1 39 -26.5t87 -74t110 -118t109.5 -159t83.5 -197t33 -230.5q0 -144 -30 -240t-92 -154t-157.5 -82.5t-226.5 -24.5q-103 0 -177.5 33t-123 92t-71.5 140t-23 178q0 40 5 67.5t16 35.5t24 5.5t31 -12t42.5 -23t58.5 -26t79.5 -21t105.5 -8.5q25 0 61 1.5
t76.5 4.5t80 9t71 15t51 21t18.5 29q-1 26 -29 59.5t-72.5 70t-100.5 73.5t-113.5 71t-111.5 63t-94 48q58 108 106 192q21 36 41.5 70.5t39 61t32.5 42t21 14.5z" />
    <glyph glyph-name="uni0631" unicode="&#x631;" horiz-adv-x="897" arabic-form="isolated" 
d="M683 752q24 -21 47 -61t42 -92.5t34.5 -114.5t25 -126.5t13 -128.5t-0.5 -120q-9 -128 -39 -244.5t-74.5 -213t-101 -169.5t-117.5 -113q-8 -6 -19.5 -14.5t-29 -14t-41.5 -5.5t-58 12q-16 4 -47.5 13.5t-70 21.5t-79.5 25t-76.5 24t-61.5 19t-33 11q-24 17 -32.5 36.5
t-5 38.5t18.5 35t39 26q126 53 236.5 111.5t193 119.5t130.5 122t48 120q-1 12 -12 39t-28.5 62t-39 74t-43.5 74t-41.5 63t-32.5 41q-4 4 -1 10q13 21 36 54t50.5 69t56.5 72.5t53 64.5t41 45t20 14z" />
    <glyph glyph-name="uniFEAE" unicode="&#x631;" horiz-adv-x="1021" arabic-form="final" 
d="M1035 1q-50 0 -83 4.5t-54.5 13t-36 19.5t-27.5 23q-17 -130 -47 -236.5t-70.5 -190.5t-89.5 -147t-104 -106q-17 -13 -32.5 -24t-34.5 -17t-42 -5.5t-53 11.5q-53 13 -110.5 30t-108.5 33t-88 28.5t-47 17.5q-35 13 -48 35t-7 45.5t30.5 44.5t64.5 32q165 71 274 136
t174.5 123t93 107.5t29.5 90.5q-6 30 -28 76.5t-49.5 96t-57.5 95t-53 75.5q-7 9 -6.5 17t7.5 19q16 24 40 56.5t51 67.5t54 68.5t49.5 59.5t37 40t17.5 11q19 -25 36 -55t37 -60.5t44 -59t57 -50.5t76.5 -35.5t102.5 -12.5z" />
    <glyph glyph-name="uni0633" unicode="&#x633;" horiz-adv-x="2500" arabic-form="isolated" 
d="M2318 1053q13 -3 41 -47.5t55 -118.5t44.5 -171t10.5 -204q-2 -56 -10 -115t-25 -115.5t-44 -107t-66 -88.5t-91.5 -61t-119.5 -25q-61 -2 -103.5 19.5t-70.5 50.5t-44.5 59t-25.5 47q-16 -45 -43 -82q-23 -32 -62 -59t-97 -30q-29 -2 -51.5 3t-38.5 12q-18 8 -32 19
q0 -7 -2.5 -41.5t-14 -86.5t-33.5 -115.5t-60 -129t-95 -127t-137.5 -109t-188.5 -75t-247 -25.5q-233 0 -392.5 75t-244.5 210t-94 321.5t59 408.5q9 21 21 52.5t26.5 66t32 67.5t37 57t41.5 34.5t47 -0.5q17 -8 22.5 -27.5t2 -51t-15 -77t-28.5 -106.5q-14 -66 -18 -133
t9 -128.5t47 -115t96.5 -93.5t156.5 -63t227 -23q98 0 175.5 16t136.5 42t100 59t67 67.5t37.5 67.5t10.5 60q-14 43 -35 85.5t-45 82.5t-47.5 74.5t-41.5 60.5q-11 16 -19.5 28.5t-12.5 24t-1.5 24t13.5 29.5q17 25 40 56t49 62.5t52 61t48 52.5t37.5 37t21.5 14
q1 0 12.5 -23.5t30.5 -59.5t43.5 -78t53.5 -78.5t60 -62t63 -27.5q39 -3 66 2.5t46.5 25t34 56.5t30.5 97q3 14 10 37t19.5 44.5t32 36t49.5 11.5q20 -2 31.5 -15t16.5 -32t5.5 -41t-0.5 -41q-3 -39 -1.5 -71.5t13 -56.5t37 -38t71.5 -17q40 -2 71.5 2.5t53.5 15t32 28
t6 41.5q-6 28 -27.5 63t-46 68.5t-46.5 62.5t-28 46q46 72 86 127q17 24 34 46t31.5 39.5t25.5 27.5t17 9z" />
    <glyph glyph-name="uniFEB3" unicode="&#x633;" horiz-adv-x="1365" arabic-form="initial" 
d="M1177 1051q10 -2 26.5 -23t35 -57.5t37.5 -88t32.5 -114t19 -136.5t-0.5 -155q-10 -123 -40 -211.5t-73.5 -146.5t-97 -87t-111.5 -32q-94 -5 -163 36t-121 139q-14 -37 -31.5 -64t-37 -46t-40 -31.5t-39.5 -19.5q-46 -17 -95 -14q-49 2 -89 22q-35 17 -66.5 54.5
t-42.5 106.5q-6 -29 -22 -61t-47 -59t-80.5 -45t-122.5 -18q-29 0 -43.5 10.5t-20 23t-5.5 22.5t0 9v350q1 17 8 31q6 11 19.5 21t39.5 10q54 0 95 5t72 19.5t53.5 41.5t40.5 70q3 8 10 26.5t17 40t23 43.5t28 39t32.5 25.5t36.5 2.5q22 -6 29 -28t6 -51.5t-5 -62.5t-2 -62
q2 -59 25.5 -83.5t65.5 -25.5q32 0 53.5 7t37 24.5t27 47t25.5 75.5q5 16 12.5 46t22 57t37.5 44t58 9q21 -5 30 -27t11.5 -49.5t0.5 -56.5t-3 -47q-2 -44 10 -69.5t32 -39t46 -17.5t52 -4q24 0 49 2.5t45.5 11t35 22.5t17.5 36q2 13 -8 35.5t-26.5 48.5t-36 53.5
t-36.5 51.5t-28.5 41.5t-12.5 23.5q45 73 84 128q16 24 33 46t31.5 39.5t26.5 27t18 7.5z" />
    <glyph glyph-name="uniFEB4" unicode="&#x633;" horiz-adv-x="1422" arabic-form="medial" 
d="M1432 -2q-31 0 -65.5 4t-67.5 22t-62.5 53.5t-50.5 97.5q-17 -35 -35 -66.5t-45 -55.5t-68 -38.5t-105 -14.5q-53 0 -91.5 13.5t-67.5 36.5t-50 55t-37 70q-18 -40 -39.5 -73.5t-49.5 -56.5t-65 -35t-87 -10q-55 3 -93 19t-62.5 41t-37.5 57t-17 66q-12 -40 -34 -74
t-53 -58.5t-69.5 -38t-82.5 -12.5q-21 1 -31 12t-14 24q-4 15 -3 34v360q0 12 5 23q5 8 14 15.5t28 7.5q52 0 86 -0.5t58 11.5t43 42.5t40 93.5q5 13 15 43t27 59.5t41.5 49.5t58.5 11q19 -5 27.5 -19.5t11 -37.5t-0.5 -53t-8 -67q-2 -53 12.5 -80.5t33.5 -38.5t36 -11.5
t21 -0.5q25 1 47 2t41.5 16t38 50.5t37.5 103.5q3 14 11.5 39.5t22 49.5t33 39.5t45.5 9.5q27 -6 38.5 -23.5t14 -41t0.5 -49.5t-2 -47q-2 -47 5 -76.5t21.5 -46t36.5 -22t50 -5.5q40 0 65 5.5t42.5 24.5t30.5 55.5t29 98.5q4 15 12 39t20.5 45t31.5 34.5t46 8.5
q23 -4 34.5 -20.5t15.5 -38.5t3 -45.5t-2 -42.5q-3 -44 0 -75t19 -51t49.5 -29.5t93.5 -9.5z" />
    <glyph glyph-name="uniFEB2" unicode="&#x633;" horiz-adv-x="2655" arabic-form="final" 
d="M2669 2q-56 -2 -96 10.5t-69 35.5t-49 55.5t-35 69.5q-23 -52 -50 -86t-57.5 -54t-63.5 -28t-68 -8q-47 0 -87.5 16t-72 41t-52.5 56.5t-30 63.5q-4 -17 -16 -46t-36 -57.5t-61.5 -49.5t-91.5 -21q-35 -1 -58 5t-37 13q-16 8 -25 18q0 -8 -3.5 -43.5t-15 -88
t-33.5 -116.5t-60 -129.5t-95 -127t-137.5 -108t-188 -73t-246.5 -22.5q-165 0 -292 38.5t-216.5 108t-142.5 167.5t-70 216t0.5 253t69.5 280q7 21 18 49.5t24 57.5t29 55.5t34 44.5t37.5 25t40.5 -3q18 -7 24.5 -24.5t5 -48t-11.5 -76.5t-25 -109q-14 -62 -22.5 -126.5
t-1 -126t36.5 -116t90 -96t159 -67t244 -28.5q107 0 188 18t139.5 46t97.5 62t62.5 68t32.5 63.5t9 48.5q-7 32 -27.5 74t-45 84.5t-50 81.5t-43.5 66q-12 19 -21.5 32.5t-13.5 25t-1 24t15 29.5q17 25 41 56.5t50 63.5t52.5 62t47.5 53t35.5 35.5t17.5 9.5q9 -10 23 -38
t33 -63.5t42.5 -75t51 -72.5t60 -55.5t69.5 -23.5q29 0 52 4t42 21t34.5 51t30.5 93q3 14 10 39.5t19.5 50t31.5 41t45 13.5q30 -3 43 -21.5t16.5 -43t1.5 -50.5t-2 -44q0 -30 3 -57.5t16 -49t39.5 -34.5t73.5 -13q43 0 67 11.5t38 33.5t23 55t22 77q4 15 11 39t19.5 46.5
t30.5 38t44 12.5q27 -3 40 -20t17 -41t2.5 -51.5t-2.5 -50.5q-2 -48 8.5 -77.5t32 -45t54 -21t75.5 -5.5v-476z" />
    <glyph glyph-name="uni0635" unicode="&#x635;" horiz-adv-x="2676" arabic-form="isolated" 
d="M1904 430q88 -1 167.5 14.5t141.5 42t102 62t48 76.5q6 29 0.5 54t-22 43.5t-44 28.5t-65.5 9q-58 -1 -117 -21t-115.5 -50t-107 -66t-91 -69t-68.5 -59.5t-38 -37.5q32 -12 68.5 -17.5t68.5 -7.5q36 -3 72 -2zM2293 1067q82 -2 143.5 -28.5t102.5 -74.5t60.5 -115.5
t17.5 -149.5q-2 -56 -18 -130.5t-52.5 -155t-96.5 -160.5t-151 -146q-56 -41 -120 -70t-131 -47.5t-135 -27t-133 -8.5q-41 0 -70 3t-52.5 9t-45.5 14.5t-49 19.5q0 -6 -4 -36t-18 -75t-40 -100.5t-68.5 -113t-104.5 -111.5t-147.5 -96t-197.5 -67.5t-255 -25.5h-2
q-56 0 -123 10t-135.5 33t-134.5 61.5t-121 95.5t-95 134.5t-56 179t-4 229t61 284.5q6 20 16.5 49.5t24 62t30 63.5t35.5 54t39.5 34.5t42.5 4.5q25 -10 32.5 -34t4 -59t-15 -80t-23.5 -97q-13 -58 -19.5 -121.5t2.5 -124.5t38.5 -116t88.5 -97.5t152.5 -68t230.5 -26.5
q146 1 249.5 30.5t169.5 77t96.5 108t30.5 124.5l-171 278q-15 18 -23 31t-9 25t4 24.5t16 29.5q24 37 59.5 84.5t70.5 90t64 71.5t40 29h6q11 -1 24.5 -30t32.5 -72t45.5 -93t62.5 -92q33 43 75 97.5t93 111t111.5 110.5t130.5 96t149 66.5t169 23.5z" />
    <glyph glyph-name="uniFEBB" unicode="&#x635;" horiz-adv-x="1536" arabic-form="initial" 
d="M580 478q49 -13 111.5 -19.5t129 -5t132.5 11.5t123 31t100.5 53.5t64.5 77.5q10 23 11.5 49.5t-11.5 49.5t-43.5 38.5t-85.5 15.5q-78 0 -155 -33.5t-147 -81.5t-129 -99.5t-101 -87.5zM1143 1083q89 5 151 -14.5t103 -55t63.5 -84.5t30.5 -103.5t5.5 -111t-11.5 -108
t-21.5 -93.5t-23.5 -67q-27 -63 -68 -122.5t-93.5 -112.5t-115.5 -97.5t-133.5 -76.5t-147.5 -50t-157 -18q-68 -1 -134.5 5t-127.5 26t-114 57.5t-93 99.5q-12 -45 -33 -74.5t-52.5 -47.5t-73.5 -26t-96 -9q-16 1 -28 4t-20 11.5t-13 24t-7 41.5l-3 313q0 20 2 35.5
t9.5 25.5t21.5 15.5t37 6.5q18 0 44 3t53 17t52.5 43.5t43.5 84.5q7 18 18 52.5t27.5 66.5t39.5 53t53 14q28 -7 36 -34t6.5 -60.5t-7 -67t-5.5 -52.5q0 -35 3.5 -52.5t9 -24.5t11 -8t10.5 -2q26 32 68.5 86t97.5 116.5t121.5 126.5t141 117t155 88t164.5 39z" />
    <glyph glyph-name="uniFEBC" unicode="&#x635;" horiz-adv-x="1536" arabic-form="medial" 
d="M1546 477v-477h-122q-42 0 -78 13t-65 32.5t-49.5 41t-30.5 39.5q-47 -35 -99 -64t-109.5 -50.5t-119.5 -33t-128 -10.5q-108 1 -184 12.5t-130.5 34.5t-92.5 57.5t-69 81.5q-22 -44 -55 -78q-29 -29 -72.5 -53t-103.5 -23h-38q-16 1 -28 9q-11 6 -20 19.5t-9 36.5
l-5 329q0 41 11.5 61t50.5 22q24 0 51 2t54.5 15.5t53.5 43.5t49 86q4 9 9.5 27.5t14 41t19.5 45.5t25.5 41t31.5 27t38 4q27 -6 35 -33t7 -61t-6.5 -67.5t-5.5 -52.5q0 -35 5 -52.5t11 -25.5t13 -9.5t12 -3.5q26 33 67.5 88.5t96 119.5t120 130t140 119.5t155.5 87
t166 33.5t146.5 -19.5t102.5 -52.5t64 -76.5t33.5 -93t9.5 -101t-8.5 -100t-19 -90.5t-22.5 -73h78zM600 476q36 -11 93 -17.5t123 -6.5t135.5 9t130.5 29t108.5 52.5t69.5 81.5q11 24 12 55t-17 55.5t-58 37.5t-110 3q-76 -11 -149 -48t-137 -83t-115.5 -92t-85.5 -76z" />
    <glyph glyph-name="uniFEBA" unicode="&#x635;" horiz-adv-x="2686" arabic-form="final" 
d="M2688 477v-477q-85 -1 -138 4.5t-88 20t-59.5 40t-52.5 65.5q-93 -68 -195 -103t-202 -45t-191.5 2.5t-162.5 39.5q0 -6 -3 -36t-15.5 -75t-36 -101t-64.5 -113t-101 -111.5t-145 -96.5t-197 -67.5t-257 -25.5q-56 0 -123 9.5t-136 33t-135 61.5t-121.5 95t-95.5 134.5
t-56 179t-4 229.5t61 285q6 21 17 51.5t24.5 62.5t30 63t35 53.5t38.5 33.5t41 4q26 -10 33.5 -34t4 -59t-15 -80t-23.5 -97q-13 -58 -20 -121.5t2 -124.5t38.5 -116t88.5 -97.5t153 -68t231 -26.5q146 1 249.5 30.5t169.5 77t96.5 108.5t30.5 125l-172 277q-15 18 -23 31
t-9 25t4 24.5t16 29.5q16 25 38.5 55t46.5 61t49 60t46 51t37 35t24 13q11 -1 24.5 -30t32.5 -72t45.5 -93t62.5 -92q34 44 78.5 100.5t99 115.5t118.5 114t137.5 96t155.5 62.5t172 13.5q79 -8 135 -39t91.5 -79.5t51 -111.5t13.5 -135q-2 -49 -14 -112t-40 -133h74z
M1748 480q66 -18 138.5 -23.5t143.5 -0.5t137 20.5t118 40.5t86.5 57.5t43.5 72.5q8 35 1 61t-25.5 42.5t-45.5 24t-60 7.5q-57 -1 -116 -20t-115.5 -49t-107.5 -66t-91.5 -69.5t-68.5 -60t-38 -37.5z" />
    <glyph glyph-name="uni0637" unicode="&#x637;" horiz-adv-x="1617" arabic-form="isolated" 
d="M1184 1059q84 17 147.5 7.5t109 -39t74.5 -74.5t44 -98.5t18.5 -112t-2 -114.5t-18.5 -105.5t-31 -86.5q-14 -33 -38.5 -79.5t-64.5 -96.5t-96 -98.5t-132.5 -87.5t-174 -63.5t-220.5 -24.5h-43h-63t-99 1q-71 0 -123.5 5.5t-93 16t-72 25t-60.5 32.5q-78 47 -124.5 100
t-71 105t-31.5 100t-5 86q1 31 15 36.5t53 -4.5q31 -8 77 -13.5t117 -10.5q16 -1 42 -1t50 1q28 1 59 2q10 10 16 34t8.5 56.5t3.5 71t-0.5 79t-3.5 79.5t-4 73q-7 106 -14.5 190t-15 152.5t-15.5 126t-17 110.5t-18.5 106t-20.5 113q6 8 36 31t70.5 53t87 63.5t86 61.5
t66 47t29.5 21q22 11 33 6.5t16 -17t5.5 -30t1.5 -32.5q0 -1 1 -44t2.5 -113.5t3 -161.5t2 -188t-1 -192.5t-5 -175.5t-9.5 -137.5t-16 -77.5q53 47 105.5 94.5t105.5 87t107.5 68t111.5 37.5zM1238 499q33 13 55.5 34.5t34.5 46.5t12.5 51.5t-11.5 48.5t-35.5 38t-60.5 20
q-32 3 -75 -9.5t-92 -36t-100 -54.5t-97.5 -63.5t-86 -63t-64.5 -53.5q26 -3 47.5 -5t45 -2.5t53 -0.5t71.5 1q56 1 101 5t81 10t65.5 14t55.5 19z" />
    <glyph glyph-name="uniFEC3" unicode="&#x637;" horiz-adv-x="1361" arabic-form="initial" 
d="M910 1072q116 19 193 -6.5t122.5 -79t63.5 -126t16.5 -148t-18 -146t-39.5 -119.5q-12 -32 -36 -77.5t-63.5 -95.5t-97.5 -99.5t-138.5 -89t-186 -64t-239.5 -24.5q-121 0 -221 1q-43 0 -85.5 0.5t-79.5 1t-64 0.5h-38q-45 0 -67.5 8.5t-31.5 24.5t-9 39v50v269
q0 19 9 35t24 27t34 17t39 6h153q10 10 15.5 34t8.5 57t3.5 72t-0.5 79.5t-3.5 79.5t-4.5 73q-7 106 -14.5 190t-15 152.5t-16 126t-17 110.5t-18.5 106t-21 113q5 6 23 20.5t45 34.5t59.5 44t66 48.5t65.5 47t57.5 40.5t42 29.5t18.5 12.5q21 11 32.5 7t16.5 -16.5
t5.5 -29.5t1.5 -32q0 -1 1 -44t3 -113.5t3 -161.5t1.5 -188t-0.5 -192.5t-4.5 -175.5t-10 -137.5t-16.5 -77.5q53 47 105.5 93t105.5 85t108 68t114 41zM975 516q31 14 51 36.5t29 47.5t7 50.5t-15 46.5t-36.5 35t-58.5 16q-32 2 -75.5 -11.5t-92 -36.5t-98.5 -53.5
t-96 -62.5t-85 -62t-64 -53q27 -3 51.5 -5t53.5 -2.5t66 -0.5t88 2q97 3 164 18t111 35z" />
    <glyph glyph-name="uniFEC4" unicode="&#x637;" horiz-adv-x="1357" arabic-form="medial" 
d="M1368 478l3 -478h-62.5h-34h-21.5h-25q-59 0 -120 10.5t-113.5 27t-92 36.5t-56.5 39q-30 -29 -77 -51t-103 -36t-118 -21t-123 -6h-191h-74.5t-69.5 0.5t-56.5 0.5h-35.5q-37 0 -48.5 15.5t-11.5 53.5v342q0 39 15.5 53t44.5 14h41.5t54.5 1q32 0 66 1q14 15 20 59.5
t6.5 102t-2 119.5t-5.5 112q-7 106 -14.5 189.5t-15 152.5t-16 126t-17 110.5t-18.5 106.5t-21 113q6 7 36 30t70.5 53.5t87 64t86 61.5t66.5 47t30 21q22 11 33 7t16.5 -16.5t6 -29.5t1.5 -32q0 -1 1 -44t3 -114t3 -162t1.5 -187.5t-0.5 -192.5t-4.5 -176t-10 -137
t-16.5 -77q44 48 95.5 95t106.5 86t112.5 66.5t114.5 36.5q81 13 144 2.5t109.5 -38.5t77.5 -69.5t49 -91t22.5 -104t-1.5 -107t-22.5 -100.5t-41.5 -85h115zM974 515q37 16 59.5 40.5t32 52t5 55t-21 48.5t-45.5 32.5t-70 8.5q-33 -3 -75 -18.5t-88.5 -39.5t-94 -54
t-90 -60t-78.5 -58t-58 -49q48 -6 100.5 -7.5t115.5 0.5q100 4 176 15t132 34z" />
    <glyph glyph-name="uniFEC2" unicode="&#x637;" horiz-adv-x="1673" arabic-form="final" 
d="M1681 476v-476q-41 0 -67.5 -0.5t-46 -1t-37 -0.5t-40.5 2q-41 0 -90 10t-96.5 26t-87.5 36.5t-62 41.5q-15 -17 -49 -37t-80 -37t-101 -28.5t-112 -11.5q-3 0 -19 -1q-14 -1 -41 -1.5t-77 0.5q-133 2 -233.5 23t-158.5 57q-72 44 -118.5 97.5t-73 107t-35 102.5t-3.5 84
q2 15 5.5 24t11 12.5t19.5 2t32 -6.5q15 -3 40 -6.5t55.5 -6.5t65.5 -5.5t71 -3.5q16 -2 36 -2.5t37 0.5q20 0 40 2q10 10 15.5 34t8.5 56.5t3.5 71t-0.5 79t-3 79.5t-4 73q-7 106 -14.5 190t-15 152.5t-16 126t-17 110.5t-18.5 106t-21 113q6 7 36 30.5t70.5 53.5t87 63.5
t86 61.5t66.5 47t30 21q22 11 33 7t16.5 -16.5t6 -29.5t1.5 -32q0 -1 1 -44t3 -113.5t3 -161.5t1.5 -188t-0.5 -192.5t-4.5 -175.5t-10 -137.5t-16.5 -77.5q53 48 105.5 95t106 86t108 67t111.5 37q111 18 188 -6.5t125 -75t69.5 -120t22 -141.5t-17.5 -139t-50 -113h119z
M759 474q47 -6 103.5 -6.5t112.5 -0.5q100 0 176.5 14.5t125.5 31.5q34 12 57.5 34.5t35 49t11 54t-14 50.5t-40 37.5t-66.5 14.5q-32 0 -74.5 -14t-90 -37.5t-96.5 -53t-94 -61t-83 -61t-63 -52.5z" />
    <glyph glyph-name="uni0639" unicode="&#x639;" horiz-adv-x="1506" arabic-form="isolated" 
d="M1347 -226q72 13 105 -0.5t38 -42.5t-14 -68.5t-52 -79.5q-20 -24 -49 -53.5t-70.5 -59.5t-97 -58t-126.5 -48t-159.5 -28.5t-196.5 -0.5q-135 9 -238.5 45.5t-179.5 93t-126 128.5t-78 151.5t-36.5 162.5t0.5 161q9 86 43.5 168t82.5 153t103.5 127.5t106.5 92.5
q-51 36 -80 81.5t-43 96.5t-16 104t2 103q29 75 79.5 144t113.5 123t134 88t143 40q42 3 90 -4t97 -34t96.5 -80t88.5 -141q4 -7 9 -22t7 -32.5t-1.5 -32.5t-17 -21t-39.5 1t-69 35q-9 4 -29.5 13.5t-50.5 18.5t-68 16t-82 7q-55 0 -102 -20t-81 -47t-52.5 -56t-17.5 -47
t23 -44t66.5 -51t112 -45t159.5 -25q23 -2 57 0t73.5 5t80.5 7t79 8q11 1 14.5 -3t3 -11.5t-3.5 -17t-5 -19.5q-1 -3 -3.5 -16.5t-7 -33.5t-9.5 -44.5t-10 -49.5q-12 -59 -28 -131q-7 -2 -40.5 -4.5t-84 -8t-114 -16t-130 -27.5t-131 -42t-119 -60.5t-93 -82.5t-52.5 -108
q-16 -69 5.5 -131.5t76 -113t139 -86.5t194.5 -51q45 -6 98.5 -8t110 -1.5t112.5 4t105.5 8t89 10t64.5 11.5z" />
    <glyph glyph-name="uniFECB" unicode="&#x639;" horiz-adv-x="1004" arabic-form="initial" 
d="M952 564q10 4 13.5 -1.5t2.5 -13.5q0 -2 -1 -6t-3.5 -16t-7.5 -33.5t-12 -57.5l-59 -290q-42 -19 -85.5 -33t-79.5 -23q-42 -11 -83 -19q-98 -22 -182 -36.5t-159.5 -23t-144.5 -11.5t-137 -1l-30 2q-27 3 -39.5 16t-17 51t-4.5 108.5t-1 187.5q0 36 3.5 58.5t12.5 34.5
t23 16t34 4h114q-10 15 -23 43t-24 63t-17 73.5t-1 76.5q4 36 25 80.5t55.5 90.5t80 90t100 78t114.5 55t124 21q43 0 90 -11.5t91.5 -39.5t84.5 -75t70 -117q21 -42 22.5 -70.5t-12 -42t-40 -10.5t-60.5 24q-10 6 -31 15.5t-51 19t-66 16.5t-76 8q-22 0 -67 -6.5t-93.5 -23
t-90 -44t-57.5 -68.5q4 -31 27.5 -60.5t60.5 -56t84.5 -47.5t101 -34t110 -17t110.5 5q85 14 131.5 27.5t69.5 23.5z" />
    <glyph glyph-name="uniFECC" unicode="&#x639;" horiz-adv-x="1018" arabic-form="medial" 
d="M825 510q14 -14 46.5 -20.5t67.5 -9.5q40 -4 88 -3l-2 -477h-180q-21 0 -51.5 6t-62.5 16.5t-61 23t-47 26.5q-23 14 -43.5 30.5t-40.5 36.5q-42 -30 -84 -55.5t-92.5 -44t-114 -29t-147.5 -10.5h-102h-3q-29 0 -39.5 21t-12.5 63q-1 24 -1.5 66t-1 87t-0.5 86.5v64.5
q0 52 11 70.5t44 19.5q-1 0 12.5 -0.5t35 0t49 1t54 4t50 9t37.5 14.5q-11 5 -26 14q-13 7 -32.5 18t-46.5 27q-37 22 -57 40.5t-28.5 36.5t-8.5 36t3 38l20 142q4 27 7.5 52.5t6.5 45.5t5 33l2 13q39 33 88.5 57t105 39t115 22.5t117.5 7.5q72 0 144 -9t133.5 -28t108 -47
t67.5 -66q17 -37 24 -89.5t-5.5 -114t-48 -129t-103.5 -135.5zM569 620q22 14 48.5 35t48 43.5t32.5 42.5t2 32q-15 18 -54.5 30.5t-92 15.5t-112.5 -6.5t-117 -34.5q6 -5 19.5 -14.5t32 -21.5t40 -26t42.5 -27q50 -32 111 -69z" />
    <glyph glyph-name="uniFECA" unicode="&#x639;" horiz-adv-x="1410" arabic-form="final" 
d="M1299 -412q47 11 84.5 8.5t56 -21t14 -54t-41.5 -89.5q-6 -9 -26 -35t-55.5 -59.5t-88.5 -69t-125.5 -64t-166 -45t-209.5 -11.5q-200 9 -336.5 67t-220.5 152t-120.5 217t-36.5 261q0 72 25 156t70 165t106.5 153t135.5 120q-14 10 -35.5 27.5t-44.5 36t-43.5 36
t-32.5 27.5q-3 3 -1.5 21t6 46t11.5 63t15 71q18 84 44 190q1 3 9.5 14t23.5 25t35.5 29.5t44.5 26.5q38 18 70.5 33t68.5 26t80 19t106 11q70 5 142 -1.5t134.5 -24t109 -45t64.5 -65.5q7 -13 4 -59.5t-12 -109.5t-22.5 -134t-27.5 -133q-5 -14 -17 -28t-25.5 -26.5
t-26.5 -22t-20 -15.5h115h291v-477h-376q-64 4 -125.5 30t-118.5 62.5t-108.5 78.5t-95.5 78q-51 -13 -107 -44t-102 -77t-74.5 -106t-23.5 -131q3 -36 19.5 -82t59 -91t117.5 -84t194 -61q19 -5 57 -8.5t88.5 -6t110 -2t121 3.5t121.5 10t112 18zM930 765
q-16 25 -56.5 39.5t-99 14.5t-132.5 -16t-156 -52q11 -11 36 -31t53.5 -42.5t55 -43.5t41.5 -33q70 25 123 48t86.5 43t46 38.5t2.5 34.5z" />
    <glyph glyph-name="uniFEDB" unicode="&#x643;" horiz-adv-x="1041" arabic-form="initial" 
d="M76 1406q270 114 486 204q92 38 180.5 75t159.5 65.5t116 46t50 17.5q1 -1 -2 -21t-9 -52.5t-14 -73.5t-17 -84q-20 -100 -47 -227l-524 -230q24 -32 55.5 -72t65 -87t65.5 -100t57.5 -110.5t40.5 -118.5t15 -124q-1 -94 -26.5 -168.5t-67 -131.5t-95 -97t-111 -66
t-114 -38t-103.5 -13h-236q-16 0 -33.5 4t-32 15t-24 31.5t-10.5 53.5q-1 30 -1 63.5v69t0.5 70.5t0.5 67q0 22 5.5 40.5t17.5 32.5t30.5 22t45.5 8h212q77 0 125.5 8t76.5 18q33 11 48 26q-11 13 -34.5 41t-54.5 64.5t-66.5 79.5t-71.5 86t-70 83.5t-61 73t-45 53.5t-22 26
q-2 2 -1 19t3 43.5t6 59.5t8 67q10 80 23 181z" />
    <glyph glyph-name="uniFEDC" unicode="&#x643;" horiz-adv-x="1095" arabic-form="medial" 
d="M1063 1816q2 -1 -3.5 -33t-14.5 -80t-20 -105t-21.5 -107.5t-18.5 -88t-10 -45.5l-539 -233q74 -101 145 -198q30 -41 63 -85.5t65.5 -88t63.5 -84t57 -73.5t51 -55.5t56 -36.5t70.5 -20t95.5 -6l3 -477h-58q-69 0 -124 4t-103 20.5t-91.5 51t-89.5 94.5
q-28 -33 -71.5 -63.5t-94.5 -54.5t-106 -38t-105 -14h-93q-44 0 -75.5 -0.5t-52.5 -0.5h-41q-14 0 -27 5t-22.5 18.5t-15 38t-4.5 63.5q0 13 -0.5 46t-1 72t-0.5 75.5t2 56.5q3 37 9.5 58t15.5 31t19 12t21 2h193q82 0 129 10t71 23q28 15 36 34q-29 35 -67.5 83.5
t-79.5 101t-81.5 105t-74 95.5t-56.5 72.5t-28 36.5q-4 4 -3 32.5t4.5 69.5t8.5 87t10 86t8.5 67t3.5 29q271 113 487 203q92 38 180.5 75t159 65.5t115 46t49.5 17.5h1z" />
    <glyph glyph-name="uni0643" unicode="&#x643;" horiz-adv-x="1925" arabic-form="isolated" 
d="M1851 1915q2 -1 4 -52.5t3 -136.5t1.5 -196t0 -231.5t-2 -243t-4 -230.5t-6 -193.5t-7.5 -132.5q-4 -42 -17 -94.5t-41.5 -106.5t-75.5 -105t-119 -88q-92 -47 -175 -75.5t-166.5 -44t-170.5 -20.5t-186 -5q-132 0 -256 21.5t-227.5 69.5t-180 124.5t-112 186.5t-24 255
t83.5 331q16 41 38 52.5t41.5 3.5t31 -30t5.5 -49q-28 -115 -12 -195.5t61 -134t113.5 -83.5t145.5 -44.5t156 -18t146 -2.5q73 1 131.5 2t109.5 4t98.5 8.5t100.5 16.5q79 16 120 41.5t58 62t16.5 84t-3.5 107.5q-9 125 -17 249.5t-15 232t-13 188t-10 118.5q-4 32 -1.5 53
t11 37t24 29.5t36.5 30.5q10 8 35.5 27.5t57.5 43t67.5 48.5t66 44.5t52 31.5t27.5 9zM718 765q19 15 35 26q14 10 25.5 18.5t13.5 10.5q-22 9 -39 26.5t-29 39.5t-18 46t-7 45q4 29 22 64.5t46.5 68t64.5 57t77 30.5q18 1 39.5 -3.5t44.5 -17.5t46 -36.5t43 -59.5
q8 -15 1 -27.5t-27 -5.5q-4 1 -14.5 5.5t-25.5 8t-34 6t-41 0.5q-47 -4 -77.5 -26.5t-32.5 -56.5q8 -24 34 -37t58 -18t65 -3t54 7q18 5 37 8t30 7q2 1 7.5 0t3.5 -6q1 -35 1 -63v-46t-1 -27q-55 -7 -115 -23.5t-117.5 -43t-107.5 -62.5t-85 -83z" />
    <glyph glyph-name="uniFEDA" unicode="&#x643;" horiz-adv-x="1920" arabic-form="final" 
d="M1955 -1h-54q-35 0 -79 12t-83.5 34t-68.5 53.5t-33 70.5q-59 -74 -141 -120t-180.5 -72.5t-209 -36t-225.5 -9.5q-62 0 -139 6.5t-158 25t-160.5 50.5t-146.5 83.5t-116 124t-69 171.5t-5.5 227t74.5 290q14 41 38 56t45 9.5t32 -29.5t1 -61q-24 -117 -3.5 -197
t70 -131.5t120.5 -79.5t149.5 -41t156.5 -15t141 -2q114 1 226.5 7.5t232.5 32.5q60 17 93 41.5t48 57t16.5 73.5t-1.5 91q-3 53 -7 117.5t-8.5 134t-9.5 140.5t-10 137q-11 155 -23 317q0 17 2.5 29.5t8.5 23.5t16.5 21.5t26.5 22.5q9 8 34.5 28.5t60 46t72.5 52.5t71 49
t57 34.5t30 8.5q2 -2 3.5 -35.5t2.5 -91t0.5 -134.5t-1 -164t-1.5 -180.5t-2 -184.5t-3 -175.5t-3 -152.5q-1 -24 -2 -55.5t0 -64t4.5 -63.5t12.5 -55t23.5 -39t38.5 -14h33zM733 788q19 15 35 26q14 10 25.5 18.5t13.5 10.5q-22 9 -39 26.5t-29 39.5t-18 46t-7 45
q4 29 22 64.5t46.5 68t64.5 57t77 30.5q18 1 39.5 -3.5t44.5 -17.5t46 -36.5t43 -59.5q8 -15 1 -27.5t-27 -5.5q-4 1 -14.5 5.5t-25.5 8t-34 6t-41 0.5q-47 -4 -77.5 -26.5t-32.5 -56.5q8 -24 34 -37t58 -18t65 -3t54 7q18 5 37 8t30 7q2 1 7.5 0t3.5 -6q1 -35 1 -63v-46
t-1 -27q-55 -7 -115 -23.5t-117.5 -43t-107.5 -62.5t-85 -83z" />
    <glyph glyph-name="uni0644" unicode="&#x644;" horiz-adv-x="1615" arabic-form="isolated" 
d="M1486 1857q29 20 44.5 15t13.5 -46q-2 -19 -3 -64.5t-2 -111.5t-1.5 -148.5t-1 -175.5t-1 -192.5t-0.5 -198.5q-1 -350 -1 -777q-3 -109 -24.5 -213t-63.5 -196.5t-106 -169.5t-152 -133t-202 -87t-256 -31q-201 0 -344.5 71.5t-221.5 203.5t-86.5 318.5t60.5 415.5
q9 26 21 59t27 66.5t32.5 64.5t37 54t40 35t41.5 6q27 -12 33 -38t-0.5 -65t-21 -90t-27.5 -114q-48 -254 60 -378t370 -128q105 -2 183 19.5t133.5 59t91 87t55.5 104t26.5 109.5t4.5 103q-1 25 -6 94.5t-12.5 165.5t-16.5 210.5t-18 230.5q-22 271 -49 600q82 64 152 119
q30 23 59.5 46t55.5 43t46 35t30 22z" />
    <glyph glyph-name="uniFEDF" unicode="&#x644;" horiz-adv-x="630" arabic-form="initial" 
d="M548 1837q2 -211 3 -422t0.5 -401.5t-4.5 -349t-13 -264.5q-7 -86 -33 -149.5t-63.5 -108t-83 -72.5t-92.5 -43.5t-92 -21t-80 -5.5h-83q-33 0 -48.5 15t-21.5 34t-5.5 35.5t0.5 19.5q-1 25 -1.5 58.5t0 71t1.5 75.5t3 71q1 20 5.5 37.5t13.5 31t21 21t28 7.5h26.5t19 1
t17 3.5t20.5 5.5q63 16 85.5 55t21.5 92q-4 82 -10 182.5t-13 205.5t-14 206t-12.5 183.5t-9 139t-3.5 71.5q6 8 35.5 30.5t69.5 52t85 62t84 60t65 46t29 20.5q23 16 33.5 10.5t14 -19t2.5 -29t-1 -18.5z" />
    <glyph glyph-name="uniFEE0" unicode="&#x644;" horiz-adv-x="700" arabic-form="medial" 
d="M709 0h-167q-72 0 -126 33.5t-91 90.5q-45 -60 -107 -92t-128 -32h-87q-18 -2 -32 8q-13 8 -24 28t-15 61q-3 34 -3.5 79t0 88t1.5 77.5t1 48.5q0 15 3.5 30.5t11.5 28t22 20.5t35 8q52 0 87.5 4t57 16t31.5 33t12 55q1 22 -1.5 78t-6 132.5t-8.5 167.5t-10 182.5
t-10 177t-8.5 152t-5.5 107t-1 41.5q3 4 24.5 21.5t53.5 42.5t71 55t77 58.5t71.5 53t54.5 38.5q23 14 36 8.5t13 -30.5q1 -32 1 -85.5t0.5 -121.5t0 -147t-0.5 -161.5t-0.5 -166t-1 -160.5t-0.5 -144v-117q0 -69 2.5 -117.5t3.5 -63.5q2 -37 27 -58.5t55 -32.5
q35 -13 79 -18z" />
    <glyph glyph-name="uniFEDE" unicode="&#x644;" horiz-adv-x="1710" arabic-form="final" 
d="M1726 0q-59 -3 -111 9t-85 42q-5 -158 -53 -290.5t-140.5 -228.5t-230 -149.5t-320.5 -53.5q-120 1 -225 29t-189 81.5t-144.5 133.5t-91.5 185.5t-29 236.5t43 288q6 22 16.5 57.5t25.5 75t33 79t39 70t44 47.5t48 11q34 -8 39.5 -37.5t-3.5 -75t-26 -106t-29 -130.5
q-6 -39 -5 -88t15.5 -100t44.5 -100t81 -87.5t126 -62.5t179 -26q112 -1 190.5 19t131.5 55t83.5 83t45.5 102t17.5 111t0.5 111q-4 60 -10.5 148.5t-14.5 191t-16.5 214t-17.5 218.5q-20 251 -43 529q77 61 143 112q28 22 56.5 44t53.5 41t44.5 34t30.5 23q9 6 22 16t25 12
t20 -11t6 -53q0 -1 -0.5 -40.5t-1.5 -105.5t-2 -153t-2 -184t-2 -198t-1.5 -195t-0.5 -175.5v-138.5q-2 -35 3.5 -58t18 -38t33.5 -24t51 -16q32 -7 53 -7h29z" />
    <glyph glyph-name="uni0645" unicode="&#x645;" horiz-adv-x="1237" arabic-form="isolated" 
d="M1202 655q2 -53 -6 -112.5t-26 -117.5t-46.5 -109.5t-67 -87.5t-86.5 -52t-106 -3q-57 13 -106.5 32t-96 43t-93 51t-96.5 56q-29 16 -41.5 16.5t-15.5 -11t0.5 -33.5t5.5 -50q0 -4 3.5 -44t8.5 -101.5t11 -136.5t10.5 -148.5t8 -138t3.5 -104.5q0 -2 -11 -18t-25.5 -36
t-28.5 -39t-21 -28q-5 -7 -19.5 -23t-34 -35.5t-40.5 -40t-39 -37.5t-28.5 -20.5t-17.5 2.5t-10 19.5t-6 31.5q-30 306 -53 549q-6 69 -12.5 137t-12.5 130t-11 116t-8.5 94t-5.5 64.5t-1 28.5q4 48 16.5 85t30 65t38.5 48.5t44 36.5q30 21 65 33.5t68.5 18.5t62.5 6.5
t47 -2.5q27 46 54.5 93.5t57 92t61.5 83t68 66.5t77 42.5t88 10.5q71 -4 132 -44.5t106.5 -109.5t72.5 -163t32 -206zM935 597q14 -1 33 3t36 14t28.5 28t10.5 45t-15 59t-39 59.5t-59.5 46.5t-77.5 20q-33 0 -66 -18t-61.5 -43t-49.5 -51.5t-30 -41.5q49 -32 99 -58
q43 -22 93.5 -41.5t97.5 -21.5z" />
    <glyph glyph-name="uniFEE3" unicode="&#x645;" horiz-adv-x="988" arabic-form="initial" 
d="M956 504q6 -62 1 -126t-20 -123.5t-39.5 -111.5t-58 -91t-75.5 -61.5t-92 -22.5q-29 0 -63 8t-70.5 21t-74 29.5t-71.5 33.5q-81 40 -165 93q-23 -46 -48.5 -75.5t-53 -47t-56.5 -24t-59 -6.5h-6h-2q-21 0 -33 7.5t-19 21t-9 31.5t-2 38v310q0 20 1.5 33.5t7 21.5t17 11
t32.5 3h1h-7q28 0 54 1t50 6.5t45.5 18t39.5 36.5q17 22 40 63.5t51 90t62.5 99.5t74.5 92t87 67.5t100 26.5q72 0 133.5 -32t108 -93t77 -149t41.5 -200zM758 389q25 19 34 48.5t4 62.5t-22 66t-43.5 60t-60.5 43.5t-73 16.5q-32 0 -63.5 -22.5t-58 -51.5t-46 -57.5
t-28.5 -40.5q18 -11 46 -28.5t61 -36t69 -35.5t69.5 -27t62.5 -11t49 13z" />
    <glyph glyph-name="uniFEE4" unicode="&#x645;" horiz-adv-x="1084" arabic-form="medial" 
d="M1096 0q-68 0 -116.5 37.5t-89.5 117.5q-16 -32 -41 -71t-62 -69t-88 -43.5t-118 6.5q-57 19 -101.5 37t-85.5 38t-84 44.5t-96 57.5q-18 -38 -37 -67t-43.5 -48.5t-56.5 -29.5t-76 -10q-11 2 -19 9q-8 6 -13.5 18.5t-5.5 34.5v355q0 26 5.5 38t13.5 17q9 5 20 5h2
q47 0 81.5 14t59.5 36.5t43.5 49.5t34.5 53q20 33 40.5 71.5t44 77.5t51.5 75t62.5 63.5t77 43t94.5 13.5q79 -3 138 -37t101 -86t69 -115.5t42 -126.5q17 -67 53 -99.5t100 -32.5v-477zM750 411q25 18 34 44t4 54.5t-22 57.5t-42.5 52t-58 37.5t-68.5 14.5
q-38 -2 -71.5 -20.5t-60.5 -43.5t-46 -50.5t-28 -39.5q8 -6 31.5 -20t56 -31t70.5 -33.5t75.5 -26.5t70.5 -10t55 15z" />
    <glyph glyph-name="uniFEE2" unicode="&#x645;" horiz-adv-x="1335" arabic-form="final" 
d="M1341 478v-477l2 -1q-39 1 -72 17t-58.5 39.5t-42.5 50t-24 47.5q-15 -29 -37.5 -65.5t-56 -66.5t-80 -46t-109.5 -4q-24 4 -53 14.5t-60.5 24t-63.5 29t-62 31.5q-70 37 -142 80q-24 14 -38 19t-20.5 -2t-6.5 -26.5t5 -53.5q1 -4 4.5 -46t9 -105t11.5 -140t11 -151.5
t8.5 -139t3.5 -103.5q-2 -4 -11 -19.5t-23 -37.5t-32 -48t-38 -50t-39 -40t-37 -28t-34.5 -21.5t-29.5 -20.5q-4 -3 -10 -4.5t-12 0.5t-10.5 8.5t-5.5 18.5q-5 37 -12 104t-15.5 152t-18 181.5t-19 192.5t-17.5 185t-14 159.5t-9.5 116t-2.5 53.5q3 55 23.5 100t52 79.5
t70.5 58t79.5 36t79.5 14.5t69 -7q38 65 78 136t88 129.5t107 94.5t135 32q70 -5 125 -40.5t96 -87.5t69.5 -113.5t46.5 -117.5q23 -72 60.5 -103t80.5 -38h1zM943 395q48 1 72.5 21.5t29 50.5t-7.5 65t-37.5 65t-61 51t-77.5 23q-35 2 -69.5 -15t-69.5 -49q-17 -18 -38 -42
t-35 -47q52 -35 105 -62q22 -12 46.5 -23t49.5 -19.5t48.5 -13.5t44.5 -5z" />
    <glyph glyph-name="uni0647" unicode="&#x647;" horiz-adv-x="932" arabic-form="isolated" 
d="M434 401q24 0 54 4.5t57 14t45 23.5t18 32q0 31 -22 66t-64 67.5t-103.5 57.5t-141.5 36q-42 -69 -41.5 -125t28.5 -95t74 -60t96 -21zM886 543q12 -139 -21 -244t-96.5 -176t-151 -107t-184.5 -36q-106 0 -185.5 28.5t-128 89t-65 154.5t3.5 226q22 144 52.5 260
t62.5 197t61 124.5t47 43.5q20 0 70.5 -14t115 -43.5t135 -74.5t131 -107t103 -142t50.5 -179z" />
    <glyph glyph-name="uniFEEB" unicode="&#x647;" horiz-adv-x="1282" arabic-form="initial" 
d="M325 1274q4 1 40.5 -14.5t95 -44.5t133.5 -69t155 -88.5t159.5 -103t147.5 -113t119 -118t74 -117.5q-2 -55 -14.5 -130t-36 -154t-58 -154t-80.5 -131q-51 -23 -114.5 -32t-130 -8t-131 9.5t-118.5 19t-92 20t-50 14.5q-45 -23 -92 -35t-96 -17.5t-99 -6.5t-99 -1h-36
q-24 0 -36 13.5t-16.5 31.5t-4.5 37.5v33.5v88.5t0.5 40.5t0.5 15.5v12t-0.5 29.5t-0.5 70q0 11 0.5 28.5t5 34.5t15 29t30.5 12h86q-13 55 -8 118.5t21.5 122t41 106.5t50.5 72l-76 46q5 12 22 41t39.5 65.5t47.5 76t47.5 72.5t38 55t19.5 23zM581 564q16 48 12.5 87
t-20.5 69.5t-45.5 51.5t-61.5 32q-32 11 -61.5 6t-53.5 -21.5t-41 -42t-26 -56.5q-8 -30 -4.5 -60.5t32.5 -63.5q10 -13 30.5 -29t45.5 -30.5t51 -25t49 -11.5q36 16 59.5 41t33.5 53zM1026 358q14 39 -2.5 81t-52.5 82t-87 75.5t-106 61.5q6 -48 -4.5 -100t-25.5 -96
q-18 -51 -41 -99q17 -10 44.5 -21t59.5 -20t66 -14.5t64 -2.5t52.5 15t32.5 38z" />
    <glyph glyph-name="uniFEEC" unicode="&#x647;" horiz-adv-x="885" arabic-form="medial" 
d="M681 357q24 33 43.5 55.5t42.5 36.5t53 20.5t77 6.5v-475q-39 -2 -73 -10q-29 -8 -59.5 -22.5t-46.5 -42.5q-9 -15 -13 -39t2.5 -52t27 -57.5t59.5 -55.5l-179 -364q-135 54 -229.5 132t-156.5 165.5t-94.5 176.5t-43.5 166l-84 2q-32 -5 -45.5 9.5t-13.5 55.5l2 348
q0 41 10.5 52.5t38.5 10.5h86q8 84 26 164t43.5 150.5t58.5 129t71 101t79.5 66t84.5 23.5q42 0 82.5 -26t75.5 -70.5t63 -103.5t45 -124.5t21.5 -133.5t-6.5 -130q-8 -42 -20 -83.5t-28 -81.5zM465 705q-19 0 -40.5 -20.5t-39.5 -53.5t-30 -74t-13 -81q28 3 61.5 8.5
t63.5 14.5t53.5 21t33.5 29q11 19 7 45.5t-17.5 50.5t-34.5 41.5t-44 18.5zM358 0q4 -17 17.5 -37t31 -38t37 -32.5t35.5 -21.5q3 66 13.5 122t24.5 104q-38 -39 -78 -64t-81 -33z" />
    <glyph glyph-name="uniFEEA" unicode="&#x647;" horiz-adv-x="1030" arabic-form="final" 
d="M1033 0h-5q-139 0 -227.5 53.5t-133.5 168.5q-17 -13 -63 -21.5t-106 -11t-128 3.5t-128.5 22.5t-108 45t-66.5 71.5q-9 21 -11 53.5t1 71t10 79.5t16 78t18 67.5t17 47.5q19 33 63 71t97 76t107.5 73.5t95.5 65.5l-21 95q4 8 24 28.5t48.5 48t62.5 59t66 61t59 54
t42 37.5q5 5 11.5 3t7.5 -8q11 -72 25.5 -166t30.5 -196t33.5 -206.5t34.5 -198.5q4 -26 13.5 -52.5t24 -48t34.5 -35t47 -13.5h9v-477zM241 619q4 -22 25.5 -35.5t53 -21.5t69 -11t74.5 -2.5t69.5 2.5t52.5 5q-12 57 -24.5 113.5t-29.5 127.5q-43 -18 -95 -41.5t-96.5 -48
t-73 -47.5t-25.5 -41z" />
    <glyph glyph-name="uni0648" unicode="&#x648;" horiz-adv-x="909" arabic-form="isolated" 
d="M514 1015q79 -11 136 -61t95 -122t60.5 -155.5t34.5 -161.5t15 -140.5t2 -91.5q-5 -174 -30.5 -320t-69.5 -262t-104.5 -202.5t-135.5 -142.5q-22 -17 -39.5 -26t-35 -12.5t-36.5 -1.5t-43 9q-45 11 -95 26t-97 29.5t-86 28t-62 21.5q-42 12 -58 34t-12 46t26 46t57 35
q98 42 193 88.5t175.5 101t140 119t86.5 141.5q-42 -7 -82 -11q-35 -4 -75 -6.5t-72 1.5q-75 8 -129.5 33t-92 63.5t-58.5 87t-30.5 102.5t-8.5 110.5t9 111.5q13 106 40.5 184t63.5 133t78.5 89t85.5 52.5t82.5 23t71.5 0.5zM437 477q37 0 73 5t64 11q33 7 62 17
q-9 26 -20 49t-25 44q-11 17 -26.5 34t-35 30.5t-42.5 21.5t-50 8q-19 0 -45.5 -4.5t-52 -17t-45.5 -34.5t-27 -56q-5 -25 0.5 -45t25 -34t54.5 -21.5t90 -7.5z" />
    <glyph glyph-name="uniFEEE" unicode="&#x648;" horiz-adv-x="888" arabic-form="final" 
d="M903 0l-84 1q-36 -232 -117 -390.5t-197 -246.5q-22 -17 -39.5 -26t-35 -12.5t-36.5 -1.5t-43 9q-45 11 -95.5 26t-97 29.5t-86 28t-61.5 21.5q-42 12 -58 34t-12 46t26 46t57 35q90 38 177.5 80.5t164 91.5t136.5 105.5t95 123.5h-145q-88 0 -152 25t-108 67t-70 97
t-38 115t-12.5 121t7.5 116q13 106 40.5 184t64 133t79 89t85 52.5t82.5 23t72 0.5q57 -8 101.5 -36.5t79.5 -71.5t60.5 -97t43.5 -112t29 -117t18 -112h69v-477zM564 476q35 0 68 1q-3 16 -9 35t-13.5 37.5t-15.5 34.5t-15 27q-11 17 -26.5 33.5t-35 29.5t-42.5 21.5
t-50 9.5q-26 1 -53.5 -3.5t-51 -17t-41.5 -35t-24 -56.5q-5 -25 0 -46.5t23.5 -37t53.5 -24.5t90 -9h142z" />
    <glyph glyph-name="uni0649" unicode="&#x649;" horiz-adv-x="1646" arabic-form="isolated" 
d="M1055 361q87 -40 158 -70.5t126.5 -59.5t95.5 -60t66.5 -71.5t39 -95t12.5 -130.5q0 -124 -56.5 -224.5t-162.5 -172t-256.5 -110.5t-338.5 -39q-128 6 -240.5 34.5t-200.5 84t-148.5 140.5t-85 204.5t-8.5 276.5t80 357q7 23 19.5 56t29 69t35 70.5t38.5 59.5t40 36
t38 0q19 -8 23 -34.5t-1 -67t-17.5 -92.5t-26.5 -111q-17 -71 -32.5 -142t-16 -136.5t18.5 -123.5t71.5 -101.5t143 -71t232.5 -32.5q107 -4 197 -1t159.5 10t117.5 15.5t70 15.5q18 6 24 11t4.5 10t-10 10t-18.5 11q-30 16 -83.5 36t-118 44t-132.5 52t-125 59
q-14 7 -34.5 25t-37 52t-22.5 86t10 127q16 74 53.5 158.5t95.5 163.5t135.5 145.5t172 105.5t205.5 42t237 -45q5 -2 -0.5 -29.5t-18 -66.5t-29.5 -83.5t-34 -80.5t-32.5 -57.5t-24.5 -14.5q-66 26 -135.5 22t-132.5 -28.5t-115 -64t-82 -84.5q-24 -35 -17.5 -53t45.5 -36z
" />
    <glyph glyph-name="uniFEF0" unicode="&#x649;" horiz-adv-x="1616" arabic-form="final" 
d="M1619 1h-71q3 -6 6.5 -20.5t5.5 -34t3 -41.5t-1 -43q-10 -137 -67 -237.5t-153 -166.5t-227 -98t-287 -32q-89 0 -177 11.5t-169 37t-152 66.5t-126.5 100.5t-92.5 139t-49.5 181.5t3 227.5t63.5 278.5q7 22 18.5 58t26.5 76t33.5 80t38 71.5t40.5 50t42 15.5
q23 -4 32.5 -23t9.5 -48.5t-7 -67t-17.5 -79t-22 -84.5t-20.5 -82q-15 -70 -21 -137.5t4.5 -128t43 -111t95.5 -86.5t160.5 -55.5t238.5 -17.5q73 -2 142.5 5.5t130.5 21t110 31.5t80.5 38t43.5 40.5t-2 37.5q-45 57 -136 107.5t-222 100.5l169 354q77 -23 135 -35
t110.5 -17.5t107.5 -6.5t127 -1v-476z" />
    <glyph glyph-name="uni066E.init" unicode="&#x66e;" horiz-adv-x="583" 
d="M388 1123q33 -47 62 -110.5t50 -136t33 -152t12 -158.5q0 -160 -25 -268.5t-88 -174.5t-170 -94.5t-272 -28.5q11 1 16 1h5l-12 -1q-15 -2 -24.5 5.5t-15 20t-7.5 27.5t-2 30v310q0 48 11.5 66t39.5 18h86q44 1 80 1t61.5 3.5t41 12t19.5 25.5q3 11 -4.5 31t-21.5 45
t-32 52.5t-36.5 53.5t-35.5 48.5t-29 37.5q-10 15 -6 33.5t10 27.5q18 25 51.5 66t69.5 83.5t68.5 78t47.5 49.5q7 7 11 3.5t6 -5.5z" />
    <glyph glyph-name="uni066E.medi" unicode="&#x66e;" horiz-adv-x="619" 
d="M625 1h-19q-85 0 -146.5 43t-92.5 120q-32 -46 -74.5 -77.5t-90.5 -50.5t-100 -27t-103 -8h15q-20 0 -31.5 9t-17.5 24.5t-7.5 35t-1.5 40.5q0 41 0.5 73t0.5 61.5v60t-1 68.5q-2 58 11.5 81t33.5 23h-13q57 0 102 2.5t75 15t43.5 38.5t7.5 73q-5 35 -9.5 67t-8.5 58
q-4 30 -9 57q52 32 99 59q20 12 40 23t38.5 21t33.5 17t25 10q5 1 9 -19.5t8.5 -60t9.5 -97t12 -129.5q3 -33 10 -58t22 -42t41.5 -26t68.5 -9h19v-476z" />
    <glyph glyph-name="uni066E.fina" unicode="&#x66e;" horiz-adv-x="1937" 
d="M1939 1q-56 0 -99 14t-75.5 38t-54 56t-33.5 68q-64 -61 -137 -103t-166.5 -68.5t-213.5 -40t-279 -17.5q-251 -6 -431.5 52t-283 173.5t-122 286t52.5 390.5q2 7 6 19t9 24t9.5 23t6.5 16q13 34 35 46.5t41.5 7.5t31 -27.5t4.5 -59.5l-12 -76q-13 -79 5.5 -140.5
t62.5 -107.5t110.5 -77t149.5 -49.5t180 -25t202 -2.5q139 5 246.5 12.5t189.5 20t142 32t104 48.5t75 69.5t55 95.5q27 62 58 85.5t55 16t36 -41t1 -85.5q-5 -23 -11 -49.5t-11 -50.5l-12 -56q4 -11 14 -20q8 -8 22 -14t37 -6v-477z" />
    <glyph glyph-name="uni066F.init" unicode="&#x66f;" horiz-adv-x="919" 
d="M596 911q-3 11 -14 37t-32.5 53t-56.5 47.5t-86 20.5q-49 0 -83.5 -10t-56.5 -25.5t-32 -33.5t-10 -34q0 -25 19.5 -42.5t49 -28t64 -15.5t64.5 -5q31 0 59 4t50.5 9t37.5 10.5t21 8.5zM867 812q13 -152 0.5 -267.5t-43 -201t-76 -144.5t-99.5 -97t-113.5 -58.5
t-117.5 -30.5t-112 -11.5t-97 -1.5h-201q-46 0 -68.5 14.5t-22.5 54.5v291q0 43 7 67t20.5 35t33 13t45.5 2h317q22 0 64.5 5.5t86.5 18t80 33t45 50.5q-36 -7 -75 -11q-33 -4 -74 -7t-81 -3q-97 0 -161 23.5t-102.5 65t-54.5 97t-16 120.5q0 100 28 194.5t78.5 168t121 118
t155.5 44.5q76 0 136 -28t106.5 -74.5t80.5 -107t57 -125t35.5 -129t16.5 -118.5z" />
    <glyph glyph-name="uni066F.medi" unicode="&#x66f;" horiz-adv-x="844" 
d="M848 477v-477h-137q-48 0 -97.5 11t-91.5 24q-23 7 -46.5 16t-46.5 19q-34 -20 -74 -32q-18 -7 -45.5 -13.5t-58 -12t-62.5 -8.5t-60 -3l-132 -1q-12 0 -19.5 2.5t-11.5 9.5t-5.5 20t-1.5 33v331q1 31 3 48t6.5 24.5t11.5 8t17 0.5h12h119q-27 33 -46 77q-17 38 -30 93
t-8 127q7 113 48 196.5t98.5 139t125 82.5t127.5 27q84 0 152 -38.5t117 -102t75.5 -146.5t27.5 -171q0 -68 -12 -120t-26 -89q-17 -43 -38 -75h109zM436 602q18 4 40.5 16t44.5 28.5t40 35t27 36.5q-5 18 -19.5 40.5t-35.5 42.5t-46.5 33.5t-51.5 14.5q-26 0 -52 -13
t-48 -33t-38 -43t-21 -42q31 -48 73 -75t87 -41z" />
    <glyph glyph-name="uni066F.fina" unicode="&#x66f;" horiz-adv-x="1650" 
d="M1195 481h72.5t64.5 1q33 1 64 2q-3 16 -8 33.5t-11.5 35t-13.5 32.5t-14 26q-28 43 -73.5 69t-99.5 26q-23 0 -47.5 -6t-45.5 -19.5t-36.5 -35t-21.5 -52.5q-5 -25 0.5 -45.5t24.5 -35.5t54.5 -23t90.5 -8zM1239 1025q63 0 113 -25.5t88.5 -68.5t66.5 -99t47.5 -116.5
t31.5 -122t19 -115.5h54v-478h-79q-11 -144 -67.5 -270t-157.5 -218t-245 -141.5t-330 -41.5q-96 0 -199 21.5t-195 71t-165 131.5t-108.5 202t-25.5 282t84 373q5 13 13 36t20 49t27.5 52t33.5 45t38.5 27t43.5 0q16 -7 22 -24t3 -46.5t-13 -72.5t-24 -101
q-16 -67 -23.5 -133.5t1 -127t37 -113.5t84.5 -94t142.5 -67.5t211.5 -34.5q68 -4 137.5 1.5t133.5 18t120 31.5t99 42t69 49t31 53h-156q-88 0 -152 25t-108 67t-70 97t-38 115t-12 121t7 116q18 145 62.5 239t101 148.5t116.5 75.5t110 21z" />
    <glyph glyph-name="uniFBA8" unicode="&#x6c1;" horiz-adv-x="708" arabic-form="initial" 
d="M291 -602q-57 6 -89 43.5t-32 88.5q0 85 40 175t118 193l73 -45q-86 -119 -86 -215q0 -37 25.5 -60.5t85.5 -41.5q-14 -28 -33 -53t-38.5 -44t-36.5 -30t-27 -11zM512 1123q33 -47 62 -110.5t50 -136t33 -152t12 -158.5q0 -160 -25 -268.5t-88 -174.5t-170 -94.5
t-272 -28.5q-24 1 -46 1h-38t-31 -1q-15 -2 -24.5 5.5t-15 20t-7.5 27.5t-2 30v310q0 48 11.5 66t39.5 18h210q44 1 80 1t61.5 3.5t41 12t19.5 25.5q3 11 -4.5 31t-21.5 45t-32 52.5t-36.5 53.5t-35.5 48.5t-29 37.5q-10 15 -6 33.5t10 27.5q18 25 51.5 66t69.5 83.5
t68.5 78t47.5 49.5q7 7 11 3.5t6 -5.5z" />
    <glyph glyph-name="uniFBA9" unicode="&#x6c1;" horiz-adv-x="1079" arabic-form="medial" 
d="M979 -289q1 -15 6 -28t16 -23.5t30 -20.5t48 -19q-12 -29 -41.5 -57.5t-62 -51.5t-60 -37.5t-36.5 -15.5q-28 3 -49 17t-35.5 35t-21.5 46t-7 49q0 44 11.5 85.5t32.5 83t51 85t66 91.5l128 -60q-38 -52 -58.5 -93.5t-17.5 -85.5zM1081 477q26 0 26 -25v-426
q0 -26 -26 -26q-20 0 -49 -1.5t-60.5 -4t-63.5 -5.5t-59.5 -6.5t-47 -6.5t-26.5 -6q-5 -10 -10 -32t-10.5 -51t-11 -62.5t-10.5 -67.5q-12 -79 -25 -174q-2 -21 -4 -44t-6.5 -43t-13 -35t-21.5 -20q-58 -23 -142 25q-26 15 -58.5 47t-65.5 76t-65 98t-58 112.5t-43.5 118.5
t-21.5 118q-15 -9 -42 -16.5t-57.5 -12.5t-59.5 -7t-49 0q-36 5 -61 32t-25 65v322q0 19 7.5 30.5t20.5 17.5t30 7.5t36 2.5q38 0 70 1q27 1 51.5 1.5t30.5 2.5q25 6 44 20t29 38q32 77 94 77q40 0 77 -43q-2 -4 -6.5 -41t-5.5 -93t5.5 -124t26 -133t56 -121t96.5 -87
q12 107 51.5 199t103.5 159.5t152 105.5t197 38z" />
    <glyph glyph-name="uni06BE" unicode="&#x6be;" horiz-adv-x="1461" arabic-form="isolated" 
d="M1400 599q11 -33 8.5 -80.5t-15 -100.5t-33 -108.5t-45 -105t-51 -90t-51.5 -62.5q-44 -28 -97.5 -39t-109 -11.5t-109 6.5t-98 17t-76.5 20t-43 14q-22 -12 -62 -20t-92 -11t-112.5 0t-122.5 13t-123 28t-114 45l-80 454q71 -30 135.5 -48t116 -27.5t86.5 -12.5t47 -3
q-20 27 -27.5 62t-4.5 72t14.5 73t30 64.5t42.5 47.5t51 22l-76 46q4 9 13.5 28.5t22.5 44.5t28 54l30 58q35 68 76 148q7 -1 41.5 -14.5t88 -38t120.5 -58t139 -75t143 -89.5t132 -100.5t107.5 -108.5t69.5 -114zM755 479q6 0 18.5 11.5t24 31.5t19 46.5t5.5 57.5
q-2 15 -9.5 34.5t-22 39.5t-36.5 39t-53 34q-45 7 -80.5 3t-59.5 -19.5t-35.5 -42.5t-7.5 -66q5 -38 34 -69t66.5 -53.5t75.5 -34.5t61 -12zM1222 353q15 30 7.5 57.5t-28.5 51.5t-51.5 45t-62.5 38t-62 30.5t-50 23.5q7 -46 -5.5 -86.5t-30.5 -72.5q-21 -37 -50 -68
q36 -14 68 -23.5t61 -18.5q25 -6 55.5 -11.5t59 -5t52.5 9t37 30.5z" />
    <glyph glyph-name="uni06D2" unicode="&#x6d2;" horiz-adv-x="2042" arabic-form="isolated" 
d="M1985 550q4 -9 6.5 -31.5t4 -51.5t2 -61.5t0 -62t-2.5 -52t-4 -31.5q-7 -26 -46 -56.5t-105 -61t-155.5 -59t-196.5 -50.5t-228.5 -35t-250.5 -13q-44 0 -93.5 1.5t-100.5 3.5t-101.5 5.5t-98.5 7.5t-108 14t-122 23.5t-121 29t-105 30.5t-74 28.5t-28 22.5q0 7 5 38
t13 74.5t18 93.5t19.5 97t17.5 84.5t13 54.5q14 52 24.5 76t20.5 36q26 32 72 66.5t103.5 66.5t121.5 60t126 48q94 30 156 57.5t99.5 51.5t55 43t23.5 32q23 50 49 64t46 3t29.5 -41.5t-0.5 -67.5q-5 -20 -13 -46l-16 -52t-15 -47.5t-11 -30.5q-23 -55 -52 -90.5t-64 -59.5
t-76.5 -42t-88.5 -39q-53 -23 -108 -46.5t-104.5 -46.5t-89 -43.5t-60.5 -35.5q22 -9 62.5 -18t93.5 -17.5t115.5 -15t129.5 -11t135.5 -6.5t132.5 -1q69 1 158 7.5t184.5 16t191.5 21t178 23.5t143.5 23t89.5 19z" />
    <glyph glyph-name="uniFBAF" unicode="&#x6d2;" horiz-adv-x="1723" arabic-form="final" 
d="M376 -161q43 -13 121.5 -20.5t180.5 -10.5t220.5 -1.5t240 5.5t239 11t218 15.5t177 18t116.5 19.5q-1 -13 -4 -30.5t-6.5 -35t-7.5 -33.5t-7 -26q-19 -74 -54.5 -139.5t-88 -114.5t-120.5 -77.5t-151 -27.5q-160 -5 -322 -1.5t-311 14.5t-280 29.5t-229.5 42.5t-159 54
t-69.5 65q-3 13 -0.5 47t10 79t19 95.5t25.5 97t30.5 84t34.5 55.5q69 71 176 129.5t237.5 105.5t276.5 82t293 58.5t286.5 35t257.5 11.5q26 0 26 -27v-425q0 -24 -26 -24q-63 0 -164.5 -1t-223.5 -5.5t-256.5 -14.5t-263 -27.5t-243.5 -45t-198 -67.5z" />
    <glyph glyph-name="uni06A9" unicode="&#x6a9;" horiz-adv-x="1985" arabic-form="isolated" 
d="M2041 1819q1 -1 -2 -20.5t-9 -52t-14 -73t-17 -83.5q-20 -100 -46 -227l-540 -232q58 -80 117.5 -159.5t103.5 -162t66 -169t5 -181.5q-26 -147 -80 -242.5t-148.5 -153.5t-235 -84t-337.5 -33q-22 -1 -45.5 -1.5t-45.5 0.5q-129 2 -247 25t-215 70.5t-167 121.5
t-104 179.5t-25.5 243.5t68.5 313q7 21 17 39t22 31t25.5 19t27.5 2q31 -8 35.5 -39.5t-4.5 -79.5q-13 -81 -3.5 -143t37 -108t69 -78t92.5 -52.5t108.5 -32.5t115.5 -17.5t114.5 -6.5t105.5 -1q105 0 184 4.5t136.5 11.5t95.5 16t62 19q55 23 57 52q-22 26 -61 72
t-85 100.5t-94 111t-88.5 104t-68.5 80t-33 39.5q-2 1 -1 18t3 43t6 59t8 67q10 80 23 181q276 114 495 205q93 38 183.5 75t162.5 66t118.5 46.5t51.5 17.5h1z" />
    <glyph glyph-name="uniFB8F" unicode="&#x6a9;" horiz-adv-x="2135" arabic-form="final" 
d="M2143 0h-142q-42 -1 -87.5 11.5t-88 35.5t-79.5 56t-62 72q-76 -78 -164.5 -122.5t-186.5 -67t-203.5 -29t-214.5 -8.5q-66 -1 -144.5 5t-159.5 24t-159.5 50.5t-144.5 83.5t-114 123t-68 169t-7.5 221.5t68.5 280.5q18 52 44.5 72t48 14t32.5 -36.5t-3 -80.5
q-19 -126 12 -210.5t110 -135.5t205.5 -72.5t298.5 -21.5q100 0 176 3.5t132 9t94.5 13t62.5 15.5q57 18 63 42l-413 526q-3 2 -1 28.5t6 65.5t10.5 84t12.5 85.5t11 70t7 36.5q30 14 88.5 39t134 56.5t163 67t174 70.5t167 67t142.5 56.5t100.5 38.5t40.5 13t-3.5 -32.5
t-14.5 -79.5t-20 -104.5t-21.5 -107t-18.5 -88t-10 -45.5l-562 -247q3 -4 21 -28.5t46.5 -63.5t64 -87.5t73.5 -100.5t76 -103.5t72 -94.5q24 -32 48 -61t60 -52t90 -36.5t137 -13.5v-476z" />
    <glyph glyph-name="uni06AF" unicode="&#x6af;" horiz-adv-x="2005" arabic-form="isolated" 
d="M2041 1819q1 -1 -2 -20.5t-9 -52t-14 -73t-17 -83.5q-20 -100 -46 -227l-540 -232q58 -80 117.5 -159.5t103.5 -162t66 -169t5 -181.5q-26 -147 -80 -242.5t-148.5 -153.5t-235 -84t-337.5 -33q-22 -1 -45.5 -1.5t-45.5 0.5q-129 2 -247 25t-215 70.5t-167 121.5
t-104 179.5t-25.5 243.5t68.5 313q7 21 17 39t22 31t25.5 19t27.5 2q31 -8 35.5 -39.5t-4.5 -79.5q-13 -81 -3.5 -143t37 -108t69 -78t92.5 -52.5t108.5 -32.5t115.5 -17.5t114.5 -6.5t105.5 -1q105 0 184 4.5t136.5 11.5t95.5 16t62 19q55 23 57 52q-22 26 -61 72
t-85 100.5t-94 111t-88.5 104t-68.5 80t-33 39.5q-2 1 -1 18t3 43t6 59t8 67q10 80 23 181q276 114 495 205q93 38 183.5 75t162.5 66t118.5 46.5t51.5 17.5h1zM2026 2031l-17 -132l-972 -418l28 150z" />
    <glyph glyph-name="uniFB94" unicode="&#x6af;" horiz-adv-x="1058" arabic-form="initial" 
d="M76 1406q270 114 486 204q92 38 180.5 75t159.5 65.5t116 46t50 17.5q1 -1 -2 -21t-9 -52.5t-14 -73.5t-17 -84q-20 -100 -47 -227l-524 -230q24 -32 55.5 -72t65 -87t65.5 -100t57.5 -110.5t40.5 -118.5t15 -124q-1 -94 -26.5 -168.5t-67 -131.5t-95 -97t-111 -66
t-114 -38t-103.5 -13h-236q-16 0 -33.5 4t-32 15t-24 31.5t-10.5 53.5q-1 30 -1 63.5v69t0.5 70.5t0.5 67q0 22 5.5 40.5t17.5 32.5t30.5 22t45.5 8h212q77 0 125.5 8t76.5 18q33 11 48 26q-11 13 -34.5 41t-54.5 64.5t-66.5 79.5t-71.5 86t-70 83.5t-61 73t-45 53.5t-22 26
q-2 2 -1 19t3 43.5t6 59.5t8 67q10 80 23 181zM1064 2031l-17 -132l-972 -418l28 150z" />
    <glyph glyph-name="uniFB95" unicode="&#x6af;" horiz-adv-x="1096" arabic-form="medial" 
d="M1063 1816q2 -1 -3.5 -33t-14.5 -80t-20 -105t-21.5 -107.5t-18.5 -88t-10 -45.5l-539 -233q74 -101 145 -198q30 -41 63 -85.5t65.5 -88t63.5 -84t57 -73.5t51 -55.5t56 -36.5t70.5 -20t95.5 -6l3 -477h-58q-69 0 -124 4t-103 20.5t-91.5 51t-89.5 94.5
q-28 -33 -71.5 -63.5t-94.5 -54.5t-106 -38t-105 -14h-93q-44 0 -75.5 -0.5t-52.5 -0.5h-41q-14 0 -27 5t-22.5 18.5t-15 38t-4.5 63.5q0 13 -0.5 46t-1 72t-0.5 75.5t2 56.5q3 37 9.5 58t15.5 31t19 12t21 2h193q82 0 129 10t71 23q28 15 36 34q-29 35 -67.5 83.5
t-79.5 101t-81.5 105t-74 95.5t-56.5 72.5t-28 36.5q-4 4 -3 32.5t4.5 69.5t8.5 87t10 86t8.5 67t3.5 29q271 113 487 203q92 38 180.5 75t159 65.5t115 46t49.5 17.5h1zM1062 2027l-17 -132l-972 -418l28 150z" />
    <glyph glyph-name="uniFB93" unicode="&#x6af;" horiz-adv-x="2135" arabic-form="final" 
d="M2143 0h-142q-42 -1 -87.5 11.5t-88 35.5t-79.5 56t-62 72q-76 -78 -164.5 -122.5t-186.5 -67t-203.5 -29t-214.5 -8.5q-66 -1 -144.5 5t-159.5 24t-159.5 50.5t-144.5 83.5t-114 123t-68 169t-7.5 221.5t68.5 280.5q18 52 44.5 72t48 14t32.5 -36.5t-3 -80.5
q-19 -126 12 -210.5t110 -135.5t205.5 -72.5t298.5 -21.5q100 0 176 3.5t132 9t94.5 13t62.5 15.5q57 18 63 42l-413 526q-3 2 -1 28.5t6 65.5t10.5 84t12.5 85.5t11 70t7 36.5q30 14 88.5 39t134 56.5t163 67t174 70.5t167 67t142.5 56.5t100.5 38.5t40.5 13t-3.5 -32.5
t-14.5 -79.5t-20 -104.5t-21.5 -107t-18.5 -88t-10 -45.5l-562 -247q3 -4 21 -28.5t46.5 -63.5t64 -87.5t73.5 -100.5t76 -103.5t72 -94.5q24 -32 48 -61t60 -52t90 -36.5t137 -13.5v-476zM2089 2032l-17 -132l-972 -418l28 150z" />
    <glyph glyph-name="uni06BA" unicode="&#x6ba;" horiz-adv-x="1646" arabic-form="isolated" 
d="M1409 804q8 -1 23.5 -27t33 -70t36 -104.5t33.5 -131.5t24.5 -150.5t9.5 -161.5q0 -190 -49 -342t-144 -259t-234.5 -166.5t-319.5 -63.5q-175 -4 -308.5 33t-226.5 108t-147.5 171t-70.5 222.5t4.5 263t76.5 291.5q9 21 19.5 47t22.5 51.5t26 48.5t30.5 38.5t35 21
t39.5 -3.5q13 -6 20.5 -20t7.5 -40.5t-7.5 -67t-25.5 -99.5q-15 -57 -25.5 -123.5t-4.5 -132t34 -126t89 -107t161 -74.5t250 -28q94 -3 185.5 17.5t165.5 60t122 96.5t56 128q1 12 -10 39.5t-29.5 62t-41 73t-44 73t-39.5 61t-26 38.5q-10 13 -11.5 25.5t2 23.5t10 21
t12.5 19q16 22 38 50t46.5 58t49 58.5t45 50.5t35.5 35t21 12z" />
    <glyph glyph-name="uniFB9F" unicode="&#x6ba;" horiz-adv-x="1752" arabic-form="final" 
d="M1758 0l-15 -1q-36 1 -66.5 8.5t-54.5 18t-40.5 21.5t-23.5 17q0 1 -1 -29t-9 -80t-25.5 -114.5t-51 -133t-86 -134.5t-129 -119t-181 -87.5t-242.5 -39.5q-250 -8 -420 64.5t-260 209t-99.5 328t62.5 419.5q9 21 20 52t25 64t30.5 65t35.5 55t41.5 33t47.5 1
q22 -8 26.5 -35.5t-2.5 -68t-20.5 -90.5t-27.5 -103q-27 -136 -3.5 -235t91.5 -163t178 -94.5t258 -28.5q94 0 170 15.5t135.5 41t102.5 58t70 67.5t39 69t10 62q-1 6 -5 18t-9.5 25.5t-12.5 27.5t-14 25q-13 21 -30.5 50.5t-37 61.5t-39 63t-36.5 55q-23 29 -17.5 50.5
t18.5 41.5q28 36 65.5 83.5t73.5 89.5t64 70.5t37 28.5q10 -1 21.5 -25t29 -60.5t41.5 -78.5t59.5 -78t83 -60t111.5 -24h9z" />
    <glyph glyph-name="uniFEAA" unicode="&#x62f;" horiz-adv-x="1183" arabic-form="final" 
d="M1199 477v-477q-27 0 -58 -1t-64.5 4t-69 18.5t-72 42.5t-73 76.5t-71.5 119.5q-16 -76 -63 -136q-20 -26 -48.5 -50t-68.5 -43t-91.5 -30.5t-117.5 -11.5q-90 0 -155.5 25.5t-110 68.5t-70 99t-35.5 116.5t-7 122t16 114.5q6 23 20 26t27 -5t30.5 -24t48 -32.5t78.5 -29
t123 -12.5q52 0 104 1t96 4.5t77.5 9t47.5 14.5q-5 13 -17.5 41.5t-29 66t-36.5 81.5t-39 88q-46 103 -100 226q67 90 122 160q23 30 45.5 58.5t41 51t30.5 36.5t15 14q70 -189 128 -345q25 -66 49.5 -131.5t45 -120.5t35.5 -93.5t21 -51.5q7 -17 20 -33t29 -29t34 -21
t37 -8h76z" />
    <glyph glyph-name="uni06C1" unicode="&#x6c1;" horiz-adv-x="1088" arabic-form="final" 
d="M1089 477q25 0 25 -24v-427q0 -25 -25 -25q-96 0 -169 18.5t-129.5 46.5t-101 60t-84.5 60t-79.5 46.5t-86.5 18.5q-29 0 -53 -3.5t-47.5 -20.5t-48 -52t-54.5 -98q-25 -56 -48 -77t-58 -11q-24 7 -37.5 20t-17.5 34.5t1 54t18 78.5q6 23 14 50t15.5 51t13 40.5l6.5 19.5
q35 94 80.5 165.5t96 119.5t102.5 71.5t100 22.5q19 0 52 -6.5t71.5 -21t77 -39t68.5 -61.5q27 -33 66 -54t81 -34t82 -18t69 -5z" />
    <glyph glyph-name="uni0686" unicode="&#x686;" horiz-adv-x="1503" arabic-form="isolated" 
d="M1342 573q-50 -2 -109 -5t-119 -8t-116 -12t-99 -15q-134 -27 -237.5 -69.5t-175 -95t-111 -113t-44.5 -122.5q-6 -64 12 -117.5t54 -96t88 -74.5t115 -54.5t134.5 -35.5t146.5 -16q93 -4 167.5 -1.5t133 8.5t101.5 13t72 13q108 17 141 -14t-12 -116q-19 -38 -57 -81
t-92.5 -83.5t-125.5 -74t-158.5 -53.5t-189.5 -22.5t-219 19.5q-151 28 -264 92.5t-186.5 157t-107 210t-25.5 252.5q3 54 16 122t44 141t83.5 147t134 140.5t197 121.5t271.5 89q-59 21 -99.5 33t-76.5 21t-73.5 17t-89.5 21q-56 14 -101.5 9t-75.5 -28q-9 -7 -23.5 -19
t-29 -25t-28 -26t-20.5 -21q-17 -16 -35 -21.5t-31.5 0t-20 22.5t0.5 47q11 49 27 100t38 99t50.5 90t65.5 73t82 48t100 14q52 -3 118 -21.5t142.5 -45.5t161 -58.5t174 -60t183 -50t186.5 -27.5q12 -1 24 -3.5t21.5 -8.5t14 -15.5t0.5 -23.5zM717.367 43.3613
l-177.012 179.135l179.082 180.171l157.344 -156.355l157.344 156.355l178.047 -178.1l-179.082 -181.206l-157.344 156.354zM877.816 128.27l164.59 -164.639l-165.625 -167.744l-167.695 165.674z" />
    <glyph glyph-name="uniFB7B" unicode="&#x686;" horiz-adv-x="1524" arabic-form="final" 
d="M623 -144l-171 173l173 174l152 -151l152 151l172 -172l-173 -175l-152 151zM778 -62l159 -159l-160 -162l-162 160zM109 688q10 43 26 91t38.5 95t52 89.5t66.5 73t82 46.5t100 10q58 -5 121 -23.5t133 -44t148.5 -55t168 -57t191.5 -50.5t219 -35q28 -5 36 -20t-3 -45
l-103 -286h100h62l-2 -477h-104q-101 2 -175 29.5t-123 76.5t-72.5 117t-23.5 152q-176 -17 -311 -61.5t-226.5 -107.5t-137 -139.5t-42.5 -155.5q3 -57 24.5 -103t57 -82.5t81 -63.5t97 -46.5t105 -31t104.5 -16.5q143 -15 288 -8.5t289 35.5q45 9 80.5 1.5t46.5 -34.5
t-8.5 -75.5t-85.5 -121.5q-60 -69 -142.5 -114t-175.5 -69.5t-189.5 -30.5t-184.5 5q-136 17 -239.5 57.5t-178.5 97.5t-124 127.5t-76.5 147.5t-35.5 156.5t-2 155.5q5 60 23.5 130t54.5 142.5t92 144.5t135 135t183 113t238 80q-58 19 -98.5 32.5t-75.5 23t-69.5 18
t-79.5 18.5q-40 10 -84.5 9.5t-82.5 -26.5q-12 -6 -26.5 -17.5t-28.5 -24.5t-26 -25.5t-19 -21.5q-23 -20 -42.5 -26t-32 2t-17 29t3.5 54z" />
    <glyph glyph-name="uni0623" unicode="&#x623;" horiz-adv-x="550" arabic-form="isolated" 
d="M454 1768q2 -2 3.5 -33t2 -79.5t0.5 -108t-0.5 -119t-1 -113.5t-0.5 -91q0 -63 -1 -144.5t-3 -173t-5 -188.5t-7.5 -190.5t-10 -179.5t-11.5 -155q-23 -36 -50 -70.5t-52 -63.5t-45.5 -50t-30.5 -31q-14 -15 -24.5 -17.5t-17.5 2t-10 12.5t-3 13l-112 1463q-2 18 2 31.5
t10 24t13 17t10 9.5q15 13 45 37t66.5 51.5t75.5 55.5t72.5 49.5t56.5 33.5t28 8zM59 1809q19 15 35 26q14 10 25 19t13 11q-23 9 -40 26.5t-29 39t-18.5 45.5t-7.5 46q4 28 22 64t46 68.5t64 57t77 30.5q18 1 40 -3t45 -17t46 -36t43 -59q8 -16 1 -28.5t-27 -5.5
q-4 2 -14 6.5t-25 8.5t-34.5 6t-41.5 0q-47 -5 -77 -28t-31 -57q7 -24 33 -36.5t58.5 -17.5t64.5 -3t53 7q19 5 38.5 8t29.5 7q2 2 7.5 1t3.5 -6q1 -35 1 -63v-46t-1 -27q-55 -7 -115 -24t-117 -43.5t-107 -63t-85 -83.5z" />
    <glyph glyph-name="uniFE84" unicode="&#x623;" horiz-adv-x="683" arabic-form="final" 
d="M694 478v-478h-87q-95 0 -174 24.5t-138.5 79t-96.5 142t-48 213.5q-4 48 -9.5 118t-11.5 152.5t-12 172.5t-12 178t-11.5 168.5t-10.5 145t-8.5 107t-5.5 53.5q7 8 34 27.5t63.5 45t79.5 55t83.5 57t74.5 50.5t52 36q6 4 15 8t17.5 3.5t13.5 -7.5t3 -23q0 -2 -0.5 -50
t-0.5 -126v-177v-202v-550q0 -115 49 -169.5t141 -54.5v1zM72 1872q19 15 35 26q14 10 25 19t13 11q-23 9 -40 26.5t-29 39t-18.5 45.5t-7.5 46q4 28 22 64t46 68.5t64 57t77 30.5q18 1 40 -3t45 -17t46 -36t43 -59q8 -16 1 -28.5t-27 -5.5q-4 2 -14 6.5t-25 8.5t-34.5 6
t-41.5 0q-47 -5 -77 -28t-31 -57q7 -24 33 -36.5t58.5 -17.5t64.5 -3t53 7q19 5 38.5 8t29.5 7q2 2 7.5 1t3.5 -6q1 -35 1 -63v-46t-1 -27q-55 -7 -115 -24t-117 -43.5t-107 -63t-85 -83.5z" />
    <glyph glyph-name="uni0625" unicode="&#x625;" horiz-adv-x="574" arabic-form="isolated" 
d="M440 1768q2 -2 3.5 -33t2 -79.5t0.5 -108t-0.5 -119t-1 -113.5t-0.5 -91q0 -63 -1 -144.5t-3 -173t-5 -188.5t-7.5 -190.5t-10 -179.5t-11.5 -155q-23 -36 -50 -70.5t-52 -63.5t-45.5 -50t-30.5 -31q-14 -15 -24.5 -17.5t-17.5 2t-10 12.5t-3 13l-112 1463q-2 18 2 31.5
t10 24t13 17t10 9.5q15 13 45 37t66.5 51.5t75.5 55.5t72.5 49.5t56.5 33.5t28 8zM98 -592q19 15 35 26q14 10 25 19t13 11q-23 9 -40 26.5t-29 39t-18.5 45.5t-7.5 46q4 28 22 64t46 68.5t64 57t77 30.5q18 1 40 -3t45 -17t46 -36t43 -59q8 -16 1 -28.5t-27 -5.5
q-4 2 -14 6.5t-25 8.5t-34.5 6t-41.5 0q-47 -5 -77 -28t-31 -57q7 -24 33 -36.5t58.5 -17.5t64.5 -3t53 7q19 5 38.5 8t29.5 7q2 2 7.5 1t3.5 -6q1 -35 1 -63v-46t-1 -27q-55 -7 -115 -24t-117 -43.5t-107 -63t-85 -83.5z" />
    <glyph glyph-name="uniFE88" unicode="&#x625;" horiz-adv-x="632" arabic-form="final" 
d="M645 478v-478h-87q-95 0 -174 24.5t-138.5 79t-96.5 142t-48 213.5q-4 48 -9.5 118t-11.5 152.5t-12 172.5t-12 178t-11.5 168.5t-10.5 145t-8.5 107t-5.5 53.5q7 8 34 27.5t63.5 45t79.5 55t83.5 57t74.5 50.5t52 36q6 4 15 8t17.5 3.5t13.5 -7.5t3 -23q0 -2 -0.5 -50
t-0.5 -126v-177v-202v-550q0 -115 49 -169.5t141 -54.5v1zM231 -595q19 15 35 26q14 10 25 19t13 11q-23 9 -40 26.5t-29 39t-18.5 45.5t-7.5 46q4 28 22 64t46 68.5t64 57t77 30.5q18 1 40 -3t45 -17t46 -36t43 -59q8 -16 1 -28.5t-27 -5.5q-4 2 -14 6.5t-25 8.5t-34.5 6
t-41.5 0q-47 -5 -77 -28t-31 -57q7 -24 33 -36.5t58.5 -17.5t64.5 -3t53 7q19 5 38.5 8t29.5 7q2 2 7.5 1t3.5 -6q1 -35 1 -63v-46t-1 -27q-55 -7 -115 -24t-117 -43.5t-107 -63t-85 -83.5z" />
    <glyph glyph-name="uni0622" unicode="&#x622;" horiz-adv-x="769" arabic-form="isolated" 
d="M599 1768q2 -2 3.5 -33t2 -79.5t0.5 -108t-0.5 -119t-1 -113.5t-0.5 -91q0 -63 -1 -144.5t-3 -173t-5 -188.5t-7.5 -190.5t-10 -179.5t-11.5 -155q-23 -36 -50 -70.5t-52 -63.5t-45.5 -50t-30.5 -31q-14 -15 -24.5 -17.5t-17.5 2t-10 12.5t-3 13l-112 1463q-2 18 2 31.5
t10 24t13 17t10 9.5q15 13 45 37t66.5 51.5t75.5 55.5t72.5 49.5t56.5 33.5t28 8zM842 2159q15 -9 13.5 -34.5t-17 -58.5t-44 -69.5t-68 -67.5t-88.5 -52.5t-106 -25.5q-42 -6 -87.5 -4.5t-89.5 6t-84 8t-72 0.5q-23 -1 -42 -10.5t-34.5 -23.5t-28.5 -29.5t-25 -28
t-24 -19.5t-26 -3q-13 3 -16 33t3 73t21 92t37.5 91t53 70t68.5 28q51 0 94 -7.5t86 -16t89.5 -13t103.5 1.5q54 6 97 20.5t77 27.5t60.5 18.5t48.5 -6.5z" />
    <glyph glyph-name="uniFE82" unicode="&#x622;" horiz-adv-x="676" arabic-form="final" 
d="M694 478v-478h-87q-95 0 -174 24.5t-138.5 79t-96.5 142t-48 213.5q-4 48 -9.5 118t-11.5 152.5t-12 172.5t-12 178t-11.5 168.5t-10.5 145t-8.5 107t-5.5 53.5q7 8 34 27.5t63.5 45t79.5 55t83.5 57t74.5 50.5t52 36q6 4 15 8t17.5 3.5t13.5 -7.5t3 -23q0 -2 -0.5 -50
t-0.5 -126v-177v-202v-550q0 -115 49 -169.5t141 -54.5v1zM770 2260q15 -9 13.5 -34.5t-17 -58.5t-44 -69.5t-68 -67.5t-88.5 -52.5t-106 -25.5q-42 -6 -87.5 -4.5t-89.5 6t-84 8t-72 0.5q-23 -1 -42 -10.5t-34.5 -23.5t-28.5 -29.5t-25 -28t-24 -19.5t-26 -3q-13 3 -16 33
t3 73t21 92t37.5 91t53 70t68.5 28q51 0 94 -7.5t86 -16t89.5 -13t103.5 1.5q54 6 97 20.5t77 27.5t60.5 18.5t48.5 -6.5z" />
    <glyph glyph-name="uni0671" unicode="&#x671;" horiz-adv-x="534" arabic-form="isolated" 
d="M423 1768q2 -2 3.5 -33t2 -79.5t0.5 -108t-0.5 -119t-1 -113.5t-0.5 -91q0 -63 -1 -144.5t-3 -173t-5 -188.5t-7.5 -190.5t-10 -179.5t-11.5 -155q-23 -36 -50 -70.5t-52 -63.5t-45.5 -50t-30.5 -31q-14 -15 -24.5 -17.5t-17.5 2t-10 12.5t-3 13l-112 1463q-2 18 2 31.5
t10 24t13 17t10 9.5q15 13 45 37t66.5 51.5t75.5 55.5t72.5 49.5t56.5 33.5t28 8zM477 2213q12 -16 20 -46.5t10.5 -64.5t-2.5 -66t-20 -50q-23 -29 -49.5 -41.5t-46.5 -17.5q-9 -2 -24.5 -4t-29.5 -3q-18 -2 -36 -2q-52 4 -80.5 16t-51.5 25q-20 10 -38 17.5t-49 8.5
q-10 -1 -23.5 -10t-25.5 -19.5t-21.5 -20l-11.5 -11.5q-9 -8 -18.5 -11.5t-18 -3.5t-15 2t-9.5 4q-4 3 -8.5 9t-6.5 14t-0.5 18.5t9.5 22.5q23 34 44 61.5t42.5 47t44.5 30t49 10.5q5 0 13.5 -2t27.5 -10q55 80 109 116.5t116 36.5q59 0 100 -56zM426 2083q-28 42 -69 42
q-47 0 -108 -47q25 -6 51 -8t49.5 -1t43.5 4.5t33 9.5z" />
    <glyph glyph-name="uniFB51" unicode="&#x671;" horiz-adv-x="676" arabic-form="final" 
d="M694 478v-478h-87q-95 0 -174 24.5t-138.5 79t-96.5 142t-48 213.5q-4 48 -9.5 118t-11.5 152.5t-12 172.5t-12 178t-11.5 168.5t-10.5 145t-8.5 107t-5.5 53.5q7 8 34 27.5t63.5 45t79.5 55t83.5 57t74.5 50.5t52 36q6 4 15 8t17.5 3.5t13.5 -7.5t3 -23q0 -2 -0.5 -50
t-0.5 -126v-177v-202v-550q0 -115 49 -169.5t141 -54.5v1zM540 2242q12 -16 20 -46.5t10.5 -64.5t-2.5 -66t-20 -50q-23 -29 -49.5 -41.5t-46.5 -17.5q-9 -2 -24.5 -4t-29.5 -3q-18 -2 -36 -2q-52 4 -80.5 16t-51.5 25q-20 10 -38 17.5t-49 8.5q-10 -1 -23.5 -10
t-25.5 -19.5t-21.5 -20l-11.5 -11.5q-9 -8 -18.5 -11.5t-18 -3.5t-15 2t-9.5 4q-4 3 -8.5 9t-6.5 14t-0.5 18.5t9.5 22.5q23 34 44 61.5t42.5 47t44.5 30t49 10.5q5 0 13.5 -2t27.5 -10q55 80 109 116.5t116 36.5q59 0 100 -56zM489 2112q-28 42 -69 42q-47 0 -108 -47
q25 -6 51 -8t49.5 -1t43.5 4.5t33 9.5z" />
    <glyph glyph-name="uni0628" unicode="&#x628;" horiz-adv-x="1972" arabic-form="isolated" 
d="M1752 1195q8 0 27 -24.5t41.5 -70.5t45.5 -111t37.5 -146t18 -176.5t-11.5 -201.5q-14 -96 -59 -172.5t-114.5 -135t-159.5 -101t-193.5 -70.5t-217 -43.5t-229.5 -19.5q-20 -1 -39.5 -1.5t-39.5 -0.5q-91 0 -182 9t-175.5 29.5t-160 55.5t-136 86.5t-102 122t-58.5 163
t-6.5 209t55.5 259.5q3 11 8 28.5t11.5 35t13 32t11.5 20.5q25 28 53 28q17 0 30 -11.5t18 -37.5q1 -8 -1 -25.5t-6 -38.5t-8 -42.5t-5 -37.5q-6 -84 16 -147.5t66.5 -110t110 -77.5t145.5 -49.5t172.5 -26.5t192.5 -8q60 0 129.5 6t141.5 17t143 26.5t133 35.5t112.5 43
t81.5 50q2 22 -14.5 58.5t-41 77.5t-53 80.5t-50.5 67.5q-11 13 -9 28t10 29.5t18.5 27t17.5 20.5q14 18 33.5 43t40.5 51.5t42.5 53t40.5 47t33.5 33.5t21.5 13zM950 -204l194 -194l-191 -190l-193 193z" />
    <glyph glyph-name="uniFE91" unicode="&#x628;" horiz-adv-x="584" arabic-form="initial" 
d="M390 1123q33 -47 62 -110.5t50 -136t33 -152t12 -158.5q0 -160 -25 -268.5t-88 -174.5t-170 -94.5t-272 -28.5q11 1 16 1h5l-12 -1q-15 -2 -24.5 5.5t-15 20t-7.5 27.5t-2 30v310q0 48 11.5 66t39.5 18h86q44 1 80 1t61.5 3.5t41 12t19.5 25.5q3 11 -4.5 31t-21.5 45
t-32 52.5t-36.5 53.5t-35.5 48.5t-29 37.5q-10 15 -6 33.5t10 27.5q18 25 51.5 66t69.5 83.5t68.5 78t47.5 49.5q7 7 11 3.5t6 -5.5zM200 -167l194 -194l-191 -190l-193 193z" />
    <glyph glyph-name="uniFE92" unicode="&#x628;" horiz-adv-x="622" arabic-form="medial" 
d="M631 1h-19q-85 0 -146.5 43t-92.5 120q-32 -46 -74.5 -77.5t-90.5 -50.5t-100 -27t-103 -8h15q-20 0 -31.5 9t-17.5 24.5t-7.5 35t-1.5 40.5q0 41 0.5 73t0.5 61.5v60t-1 68.5q-2 58 11.5 81t33.5 23h-13q57 0 102 2.5t75 15t43.5 38.5t7.5 73q-5 35 -9.5 67t-8.5 58
q-4 30 -9 57q52 32 99 59q20 12 40 23t38.5 21t33.5 17t25 10q5 1 9 -19.5t8.5 -60t9.5 -97t12 -129.5q3 -33 10 -58t22 -42t41.5 -26t68.5 -9h19v-476zM297 -167l194 -194l-191 -190l-193 193z" />
    <glyph glyph-name="uniFE90" unicode="&#x628;" horiz-adv-x="1919" arabic-form="final" 
d="M1924 1q-56 0 -99 14t-75.5 38t-54 56t-33.5 68q-64 -61 -137 -103t-166.5 -68.5t-213.5 -40t-279 -17.5q-251 -6 -431.5 52t-283 173.5t-122 286t52.5 390.5q2 7 6 19t9 24t9.5 23t6.5 16q13 34 35 46.5t41.5 7.5t31 -27.5t4.5 -59.5l-12 -76q-13 -79 5.5 -140.5
t62.5 -107.5t110.5 -77t149.5 -49.5t180 -25t202 -2.5q139 5 246.5 12.5t189.5 20t142 32t104 48.5t75 69.5t55 95.5q27 62 58 85.5t55 16t36 -41t1 -85.5q-5 -23 -11 -49.5t-11 -50.5l-12 -56q4 -11 14 -20q8 -8 22 -14t37 -6v-477zM900 -164l194 -194l-191 -190l-193 193z
" />
    <glyph glyph-name="uni067E" unicode="&#x67e;" horiz-adv-x="2001" arabic-form="isolated" 
d="M1775 1195q8 0 27 -24.5t41.5 -70.5t45.5 -111t37.5 -146t18 -176.5t-11.5 -201.5q-14 -96 -59 -172.5t-114.5 -135t-159.5 -101t-193.5 -70.5t-217 -43.5t-229.5 -19.5q-20 -1 -39.5 -1.5t-39.5 -0.5q-91 0 -182 9t-175.5 29.5t-160 55.5t-136 86.5t-102 122t-58.5 163
t-6.5 209t55.5 259.5q3 11 8 28.5t11.5 35t13 32t11.5 20.5q25 28 53 28q17 0 30 -11.5t18 -37.5q1 -8 -1 -25.5t-6 -38.5t-8 -42.5t-5 -37.5q-6 -84 16 -147.5t66.5 -110t110 -77.5t145.5 -49.5t172.5 -26.5t192.5 -8q60 0 129.5 6t141.5 17t143 26.5t133 35.5t112.5 43
t81.5 50q2 22 -14.5 58.5t-41 77.5t-53 80.5t-50.5 67.5q-11 13 -9 28t10 29.5t18.5 27t17.5 20.5q14 18 33.5 43t40.5 51.5t42.5 53t40.5 47t33.5 33.5t21.5 13zM828 -554l-171 173l173 174l152 -151l152 151l172 -172l-173 -175l-152 151zM983 -472l159 -159l-160 -162
l-162 160z" />
    <glyph glyph-name="uniFB57" unicode="&#x67e;" horiz-adv-x="1934" arabic-form="final" 
d="M1940 1q-56 0 -99 14t-75.5 38t-54 56t-33.5 68q-64 -61 -137 -103t-166.5 -68.5t-213.5 -40t-279 -17.5q-251 -6 -431.5 52t-283 173.5t-122 286t52.5 390.5q2 7 6 19t9 24t9.5 23t6.5 16q13 34 35 46.5t41.5 7.5t31 -27.5t4.5 -59.5l-12 -76q-13 -79 5.5 -140.5
t62.5 -107.5t110.5 -77t149.5 -49.5t180 -25t202 -2.5q139 5 246.5 12.5t189.5 20t142 32t104 48.5t75 69.5t55 95.5q27 62 58 85.5t55 16t36 -41t1 -85.5q-5 -23 -11 -49.5t-11 -50.5l-12 -56q4 -11 14 -20q8 -8 22 -14t37 -6v-477zM799 -562l-171 173l173 174l152 -151
l152 151l172 -172l-173 -175l-152 151zM954 -480l159 -159l-160 -162l-162 160z" />
    <glyph glyph-name="uniFB58" unicode="&#x67e;" horiz-adv-x="708" arabic-form="initial" 
d="M512 1123q33 -47 62 -110.5t50 -136t33 -152t12 -158.5q0 -160 -25 -268.5t-88 -174.5t-170 -94.5t-272 -28.5q-24 1 -46 1h-38t-31 -1q-15 -2 -24.5 5.5t-15 20t-7.5 27.5t-2 30v310q0 48 11.5 66t39.5 18h210q44 1 80 1t61.5 3.5t41 12t19.5 25.5q3 11 -4.5 31
t-21.5 45t-32 52.5t-36.5 53.5t-35.5 48.5t-29 37.5q-10 15 -6 33.5t10 27.5q18 25 51.5 66t69.5 83.5t68.5 78t47.5 49.5q7 7 11 3.5t6 -5.5zM183 -514l-171 173l173 174l152 -151l152 151l172 -172l-173 -175l-152 151zM338 -432l159 -159l-160 -162l-162 160z" />
    <glyph glyph-name="uniFB59" unicode="&#x67e;" horiz-adv-x="704" arabic-form="medial" 
d="M716 1h-55q-85 0 -146.5 43t-92.5 120q-32 -46 -74.5 -77.5t-90.5 -50.5t-100 -27t-103 -8h-40q-20 0 -31.5 9t-17.5 24.5t-7.5 35t-1.5 40.5q0 41 0.5 73t0.5 61.5v60t-1 68.5q-2 58 11.5 81t33.5 23h42q57 0 102 2.5t75 15t43.5 38.5t7.5 73q-5 35 -9.5 67t-8.5 58
q-4 30 -9 57q52 32 99 59q20 12 40 23t38.5 21t33.5 17t25 10q5 1 9 -19.5t8.5 -60t9.5 -97t12 -129.5q3 -33 10 -58t22 -42t41.5 -26t68.5 -9h55v-476zM178 -515l-171 173l173 174l152 -151l152 151l172 -172l-173 -175l-152 151zM333 -433l159 -159l-160 -162l-162 160z
" />
    <glyph glyph-name="uni062A" unicode="&#x62a;" horiz-adv-x="1967" arabic-form="isolated" 
d="M1751 1195q8 0 27 -24.5t41.5 -70.5t45.5 -111t37.5 -146t18 -176.5t-11.5 -201.5q-14 -96 -59 -172.5t-114.5 -135t-159.5 -101t-193.5 -70.5t-217 -43.5t-229.5 -19.5q-20 -1 -39.5 -1.5t-39.5 -0.5q-91 0 -182 9t-175.5 29.5t-160 55.5t-136 86.5t-102 122t-58.5 163
t-6.5 209t55.5 259.5q3 11 8 28.5t11.5 35t13 32t11.5 20.5q25 28 53 28q17 0 30 -11.5t18 -37.5q1 -8 -1 -25.5t-6 -38.5t-8 -42.5t-5 -37.5q-6 -84 16 -147.5t66.5 -110t110 -77.5t145.5 -49.5t172.5 -26.5t192.5 -8q60 0 129.5 6t141.5 17t143 26.5t133 35.5t112.5 43
t81.5 50q2 22 -14.5 58.5t-41 77.5t-53 80.5t-50.5 67.5q-11 13 -9 28t10 29.5t18.5 27t17.5 20.5q14 18 33.5 43t40.5 51.5t42.5 53t40.5 47t33.5 33.5t21.5 13zM1262 984l-179 -180l-158 157l-159 -157l-180 181l179 181l158 -157l159 157z" />
    <glyph glyph-name="uniFE97" unicode="&#x62a;" horiz-adv-x="699" arabic-form="initial" 
d="M685 1410l-179 -180l-158 157l-159 -157l-180 181l179 181l158 -157l159 157zM504 1123q33 -47 62 -110.5t50 -136t33 -152t12 -158.5q0 -160 -25 -268.5t-88 -174.5t-170 -94.5t-272 -28.5q-24 1 -46 1h-38t-31 -1q-15 -2 -24.5 5.5t-15 20t-7.5 27.5t-2 30v310
q0 48 11.5 66t39.5 18h210q44 1 80 1t61.5 3.5t41 12t19.5 25.5q3 11 -4.5 31t-21.5 45t-32 52.5t-36.5 53.5t-35.5 48.5t-29 37.5q-10 15 -6 33.5t10 27.5q18 25 51.5 66t69.5 83.5t68.5 78t47.5 49.5q7 7 11 3.5t6 -5.5z" />
    <glyph glyph-name="uniFE98" unicode="&#x62a;" horiz-adv-x="712" arabic-form="medial" 
d="M716 1h-55q-85 0 -146.5 43t-92.5 120q-32 -46 -74.5 -77.5t-90.5 -50.5t-100 -27t-103 -8h-40q-20 0 -31.5 9t-17.5 24.5t-7.5 35t-1.5 40.5q0 41 0.5 73t0.5 61.5v60t-1 68.5q-2 58 11.5 81t33.5 23h42q57 0 102 2.5t75 15t43.5 38.5t7.5 73q-5 35 -9.5 67t-8.5 58
q-4 30 -9 57q52 32 99 59q20 12 40 23t38.5 21t33.5 17t25 10q5 1 9 -19.5t8.5 -60t9.5 -97t12 -129.5q3 -33 10 -58t22 -42t41.5 -26t68.5 -9h55v-476zM682 1221l-179 -180l-158 157l-159 -157l-180 181l179 181l158 -157l159 157z" />
    <glyph glyph-name="uniFE96" unicode="&#x62a;" horiz-adv-x="1942" arabic-form="final" 
d="M1947 1q-56 0 -99 14t-75.5 38t-54 56t-33.5 68q-64 -61 -137 -103t-166.5 -68.5t-213.5 -40t-279 -17.5q-251 -6 -431.5 52t-283 173.5t-122 286t52.5 390.5q2 7 6 19t9 24t9.5 23t6.5 16q13 34 35 46.5t41.5 7.5t31 -27.5t4.5 -59.5l-12 -76q-13 -79 5.5 -140.5
t62.5 -107.5t110.5 -77t149.5 -49.5t180 -25t202 -2.5q139 5 246.5 12.5t189.5 20t142 32t104 48.5t75 69.5t55 95.5q27 62 58 85.5t55 16t36 -41t1 -85.5q-5 -23 -11 -49.5t-11 -50.5l-12 -56q4 -11 14 -20q8 -8 22 -14t37 -6v-477zM1284 975l-179 -180l-158 157l-159 -157
l-180 181l179 181l158 -157l159 157z" />
    <glyph glyph-name="uni062B" unicode="&#x62b;" horiz-adv-x="1960" arabic-form="isolated" 
d="M1750 1195q8 0 27 -24.5t41.5 -70.5t45.5 -111t37.5 -146t18 -176.5t-11.5 -201.5q-14 -96 -59 -172.5t-114.5 -135t-159.5 -101t-193.5 -70.5t-217 -43.5t-229.5 -19.5q-20 -1 -39.5 -1.5t-39.5 -0.5q-91 0 -182 9t-175.5 29.5t-160 55.5t-136 86.5t-102 122t-58.5 163
t-6.5 209t55.5 259.5q3 11 8 28.5t11.5 35t13 32t11.5 20.5q25 28 53 28q17 0 30 -11.5t18 -37.5q1 -8 -1 -25.5t-6 -38.5t-8 -42.5t-5 -37.5q-6 -84 16 -147.5t66.5 -110t110 -77.5t145.5 -49.5t172.5 -26.5t192.5 -8q60 0 129.5 6t141.5 17t143 26.5t133 35.5t112.5 43
t81.5 50q2 22 -14.5 58.5t-41 77.5t-53 80.5t-50.5 67.5q-11 13 -9 28t10 29.5t18.5 27t17.5 20.5q14 18 33.5 43t40.5 51.5t42.5 53t40.5 47t33.5 33.5t21.5 13zM1066 1153l171 -173l-173 -173l-152 149l-152 -149l-171 171l172 175l152 -151zM911 1070l-159 159l160 163
l161 -161z" />
    <glyph glyph-name="uniFE9B" unicode="&#x62b;" horiz-adv-x="708" arabic-form="initial" 
d="M540 1568l171 -173l-173 -173l-152 149l-152 -149l-171 171l172 175l152 -151zM385 1485l-159 159l160 163l161 -161zM512 1123q33 -47 62 -110.5t50 -136t33 -152t12 -158.5q0 -160 -25 -268.5t-88 -174.5t-170 -94.5t-272 -28.5q-24 1 -46 1h-38t-31 -1
q-15 -2 -24.5 5.5t-15 20t-7.5 27.5t-2 30v310q0 48 11.5 66t39.5 18h210q44 1 80 1t61.5 3.5t41 12t19.5 25.5q3 11 -4.5 31t-21.5 45t-32 52.5t-36.5 53.5t-35.5 48.5t-29 37.5q-10 15 -6 33.5t10 27.5q18 25 51.5 66t69.5 83.5t68.5 78t47.5 49.5q7 7 11 3.5t6 -5.5z" />
    <glyph glyph-name="uniFE9C" unicode="&#x62b;" horiz-adv-x="711" arabic-form="medial" 
d="M716 1h-55q-85 0 -146.5 43t-92.5 120q-32 -46 -74.5 -77.5t-90.5 -50.5t-100 -27t-103 -8h-40q-20 0 -31.5 9t-17.5 24.5t-7.5 35t-1.5 40.5q0 41 0.5 73t0.5 61.5v60t-1 68.5q-2 58 11.5 81t33.5 23h42q57 0 102 2.5t75 15t43.5 38.5t7.5 73q-5 35 -9.5 67t-8.5 58
q-4 30 -9 57q52 32 99 59q20 12 40 23t38.5 21t33.5 17t25 10q5 1 9 -19.5t8.5 -60t9.5 -97t12 -129.5q3 -33 10 -58t22 -42t41.5 -26t68.5 -9h55v-476zM547 1410l171 -173l-173 -173l-152 149l-152 -149l-171 171l172 175l152 -151zM392 1327l-159 159l160 163l161 -161z
" />
    <glyph glyph-name="uniFE9A" unicode="&#x62b;" horiz-adv-x="1906" arabic-form="final" 
d="M1913 1q-56 0 -99 14t-75.5 38t-54 56t-33.5 68q-64 -61 -137 -103t-166.5 -68.5t-213.5 -40t-279 -17.5q-251 -6 -431.5 52t-283 173.5t-122 286t52.5 390.5q2 7 6 19t9 24t9.5 23t6.5 16q13 34 35 46.5t41.5 7.5t31 -27.5t4.5 -59.5l-12 -76q-13 -79 5.5 -140.5
t62.5 -107.5t110.5 -77t149.5 -49.5t180 -25t202 -2.5q139 5 246.5 12.5t189.5 20t142 32t104 48.5t75 69.5t55 95.5q27 62 58 85.5t55 16t36 -41t1 -85.5q-5 -23 -11 -49.5t-11 -50.5l-12 -56q4 -11 14 -20q8 -8 22 -14t37 -6v-477zM1117 1148l171 -173l-173 -173l-152 149
l-152 -149l-171 171l172 175l152 -151zM962 1065l-159 159l160 163l161 -161z" />
    <glyph glyph-name="uni0679" unicode="&#x679;" horiz-adv-x="1974" arabic-form="isolated" 
d="M1760 1195q8 0 27 -24.5t41.5 -70.5t45.5 -111t37.5 -146t18 -176.5t-11.5 -201.5q-14 -96 -59 -172.5t-114.5 -135t-159.5 -101t-193.5 -70.5t-217 -43.5t-229.5 -19.5q-20 -1 -39.5 -1.5t-39.5 -0.5q-91 0 -182 9t-175.5 29.5t-160 55.5t-136 86.5t-102 122t-58.5 163
t-6.5 209t55.5 259.5q3 11 8 28.5t11.5 35t13 32t11.5 20.5q25 28 53 28q17 0 30 -11.5t18 -37.5q1 -8 -1 -25.5t-6 -38.5t-8 -42.5t-5 -37.5q-6 -84 16 -147.5t66.5 -110t110 -77.5t145.5 -49.5t172.5 -26.5t192.5 -8q60 0 129.5 6t141.5 17t143 26.5t133 35.5t112.5 43
t81.5 50q2 22 -14.5 58.5t-41 77.5t-53 80.5t-50.5 67.5q-11 13 -9 28t10 29.5t18.5 27t17.5 20.5q14 18 33.5 43t40.5 51.5t42.5 53t40.5 47t33.5 33.5t21.5 13zM1155 1198q45 -6 66.5 -34.5t27 -64t0 -70.5t-13.5 -54q-11 -26 -28.5 -61.5t-55.5 -67t-104 -51t-175 -14.5
q-55 3 -94.5 16t-66 31.5t-42 40t-23 42t-9 37t-0.5 25.5q0 9 3 13.5t6.5 5.5t8.5 0l10 -2q19 -6 39.5 -9.5t37.5 -5t28 -1l11 0.5q13 1 19.5 11.5t8.5 25t1.5 29.5t-1.5 24q-6 56 -13 118q-6 54 -14 121.5t-19 140.5q3 3 14 12t26.5 20.5t33.5 24.5t33 24t25.5 18.5
t12.5 8.5l7 3.5t9.5 2t7.5 -6.5t3 -22q0 -5 0.5 -15.5t1 -23.5l1 -26t0.5 -24q3 -86 3 -157q0 -30 -0.5 -60.5t-2 -57t-4 -46t-6.5 -27.5q39 37 71 59.5t59 33.5t50.5 13t46.5 -1zM1163 1016q3 9 0 20.5t-12.5 20.5t-27 13t-43.5 -2q-54 -12 -99 -38t-86 -63q2 0 14.5 -1
t31 -1.5t40 -1t41.5 0.5q42 2 68.5 7.5t41.5 13t21.5 15.5t9.5 16z" />
    <glyph glyph-name="uniFB68" unicode="&#x679;" horiz-adv-x="708" arabic-form="initial" 
d="M547 1746q45 -6 66.5 -34.5t27 -64t0 -70.5t-13.5 -54q-11 -26 -28.5 -61.5t-55.5 -67t-104 -51t-175 -14.5q-55 3 -94.5 16t-66 31.5t-42 40t-23 42t-9 37t-0.5 25.5q0 9 3 13.5t6.5 5.5t8.5 0l10 -2q19 -6 39.5 -9.5t37.5 -5t28 -1l11 0.5q13 1 19.5 11.5t8.5 25
t1.5 29.5t-1.5 24q-6 56 -13 118q-6 54 -14 121.5t-19 140.5q3 3 14 12t26.5 20.5t33.5 24.5t33 24t25.5 18.5t12.5 8.5l7 3.5t9.5 2t7.5 -6.5t3 -22q0 -5 0.5 -15.5t1 -23.5l1 -26t0.5 -24q3 -86 3 -157q0 -30 -0.5 -60.5t-2 -57t-4 -46t-6.5 -27.5q39 37 71 59.5t59 33.5
t50.5 13t46.5 -1zM555 1564q3 9 0 20.5t-12.5 20.5t-27 13t-43.5 -2q-54 -12 -99 -38t-86 -63q2 0 14.5 -1t31 -1.5t40 -1t41.5 0.5q42 2 68.5 7.5t41.5 13t21.5 15.5t9.5 16zM512 1123q33 -47 62 -110.5t50 -136t33 -152t12 -158.5q0 -160 -25 -268.5t-88 -174.5
t-170 -94.5t-272 -28.5q-24 1 -46 1h-38t-31 -1q-15 -2 -24.5 5.5t-15 20t-7.5 27.5t-2 30v310q0 48 11.5 66t39.5 18h210q44 1 80 1t61.5 3.5t41 12t19.5 25.5q3 11 -4.5 31t-21.5 45t-32 52.5t-36.5 53.5t-35.5 48.5t-29 37.5q-10 15 -6 33.5t10 27.5q18 25 51.5 66
t69.5 83.5t68.5 78t47.5 49.5q7 7 11 3.5t6 -5.5z" />
    <glyph glyph-name="uniFB69" unicode="&#x679;" horiz-adv-x="708" arabic-form="medial" 
d="M716 1h-55q-85 0 -146.5 43t-92.5 120q-32 -46 -74.5 -77.5t-90.5 -50.5t-100 -27t-103 -8h-40q-20 0 -31.5 9t-17.5 24.5t-7.5 35t-1.5 40.5q0 41 0.5 73t0.5 61.5v60t-1 68.5q-2 58 11.5 81t33.5 23h42q57 0 102 2.5t75 15t43.5 38.5t7.5 73q-5 35 -9.5 67t-8.5 58
q-4 30 -9 57q52 32 99 59q20 12 40 23t38.5 21t33.5 17t25 10q5 1 9 -19.5t8.5 -60t9.5 -97t12 -129.5q3 -33 10 -58t22 -42t41.5 -26t68.5 -9h55v-476zM568 1595q45 -6 66.5 -34.5t27 -64t0 -70.5t-13.5 -54q-11 -26 -28.5 -61.5t-55.5 -67t-104 -51t-175 -14.5
q-55 3 -94.5 16t-66 31.5t-42 40t-23 42t-9 37t-0.5 25.5q0 9 3 13.5t6.5 5.5t8.5 0l10 -2q19 -6 39.5 -9.5t37.5 -5t28 -1l11 0.5q13 1 19.5 11.5t8.5 25t1.5 29.5t-1.5 24q-6 56 -13 118q-6 54 -14 121.5t-19 140.5q3 3 14 12t26.5 20.5t33.5 24.5t33 24t25.5 18.5
t12.5 8.5l7 3.5t9.5 2t7.5 -6.5t3 -22q0 -5 0.5 -15.5t1 -23.5l1 -26t0.5 -24q3 -86 3 -157q0 -30 -0.5 -60.5t-2 -57t-4 -46t-6.5 -27.5q39 37 71 59.5t59 33.5t50.5 13t46.5 -1zM576 1413q3 9 0 20.5t-12.5 20.5t-27 13t-43.5 -2q-54 -12 -99 -38t-86 -63q2 0 14.5 -1
t31 -1.5t40 -1t41.5 0.5q42 2 68.5 7.5t41.5 13t21.5 15.5t9.5 16z" />
    <glyph glyph-name="uniFB67" unicode="&#x679;" horiz-adv-x="1910" arabic-form="final" 
d="M1914 1q-56 0 -99 14t-75.5 38t-54 56t-33.5 68q-64 -61 -137 -103t-166.5 -68.5t-213.5 -40t-279 -17.5q-251 -6 -431.5 52t-283 173.5t-122 286t52.5 390.5q2 7 6 19t9 24t9.5 23t6.5 16q13 34 35 46.5t41.5 7.5t31 -27.5t4.5 -59.5l-12 -76q-13 -79 5.5 -140.5
t62.5 -107.5t110.5 -77t149.5 -49.5t180 -25t202 -2.5q139 5 246.5 12.5t189.5 20t142 32t104 48.5t75 69.5t55 95.5q27 62 58 85.5t55 16t36 -41t1 -85.5q-5 -23 -11 -49.5t-11 -50.5l-12 -56q4 -11 14 -20q8 -8 22 -14t37 -6v-477zM1168 1208q45 -6 66.5 -34.5t27 -64
t0 -70.5t-13.5 -54q-11 -26 -28.5 -61.5t-55.5 -67t-104 -51t-175 -14.5q-55 3 -94.5 16t-66 31.5t-42 40t-23 42t-9 37t-0.5 25.5q0 9 3 13.5t6.5 5.5t8.5 0l10 -2q19 -6 39.5 -9.5t37.5 -5t28 -1l11 0.5q13 1 19.5 11.5t8.5 25t1.5 29.5t-1.5 24q-6 56 -13 118
q-6 54 -14 121.5t-19 140.5q3 3 14 12t26.5 20.5t33.5 24.5t33 24t25.5 18.5t12.5 8.5l7 3.5t9.5 2t7.5 -6.5t3 -22q0 -5 0.5 -15.5t1 -23.5l1 -26t0.5 -24q3 -86 3 -157q0 -30 -0.5 -60.5t-2 -57t-4 -46t-6.5 -27.5q39 37 71 59.5t59 33.5t50.5 13t46.5 -1zM1176 1026
q3 9 0 20.5t-12.5 20.5t-27 13t-43.5 -2q-54 -12 -99 -38t-86 -63q2 0 14.5 -1t31 -1.5t40 -1t41.5 0.5q42 2 68.5 7.5t41.5 13t21.5 15.5t9.5 16z" />
    <glyph glyph-name="uni0629" unicode="&#x629;" horiz-adv-x="981" arabic-form="isolated" 
d="M471 401q24 0 54 4.5t57 14t45 23.5t18 32q0 31 -22 66t-64 67.5t-103.5 57.5t-141.5 36q-42 -69 -41.5 -125t28.5 -95t74 -60t96 -21zM923 543q12 -139 -21 -244t-96.5 -176t-151 -107t-184.5 -36q-106 0 -185.5 28.5t-128 89t-65 154.5t3.5 226q22 144 52.5 260
t62.5 197t61 124.5t47 43.5q20 0 70.5 -14t115 -43.5t135 -74.5t131 -107t103 -142t50.5 -179zM776 1434l-179 -180l-158 157l-159 -157l-180 181l179 181l158 -157l159 157z" />
    <glyph glyph-name="uniFE94" unicode="&#x629;" horiz-adv-x="1016" arabic-form="final" 
d="M1020 0h-5q-139 0 -227.5 53.5t-133.5 168.5q-17 -13 -63 -21.5t-106 -11t-128 3.5t-128.5 22.5t-108 45t-66.5 71.5q-9 21 -11 53.5t1 71t10 79.5t16 78t18 67.5t17 47.5q19 33 63 71t97 76t107.5 73.5t95.5 65.5l-21 95q4 8 24 28.5t48.5 48t62.5 59t66 61t59 54
t42 37.5q5 5 11.5 3t7.5 -8q11 -72 25.5 -166t30.5 -196t33.5 -206.5t34.5 -198.5q4 -26 13.5 -52.5t24 -48t34.5 -35t47 -13.5h9v-477zM228 619q4 -22 25.5 -35.5t53 -21.5t69 -11t74.5 -2.5t69.5 2.5t52.5 5q-12 57 -24.5 113.5t-29.5 127.5q-43 -18 -95 -41.5t-96.5 -48
t-73 -47.5t-25.5 -41zM957 1723l-179 -180l-158 157l-159 -157l-180 181l179 181l158 -157l159 157z" />
    <glyph glyph-name="uniFB7C" unicode="&#x686;" horiz-adv-x="1417" arabic-form="initial" 
d="M1329 835q25 -2 38.5 -7.5t19 -13.5t4.5 -17.5t-5 -19.5l-138 -388q-88 -12 -168 -46t-161 -77.5t-166.5 -91t-184.5 -86.5t-215 -64t-257 -23q-23 0 -41 1t-39 -1q-42 -3 -54 19t-12 64v317q0 27 3.5 42t9.5 22.5t15.5 10t21.5 2.5q21 1 45.5 0.5t51.5 -1.5
q56 1 122 2.5t136 5.5t141.5 11t138 19.5t125.5 31t105 45.5q-54 22 -117 46.5t-124.5 46t-117.5 38.5t-97 25q-37 8 -73 -5.5t-66 -34.5t-51.5 -42.5t-30.5 -29.5q-21 -24 -42.5 -32t-36 1t-18.5 36t10 72q33 111 71.5 185t81 118t90 62t98.5 18q53 0 111.5 -16.5
t124 -42.5t138 -57t153.5 -60t171 -52.5t189 -32.5zM504 -429l-171 173l173 174l152 -151l152 151l172 -172l-173 -175l-152 151zM659 -347l159 -159l-160 -162l-162 160z" />
    <glyph glyph-name="uniFB7D" unicode="&#x686;" horiz-adv-x="1439" arabic-form="medial" 
d="M1293 479q-10 -1 -9 -1.5t9.5 -0.5h23h31.5h96l-1 -477h-97q-56 -1 -112.5 14.5t-105.5 52t-86 96.5t-52 150q-51 -24 -107 -57t-121 -68t-142 -69t-170 -60.5t-204 -43t-245 -15.5q-13 0 -22.5 3t-15.5 12t-9 25.5t-2 43.5v49v74v86.5v86.5q0 33 2 52.5t7.5 29
t15.5 12.5t26 3q187 -1 353 10q71 5 144.5 13t141 20.5t124 29.5t94.5 41q-51 20 -103 41t-101.5 39.5t-95.5 34t-85 24.5q-24 5 -53 12.5t-63.5 4.5t-74 -23t-82.5 -69q-32 -36 -57 -48t-40.5 -3.5t-18.5 36.5t10 72q26 88 57.5 159t72.5 120.5t93 76.5t118 27
q56 0 115 -17t123.5 -43t137.5 -58t156.5 -61t180 -52.5t209.5 -32.5q24 -2 34.5 -9t12 -19t-3.5 -28t-11 -36zM504 -427l-171 173l173 174l152 -151l152 151l172 -172l-173 -175l-152 151zM659 -345l159 -159l-160 -162l-162 160z" />
    <glyph glyph-name="uni062C" unicode="&#x62c;" horiz-adv-x="1493" arabic-form="isolated" 
d="M1332 575q-50 -2 -109 -5t-119 -8t-116 -12t-99 -15q-134 -27 -237.5 -69.5t-175 -95t-111 -113t-44.5 -122.5q-6 -64 12 -117.5t54 -96t88 -74.5t115 -54.5t134.5 -35.5t146.5 -16q93 -4 167.5 -1.5t133 8.5t101.5 13t72 13q108 17 141 -14t-12 -116q-19 -38 -57 -81
t-92.5 -83.5t-125.5 -74t-158.5 -53.5t-189.5 -22.5t-219 19.5q-151 28 -264 92.5t-186.5 157t-107 210t-25.5 252.5q3 54 16 122t44 141t83.5 147t134 140.5t197 121.5t271.5 89q-59 21 -99.5 33t-76.5 21t-73.5 17t-89.5 21q-56 14 -101.5 9t-75.5 -28q-9 -7 -23.5 -19
t-29 -25t-28 -26t-20.5 -21q-17 -16 -35 -21.5t-31.5 0t-20 22.5t0.5 47q11 49 27 100t38 99t50.5 90t65.5 73t82 48t100 14q52 -3 118 -21.5t142.5 -45.5t161 -58.5t174 -60t183 -50t186.5 -27.5q12 -1 24 -3.5t21.5 -8.5t14 -15.5t0.5 -23.5zM888 331l194 -194l-191 -190
l-193 193z" />
    <glyph glyph-name="uniFE9F" unicode="&#x62c;" horiz-adv-x="1412" arabic-form="initial" 
d="M1329 835q25 -2 38.5 -7.5t19 -13.5t4.5 -17.5t-5 -19.5l-138 -388q-88 -12 -168 -46t-161 -77.5t-166.5 -91t-184.5 -86.5t-215 -64t-257 -23q-23 0 -41 1t-39 -1q-42 -3 -54 19t-12 64v317q0 27 3.5 42t9.5 22.5t15.5 10t21.5 2.5q21 1 45.5 0.5t51.5 -1.5
q56 1 122 2.5t136 5.5t141.5 11t138 19.5t125.5 31t105 45.5q-54 22 -117 46.5t-124.5 46t-117.5 38.5t-97 25q-37 8 -73 -5.5t-66 -34.5t-51.5 -42.5t-30.5 -29.5q-21 -24 -42.5 -32t-36 1t-18.5 36t10 72q33 111 71.5 185t81 118t90 62t98.5 18q53 0 111.5 -16.5
t124 -42.5t138 -57t153.5 -60t171 -52.5t189 -32.5zM587 -132l194 -194l-191 -190l-193 193z" />
    <glyph glyph-name="uniFEA0" unicode="&#x62c;" horiz-adv-x="1450" arabic-form="medial" 
d="M1303 479q-10 -1 -9 -1.5t9.5 -0.5h23h31.5h96l-1 -477h-97q-56 -1 -112.5 14.5t-105.5 52t-86 96.5t-52 150q-51 -24 -107 -57t-121 -68t-142 -69t-170 -60.5t-204 -43t-245 -15.5q-13 0 -22.5 3t-15.5 12t-9 25.5t-2 43.5v49v74v86.5v86.5q0 33 2 52.5t7.5 29
t15.5 12.5t26 3q187 -1 353 10q71 5 144.5 13t141 20.5t124 29.5t94.5 41q-51 20 -103 41t-101.5 39.5t-95.5 34t-85 24.5q-24 5 -53 12.5t-63.5 4.5t-74 -23t-82.5 -69q-32 -36 -57 -48t-40.5 -3.5t-18.5 36.5t10 72q26 88 57.5 159t72.5 120.5t93 76.5t118 27
q56 0 115 -17t123.5 -43t137.5 -58t156.5 -61t180 -52.5t209.5 -32.5q24 -2 34.5 -9t12 -19t-3.5 -28t-11 -36zM558 -146l194 -194l-191 -190l-193 193z" />
    <glyph glyph-name="uniFE9E" unicode="&#x62c;" horiz-adv-x="1531" arabic-form="final" 
d="M109 688q10 43 26 91t38.5 95t52 89.5t66.5 73t82 46.5t100 10q58 -5 121 -23.5t133 -44t148.5 -55t168 -57t191.5 -50.5t219 -35q28 -5 36 -20t-3 -45l-103 -286h100h62l-2 -477h-104q-101 2 -175 29.5t-123 76.5t-72.5 117t-23.5 152q-176 -17 -311 -61.5
t-226.5 -107.5t-137 -139.5t-42.5 -155.5q3 -57 24.5 -103t57 -82.5t81 -63.5t97 -46.5t105 -31t104.5 -16.5q143 -15 288 -8.5t289 35.5q45 9 80.5 1.5t46.5 -34.5t-8.5 -75.5t-85.5 -121.5q-60 -69 -142.5 -114t-175.5 -69.5t-189.5 -30.5t-184.5 5q-136 17 -239.5 57.5
t-178.5 97.5t-124 127.5t-76.5 147.5t-35.5 156.5t-2 155.5q5 60 23.5 130t54.5 142.5t92 144.5t135 135t183 113t238 80q-58 19 -98.5 32.5t-75.5 23t-69.5 18t-79.5 18.5q-40 10 -84.5 9.5t-82.5 -26.5q-12 -6 -26.5 -17.5t-28.5 -24.5t-26 -25.5t-19 -21.5
q-23 -20 -42.5 -26t-32 2t-17 29t3.5 54zM821 96l194 -194l-191 -190l-193 193z" />
    <glyph glyph-name="uni062E" unicode="&#x62e;" horiz-adv-x="1522" arabic-form="isolated" 
d="M1353 574q-50 -2 -109 -5t-119 -8t-116 -12t-99 -15q-134 -27 -237.5 -69.5t-175 -95t-111 -113t-44.5 -122.5q-6 -64 12 -117.5t54 -96t88 -74.5t115 -54.5t134.5 -35.5t146.5 -16q93 -4 167.5 -1.5t133 8.5t101.5 13t72 13q108 17 141 -14t-12 -116q-19 -38 -57 -81
t-92.5 -83.5t-125.5 -74t-158.5 -53.5t-189.5 -22.5t-219 19.5q-151 28 -264 92.5t-186.5 157t-107 210t-25.5 252.5q3 54 16 122t44 141t83.5 147t134 140.5t197 121.5t271.5 89q-59 21 -99.5 33t-76.5 21t-73.5 17t-89.5 21q-56 14 -101.5 9t-75.5 -28q-9 -7 -23.5 -19
t-29 -25t-28 -26t-20.5 -21q-17 -16 -35 -21.5t-31.5 0t-20 22.5t0.5 47q11 49 27 100t38 99t50.5 90t65.5 73t82 48t100 14q52 -3 118 -21.5t142.5 -45.5t161 -58.5t174 -60t183 -50t186.5 -27.5q12 -1 24 -3.5t21.5 -8.5t14 -15.5t0.5 -23.5zM413 1762l194 -194l-191 -190
l-193 193z" />
    <glyph glyph-name="uniFEA7" unicode="&#x62e;" horiz-adv-x="1436" arabic-form="initial" 
d="M1329 835q25 -2 38.5 -7.5t19 -13.5t4.5 -17.5t-5 -19.5l-138 -388q-88 -12 -168 -46t-161 -77.5t-166.5 -91t-184.5 -86.5t-215 -64t-257 -23q-23 0 -41 1t-39 -1q-42 -3 -54 19t-12 64v317q0 27 3.5 42t9.5 22.5t15.5 10t21.5 2.5q21 1 45.5 0.5t51.5 -1.5
q56 1 122 2.5t136 5.5t141.5 11t138 19.5t125.5 31t105 45.5q-54 22 -117 46.5t-124.5 46t-117.5 38.5t-97 25q-37 8 -73 -5.5t-66 -34.5t-51.5 -42.5t-30.5 -29.5q-21 -24 -42.5 -32t-36 1t-18.5 36t10 72q33 111 71.5 185t81 118t90 62t98.5 18q53 0 111.5 -16.5
t124 -42.5t138 -57t153.5 -60t171 -52.5t189 -32.5zM449 1610l194 -194l-191 -190l-193 193z" />
    <glyph glyph-name="uniFEA8" unicode="&#x62e;" horiz-adv-x="1443" arabic-form="medial" 
d="M1298 479q-10 -1 -9 -1.5t9.5 -0.5h23h31.5h96l-1 -477h-97q-56 -1 -112.5 14.5t-105.5 52t-86 96.5t-52 150q-51 -24 -107 -57t-121 -68t-142 -69t-170 -60.5t-204 -43t-245 -15.5q-13 0 -22.5 3t-15.5 12t-9 25.5t-2 43.5v49v74v86.5v86.5q0 33 2 52.5t7.5 29
t15.5 12.5t26 3q187 -1 353 10q71 5 144.5 13t141 20.5t124 29.5t94.5 41q-51 20 -103 41t-101.5 39.5t-95.5 34t-85 24.5q-24 5 -53 12.5t-63.5 4.5t-74 -23t-82.5 -69q-32 -36 -57 -48t-40.5 -3.5t-18.5 36.5t10 72q26 88 57.5 159t72.5 120.5t93 76.5t118 27
q56 0 115 -17t123.5 -43t137.5 -58t156.5 -61t180 -52.5t209.5 -32.5q24 -2 34.5 -9t12 -19t-3.5 -28t-11 -36zM472 1624l194 -194l-191 -190l-193 193z" />
    <glyph glyph-name="uniFEA6" unicode="&#x62e;" horiz-adv-x="1531" arabic-form="final" 
d="M109 688q10 43 26 91t38.5 95t52 89.5t66.5 73t82 46.5t100 10q58 -5 121 -23.5t133 -44t148.5 -55t168 -57t191.5 -50.5t219 -35q28 -5 36 -20t-3 -45l-103 -286h100h62l-2 -477h-104q-101 2 -175 29.5t-123 76.5t-72.5 117t-23.5 152q-176 -17 -311 -61.5
t-226.5 -107.5t-137 -139.5t-42.5 -155.5q3 -57 24.5 -103t57 -82.5t81 -63.5t97 -46.5t105 -31t104.5 -16.5q143 -15 288 -8.5t289 35.5q45 9 80.5 1.5t46.5 -34.5t-8.5 -75.5t-85.5 -121.5q-60 -69 -142.5 -114t-175.5 -69.5t-189.5 -30.5t-184.5 5q-136 17 -239.5 57.5
t-178.5 97.5t-124 127.5t-76.5 147.5t-35.5 156.5t-2 155.5q5 60 23.5 130t54.5 142.5t92 144.5t135 135t183 113t238 80q-58 19 -98.5 32.5t-75.5 23t-69.5 18t-79.5 18.5q-40 10 -84.5 9.5t-82.5 -26.5q-12 -6 -26.5 -17.5t-28.5 -24.5t-26 -25.5t-19 -21.5
q-23 -20 -42.5 -26t-32 2t-17 29t3.5 54zM497 1620l194 -194l-191 -190l-193 193z" />
    <glyph glyph-name="uni0630" unicode="&#x630;" horiz-adv-x="1106" arabic-form="isolated" 
d="M551 1299q3 -1 39 -26.5t87 -74t110 -118t109.5 -159t83.5 -197t33 -230.5q0 -144 -30 -240t-92 -154t-157.5 -82.5t-226.5 -24.5q-103 0 -177.5 33t-123 92t-71.5 140t-23 178q0 40 5 67.5t16 35.5t24 5.5t31 -12t42.5 -23t58.5 -26t79.5 -21t105.5 -8.5q25 0 61 1.5
t76.5 4.5t80 9t71 15t51 21t18.5 29q-1 26 -29 59.5t-72.5 70t-100.5 73.5t-113.5 71t-111.5 63t-94 48q58 108 106 192q21 36 41.5 70.5t39 61t32.5 42t21 14.5zM542 1850l194 -194l-191 -190l-193 193z" />
    <glyph glyph-name="uniFEAC" unicode="&#x630;" horiz-adv-x="1188" arabic-form="final" 
d="M1199 477v-477q-27 0 -58 -1t-64.5 4t-69 18.5t-72 42.5t-73 76.5t-71.5 119.5q-16 -76 -63 -136q-20 -26 -48.5 -50t-68.5 -43t-91.5 -30.5t-117.5 -11.5q-90 0 -155.5 25.5t-110 68.5t-70 99t-35.5 116.5t-7 122t16 114.5q6 23 20 26t27 -5t30.5 -24t48 -32.5t78.5 -29
t123 -12.5q52 0 104 1t96 4.5t77.5 9t47.5 14.5q-5 13 -17.5 41.5t-29 66t-36.5 81.5t-39 88q-46 103 -100 226q67 90 122 160q23 30 45.5 58.5t41 51t30.5 36.5t15 14q70 -189 128 -345q25 -66 49.5 -131.5t45 -120.5t35.5 -93.5t21 -51.5q7 -17 20 -33t29 -29t34 -21
t37 -8h76zM677 1825l194 -194l-191 -190l-193 193z" />
    <glyph glyph-name="uni0688" unicode="&#x688;" horiz-adv-x="976" arabic-form="isolated" 
d="M539 1299q3 -1 39 -26.5t87 -74t110 -118t109.5 -159t83.5 -197t33 -230.5q0 -144 -30 -240t-92 -154t-157.5 -82.5t-226.5 -24.5q-103 0 -177.5 33t-123 92t-71.5 140t-23 178q0 40 5 67.5t16 35.5t24 5.5t31 -12t42.5 -23t58.5 -26t79.5 -21t105.5 -8.5q25 0 61 1.5
t76.5 4.5t80 9t71 15t51 21t18.5 29q-1 26 -29 59.5t-72.5 70t-100.5 73.5t-113.5 71t-111.5 63t-94 48q58 108 106 192q21 36 41.5 70.5t39 61t32.5 42t21 14.5zM661 1806q45 -6 66.5 -34.5t27 -64t0 -70.5t-13.5 -54q-11 -26 -28.5 -61.5t-55.5 -67t-104 -51t-175 -14.5
q-55 3 -94.5 16t-66 31.5t-42 40t-23 42t-9 37t-0.5 25.5q0 9 3 13.5t6.5 5.5t8.5 0l10 -2q19 -6 39.5 -9.5t37.5 -5t28 -1l11 0.5q13 1 19.5 11.5t8.5 25t1.5 29.5t-1.5 24q-6 56 -13 118q-6 54 -14 121.5t-19 140.5q3 3 14 12t26.5 20.5t33.5 24.5t33 24t25.5 18.5
t12.5 8.5l7 3.5t9.5 2t7.5 -6.5t3 -22q0 -5 0.5 -15.5t1 -23.5l1 -26t0.5 -24q3 -86 3 -157q0 -30 -0.5 -60.5t-2 -57t-4 -46t-6.5 -27.5q39 37 71 59.5t59 33.5t50.5 13t46.5 -1zM669 1624q3 9 0 20.5t-12.5 20.5t-27 13t-43.5 -2q-54 -12 -99 -38t-86 -63q2 0 14.5 -1
t31 -1.5t40 -1t41.5 0.5q42 2 68.5 7.5t41.5 13t21.5 15.5t9.5 16z" />
    <glyph glyph-name="uniFB89" unicode="&#x688;" horiz-adv-x="1188" arabic-form="final" 
d="M1199 477v-477q-27 0 -58 -1t-64.5 4t-69 18.5t-72 42.5t-73 76.5t-71.5 119.5q-16 -76 -63 -136q-20 -26 -48.5 -50t-68.5 -43t-91.5 -30.5t-117.5 -11.5q-90 0 -155.5 25.5t-110 68.5t-70 99t-35.5 116.5t-7 122t16 114.5q6 23 20 26t27 -5t30.5 -24t48 -32.5t78.5 -29
t123 -12.5q52 0 104 1t96 4.5t77.5 9t47.5 14.5q-5 13 -17.5 41.5t-29 66t-36.5 81.5t-39 88q-46 103 -100 226q67 90 122 160q23 30 45.5 58.5t41 51t30.5 36.5t15 14q70 -189 128 -345q25 -66 49.5 -131.5t45 -120.5t35.5 -93.5t21 -51.5q7 -17 20 -33t29 -29t34 -21
t37 -8h76zM558 1637q45 -6 66.5 -34.5t27 -64t0 -70.5t-13.5 -54q-11 -26 -28.5 -61.5t-55.5 -67t-104 -51t-175 -14.5q-55 3 -94.5 16t-66 31.5t-42 40t-23 42t-9 37t-0.5 25.5q0 9 3 13.5t6.5 5.5t8.5 0l10 -2q19 -6 39.5 -9.5t37.5 -5t28 -1l11 0.5q13 1 19.5 11.5
t8.5 25t1.5 29.5t-1.5 24q-6 56 -13 118q-6 54 -14 121.5t-19 140.5q3 3 14 12t26.5 20.5t33.5 24.5t33 24t25.5 18.5t12.5 8.5l7 3.5t9.5 2t7.5 -6.5t3 -22q0 -5 0.5 -15.5t1 -23.5l1 -26t0.5 -24q3 -86 3 -157q0 -30 -0.5 -60.5t-2 -57t-4 -46t-6.5 -27.5q39 37 71 59.5
t59 33.5t50.5 13t46.5 -1zM566 1455q3 9 0 20.5t-12.5 20.5t-27 13t-43.5 -2q-54 -12 -99 -38t-86 -63q2 0 14.5 -1t31 -1.5t40 -1t41.5 0.5q42 2 68.5 7.5t41.5 13t21.5 15.5t9.5 16z" />
    <glyph glyph-name="uni0632" unicode="&#x632;" horiz-adv-x="929" arabic-form="isolated" 
d="M698 752q24 -21 47 -61t42 -92.5t34.5 -114.5t25 -126.5t13 -128.5t-0.5 -120q-9 -128 -39 -244.5t-74.5 -213t-101 -169.5t-117.5 -113q-8 -6 -19.5 -14.5t-29 -14t-41.5 -5.5t-58 12q-16 4 -47.5 13.5t-70 21.5t-79.5 25t-76.5 24t-61.5 19t-33 11q-24 17 -32.5 36.5
t-5 38.5t18.5 35t39 26q126 53 236.5 111.5t193 119.5t130.5 122t48 120q-1 12 -12 39t-28.5 62t-39 74t-43.5 74t-41.5 63t-32.5 41q-4 4 -1 10q13 21 36 54t50.5 69t56.5 72.5t53 64.5t41 45t20 14zM630 1351l194 -194l-191 -190l-193 193z" />
    <glyph glyph-name="uniFEB0" unicode="&#x632;" horiz-adv-x="1053" arabic-form="final" 
d="M1074 1q-50 0 -83 4.5t-54.5 13t-36 19.5t-27.5 23q-17 -130 -47 -236.5t-70.5 -190.5t-89.5 -147t-104 -106q-17 -13 -32.5 -24t-34.5 -17t-42 -5.5t-53 11.5q-53 13 -110.5 30t-108.5 33t-88 28.5t-47 17.5q-35 13 -48 35t-7 45.5t30.5 44.5t64.5 32q165 71 274 136
t174.5 123t93 107.5t29.5 90.5q-6 30 -28 76.5t-49.5 96t-57.5 95t-53 75.5q-7 9 -6.5 17t7.5 19q16 24 40 56.5t51 67.5t54 68.5t49.5 59.5t37 40t17.5 11q19 -25 36 -55t37 -60.5t44 -59t57 -50.5t76.5 -35.5t102.5 -12.5zM669 1348l194 -194l-191 -190l-193 193z" />
    <glyph glyph-name="uni0691" unicode="&#x691;" horiz-adv-x="906" arabic-form="isolated" 
d="M683 752q24 -21 47 -61t42 -92.5t34.5 -114.5t25 -126.5t13 -128.5t-0.5 -120q-9 -128 -39 -244.5t-74.5 -213t-101 -169.5t-117.5 -113q-8 -6 -19.5 -14.5t-29 -14t-41.5 -5.5t-58 12q-16 4 -47.5 13.5t-70 21.5t-79.5 25t-76.5 24t-61.5 19t-33 11q-24 17 -32.5 36.5
t-5 38.5t18.5 35t39 26q126 53 236.5 111.5t193 119.5t130.5 122t48 120q-1 12 -12 39t-28.5 62t-39 74t-43.5 74t-41.5 63t-32.5 41q-4 4 -1 10q13 21 36 54t50.5 69t56.5 72.5t53 64.5t41 45t20 14zM670 1278q45 -6 66.5 -34.5t27 -64t0 -70.5t-13.5 -54
q-11 -26 -28.5 -61.5t-55.5 -67t-104 -51t-175 -14.5q-55 3 -94.5 16t-66 31.5t-42 40t-23 42t-9 37t-0.5 25.5q0 9 3 13.5t6.5 5.5t8.5 0l10 -2q19 -6 39.5 -9.5t37.5 -5t28 -1l11 0.5q13 1 19.5 11.5t8.5 25t1.5 29.5t-1.5 24q-6 56 -13 118q-6 54 -14 121.5t-19 140.5
q3 3 14 12t26.5 20.5t33.5 24.5t33 24t25.5 18.5t12.5 8.5l7 3.5t9.5 2t7.5 -6.5t3 -22q0 -5 0.5 -15.5t1 -23.5l1 -26t0.5 -24q3 -86 3 -157q0 -30 -0.5 -60.5t-2 -57t-4 -46t-6.5 -27.5q39 37 71 59.5t59 33.5t50.5 13t46.5 -1zM678 1096q3 9 0 20.5t-12.5 20.5t-27 13
t-43.5 -2q-54 -12 -99 -38t-86 -63q2 0 14.5 -1t31 -1.5t40 -1t41.5 0.5q42 2 68.5 7.5t41.5 13t21.5 15.5t9.5 16z" />
    <glyph glyph-name="uniFB8D" unicode="&#x691;" horiz-adv-x="1027" arabic-form="final" 
d="M1035 1q-50 0 -83 4.5t-54.5 13t-36 19.5t-27.5 23q-17 -130 -47 -236.5t-70.5 -190.5t-89.5 -147t-104 -106q-17 -13 -32.5 -24t-34.5 -17t-42 -5.5t-53 11.5q-53 13 -110.5 30t-108.5 33t-88 28.5t-47 17.5q-35 13 -48 35t-7 45.5t30.5 44.5t64.5 32q165 71 274 136
t174.5 123t93 107.5t29.5 90.5q-6 30 -28 76.5t-49.5 96t-57.5 95t-53 75.5q-7 9 -6.5 17t7.5 19q16 24 40 56.5t51 67.5t54 68.5t49.5 59.5t37 40t17.5 11q19 -25 36 -55t37 -60.5t44 -59t57 -50.5t76.5 -35.5t102.5 -12.5zM823 1323q45 -6 66.5 -34.5t27 -64t0 -70.5
t-13.5 -54q-11 -26 -28.5 -61.5t-55.5 -67t-104 -51t-175 -14.5q-55 3 -94.5 16t-66 31.5t-42 40t-23 42t-9 37t-0.5 25.5q0 9 3 13.5t6.5 5.5t8.5 0l10 -2q19 -6 39.5 -9.5t37.5 -5t28 -1l11 0.5q13 1 19.5 11.5t8.5 25t1.5 29.5t-1.5 24q-6 56 -13 118q-6 54 -14 121.5
t-19 140.5q3 3 14 12t26.5 20.5t33.5 24.5t33 24t25.5 18.5t12.5 8.5l7 3.5t9.5 2t7.5 -6.5t3 -22q0 -5 0.5 -15.5t1 -23.5l1 -26t0.5 -24q3 -86 3 -157q0 -30 -0.5 -60.5t-2 -57t-4 -46t-6.5 -27.5q39 37 71 59.5t59 33.5t50.5 13t46.5 -1zM831 1141q3 9 0 20.5t-12.5 20.5
t-27 13t-43.5 -2q-54 -12 -99 -38t-86 -63q2 0 14.5 -1t31 -1.5t40 -1t41.5 0.5q42 2 68.5 7.5t41.5 13t21.5 15.5t9.5 16z" />
    <glyph glyph-name="uni0698" unicode="&#x698;" horiz-adv-x="923" arabic-form="isolated" 
d="M683 752q24 -21 47 -61t42 -92.5t34.5 -114.5t25 -126.5t13 -128.5t-0.5 -120q-9 -128 -39 -244.5t-74.5 -213t-101 -169.5t-117.5 -113q-8 -6 -19.5 -14.5t-29 -14t-41.5 -5.5t-58 12q-16 4 -47.5 13.5t-70 21.5t-79.5 25t-76.5 24t-61.5 19t-33 11q-24 17 -32.5 36.5
t-5 38.5t18.5 35t39 26q126 53 236.5 111.5t193 119.5t130.5 122t48 120q-1 12 -12 39t-28.5 62t-39 74t-43.5 74t-41.5 63t-32.5 41q-4 4 -1 10q13 21 36 54t50.5 69t56.5 72.5t53 64.5t41 45t20 14zM753 1299l171 -173l-173 -173l-152 149l-152 -149l-171 171l172 175
l152 -151zM598 1216l-159 159l160 163l161 -161z" />
    <glyph glyph-name="uniFB8B" unicode="&#x698;" horiz-adv-x="1072" arabic-form="final" 
d="M1082 1q-50 0 -83 4.5t-54.5 13t-36 19.5t-27.5 23q-17 -130 -47 -236.5t-70.5 -190.5t-89.5 -147t-104 -106q-17 -13 -32.5 -24t-34.5 -17t-42 -5.5t-53 11.5q-53 13 -110.5 30t-108.5 33t-88 28.5t-47 17.5q-35 13 -48 35t-7 45.5t30.5 44.5t64.5 32q165 71 274 136
t174.5 123t93 107.5t29.5 90.5q-6 30 -28 76.5t-49.5 96t-57.5 95t-53 75.5q-7 9 -6.5 17t7.5 19q16 24 40 56.5t51 67.5t54 68.5t49.5 59.5t37 40t17.5 11q19 -25 36 -55t37 -60.5t44 -59t57 -50.5t76.5 -35.5t102.5 -12.5zM821 1298l171 -173l-173 -173l-152 149
l-152 -149l-171 171l172 175l152 -151zM666 1215l-159 159l160 163l161 -161z" />
    <glyph glyph-name="uni0634" unicode="&#x634;" horiz-adv-x="2513" arabic-form="isolated" 
d="M2318 1053q13 -3 41 -47.5t55 -118.5t44.5 -171t10.5 -204q-2 -56 -10 -115t-25 -115.5t-44 -107t-66 -88.5t-91.5 -61t-119.5 -25q-61 -2 -103.5 19.5t-70.5 50.5t-44.5 59t-25.5 47q-16 -45 -43 -82q-23 -32 -62 -59t-97 -30q-29 -2 -51.5 3t-38.5 12q-18 8 -32 19
q0 -7 -2.5 -41.5t-14 -86.5t-33.5 -115.5t-60 -129t-95 -127t-137.5 -109t-188.5 -75t-247 -25.5q-233 0 -392.5 75t-244.5 210t-94 321.5t59 408.5q9 21 21 52.5t26.5 66t32 67.5t37 57t41.5 34.5t47 -0.5q17 -8 22.5 -27.5t2 -51t-15 -77t-28.5 -106.5q-14 -66 -18 -133
t9 -128.5t47 -115t96.5 -93.5t156.5 -63t227 -23q98 0 175.5 16t136.5 42t100 59t67 67.5t37.5 67.5t10.5 60q-14 43 -35 85.5t-45 82.5t-47.5 74.5t-41.5 60.5q-11 16 -19.5 28.5t-12.5 24t-1.5 24t13.5 29.5q17 25 40 56t49 62.5t52 61t48 52.5t37.5 37t21.5 14
q1 0 12.5 -23.5t30.5 -59.5t43.5 -78t53.5 -78.5t60 -62t63 -27.5q39 -3 66 2.5t46.5 25t34 56.5t30.5 97q3 14 10 37t19.5 44.5t32 36t49.5 11.5q20 -2 31.5 -15t16.5 -32t5.5 -41t-0.5 -41q-3 -39 -1.5 -71.5t13 -56.5t37 -38t71.5 -17q40 -2 71.5 2.5t53.5 15t32 28
t6 41.5q-6 28 -27.5 63t-46 68.5t-46.5 62.5t-28 46q46 72 86 127q17 24 34 46t31.5 39.5t25.5 27.5t17 9zM2019 1468l171 -173l-173 -173l-152 149l-152 -149l-171 171l172 175l152 -151zM1864 1385l-159 159l160 163l161 -161z" />
    <glyph glyph-name="uniFEB7" unicode="&#x634;" horiz-adv-x="1369" arabic-form="initial" 
d="M1177 1051q10 -2 26.5 -23t35 -57.5t37.5 -88t32.5 -114t19 -136.5t-0.5 -155q-10 -123 -40 -211.5t-73.5 -146.5t-97 -87t-111.5 -32q-94 -5 -163 36t-121 139q-14 -37 -31.5 -64t-37 -46t-40 -31.5t-39.5 -19.5q-46 -17 -95 -14q-49 2 -89 22q-35 17 -66.5 54.5
t-42.5 106.5q-6 -29 -22 -61t-47 -59t-80.5 -45t-122.5 -18q-29 0 -43.5 10.5t-20 23t-5.5 22.5t0 9v350q1 17 8 31q6 11 19.5 21t39.5 10q54 0 95 5t72 19.5t53.5 41.5t40.5 70q3 8 10 26.5t17 40t23 43.5t28 39t32.5 25.5t36.5 2.5q22 -6 29 -28t6 -51.5t-5 -62.5t-2 -62
q2 -59 25.5 -83.5t65.5 -25.5q32 0 53.5 7t37 24.5t27 47t25.5 75.5q5 16 12.5 46t22 57t37.5 44t58 9q21 -5 30 -27t11.5 -49.5t0.5 -56.5t-3 -47q-2 -44 10 -69.5t32 -39t46 -17.5t52 -4q24 0 49 2.5t45.5 11t35 22.5t17.5 36q2 13 -8 35.5t-26.5 48.5t-36 53.5
t-36.5 51.5t-28.5 41.5t-12.5 23.5q45 73 84 128q16 24 33 46t31.5 39.5t26.5 27t18 7.5zM922 1414l171 -173l-173 -173l-152 149l-152 -149l-171 171l172 175l152 -151zM767 1331l-159 159l160 163l161 -161z" />
    <glyph glyph-name="uniFEB8" unicode="&#x634;" horiz-adv-x="1425" arabic-form="medial" 
d="M1432 -2q-31 0 -65.5 4t-67.5 22t-62.5 53.5t-50.5 97.5q-17 -35 -35 -66.5t-45 -55.5t-68 -38.5t-105 -14.5q-53 0 -91.5 13.5t-67.5 36.5t-50 55t-37 70q-18 -40 -39.5 -73.5t-49.5 -56.5t-65 -35t-87 -10q-55 3 -93 19t-62.5 41t-37.5 57t-17 66q-12 -40 -34 -74
t-53 -58.5t-69.5 -38t-82.5 -12.5q-21 1 -31 12t-14 24q-4 15 -3 34v360q0 12 5 23q5 8 14 15.5t28 7.5q52 0 86 -0.5t58 11.5t43 42.5t40 93.5q5 13 15 43t27 59.5t41.5 49.5t58.5 11q19 -5 27.5 -19.5t11 -37.5t-0.5 -53t-8 -67q-2 -53 12.5 -80.5t33.5 -38.5t36 -11.5
t21 -0.5q25 1 47 2t41.5 16t38 50.5t37.5 103.5q3 14 11.5 39.5t22 49.5t33 39.5t45.5 9.5q27 -6 38.5 -23.5t14 -41t0.5 -49.5t-2 -47q-2 -47 5 -76.5t21.5 -46t36.5 -22t50 -5.5q40 0 65 5.5t42.5 24.5t30.5 55.5t29 98.5q4 15 12 39t20.5 45t31.5 34.5t46 8.5
q23 -4 34.5 -20.5t15.5 -38.5t3 -45.5t-2 -42.5q-3 -44 0 -75t19 -51t49.5 -29.5t93.5 -9.5zM915 1443l171 -173l-173 -173l-152 149l-152 -149l-171 171l172 175l152 -151zM760 1360l-159 159l160 163l161 -161z" />
    <glyph glyph-name="uniFEB6" unicode="&#x634;" horiz-adv-x="2660" arabic-form="final" 
d="M2669 2q-56 -2 -96 10.5t-69 35.5t-49 55.5t-35 69.5q-23 -52 -50 -86t-57.5 -54t-63.5 -28t-68 -8q-47 0 -87.5 16t-72 41t-52.5 56.5t-30 63.5q-4 -17 -16 -46t-36 -57.5t-61.5 -49.5t-91.5 -21q-35 -1 -58 5t-37 13q-16 8 -25 18q0 -8 -3.5 -43.5t-15 -88
t-33.5 -116.5t-60 -129.5t-95 -127t-137.5 -108t-188 -73t-246.5 -22.5q-165 0 -292 38.5t-216.5 108t-142.5 167.5t-70 216t0.5 253t69.5 280q7 21 18 49.5t24 57.5t29 55.5t34 44.5t37.5 25t40.5 -3q18 -7 24.5 -24.5t5 -48t-11.5 -76.5t-25 -109q-14 -62 -22.5 -126.5
t-1 -126t36.5 -116t90 -96t159 -67t244 -28.5q107 0 188 18t139.5 46t97.5 62t62.5 68t32.5 63.5t9 48.5q-7 32 -27.5 74t-45 84.5t-50 81.5t-43.5 66q-12 19 -21.5 32.5t-13.5 25t-1 24t15 29.5q17 25 41 56.5t50 63.5t52.5 62t47.5 53t35.5 35.5t17.5 9.5q9 -10 23 -38
t33 -63.5t42.5 -75t51 -72.5t60 -55.5t69.5 -23.5q29 0 52 4t42 21t34.5 51t30.5 93q3 14 10 39.5t19.5 50t31.5 41t45 13.5q30 -3 43 -21.5t16.5 -43t1.5 -50.5t-2 -44q0 -30 3 -57.5t16 -49t39.5 -34.5t73.5 -13q43 0 67 11.5t38 33.5t23 55t22 77q4 15 11 39t19.5 46.5
t30.5 38t44 12.5q27 -3 40 -20t17 -41t2.5 -51.5t-2.5 -50.5q-2 -48 8.5 -77.5t32 -45t54 -21t75.5 -5.5v-476zM2124 1417l171 -173l-173 -173l-152 149l-152 -149l-171 171l172 175l152 -151zM1969 1334l-159 159l160 163l161 -161z" />
    <glyph glyph-name="uni0636" unicode="&#x636;" horiz-adv-x="2664" arabic-form="isolated" 
d="M1904 430q88 -1 167.5 14.5t141.5 42t102 62t48 76.5q6 29 0.5 54t-22 43.5t-44 28.5t-65.5 9q-58 -1 -117 -21t-115.5 -50t-107 -66t-91 -69t-68.5 -59.5t-38 -37.5q32 -12 68.5 -17.5t68.5 -7.5q36 -3 72 -2zM2293 1067q82 -2 143.5 -28.5t102.5 -74.5t60.5 -115.5
t17.5 -149.5q-2 -56 -18 -130.5t-52.5 -155t-96.5 -160.5t-151 -146q-56 -41 -120 -70t-131 -47.5t-135 -27t-133 -8.5q-41 0 -70 3t-52.5 9t-45.5 14.5t-49 19.5q0 -6 -4 -36t-18 -75t-40 -100.5t-68.5 -113t-104.5 -111.5t-147.5 -96t-197.5 -67.5t-255 -25.5h-2
q-56 0 -123 10t-135.5 33t-134.5 61.5t-121 95.5t-95 134.5t-56 179t-4 229t61 284.5q6 20 16.5 49.5t24 62t30 63.5t35.5 54t39.5 34.5t42.5 4.5q25 -10 32.5 -34t4 -59t-15 -80t-23.5 -97q-13 -58 -19.5 -121.5t2.5 -124.5t38.5 -116t88.5 -97.5t152.5 -68t230.5 -26.5
q146 1 249.5 30.5t169.5 77t96.5 108t30.5 124.5l-171 278q-15 18 -23 31t-9 25t4 24.5t16 29.5q24 37 59.5 84.5t70.5 90t64 71.5t40 29h6q11 -1 24.5 -30t32.5 -72t45.5 -93t62.5 -92q33 43 75 97.5t93 111t111.5 110.5t130.5 96t149 66.5t169 23.5zM2084 1638l194 -194
l-191 -190l-193 193z" />
    <glyph glyph-name="uniFEBF" unicode="&#x636;" horiz-adv-x="1557" arabic-form="initial" 
d="M580 478q49 -13 111.5 -19.5t129 -5t132.5 11.5t123 31t100.5 53.5t64.5 77.5q10 23 11.5 49.5t-11.5 49.5t-43.5 38.5t-85.5 15.5q-78 0 -155 -33.5t-147 -81.5t-129 -99.5t-101 -87.5zM1143 1083q89 5 151 -14.5t103 -55t63.5 -84.5t30.5 -103.5t5.5 -111t-11.5 -108
t-21.5 -93.5t-23.5 -67q-27 -63 -68 -122.5t-93.5 -112.5t-115.5 -97.5t-133.5 -76.5t-147.5 -50t-157 -18q-68 -1 -134.5 5t-127.5 26t-114 57.5t-93 99.5q-12 -45 -33 -74.5t-52.5 -47.5t-73.5 -26t-96 -9q-16 1 -28 4t-20 11.5t-13 24t-7 41.5l-3 313q0 20 2 35.5
t9.5 25.5t21.5 15.5t37 6.5q18 0 44 3t53 17t52.5 43.5t43.5 84.5q7 18 18 52.5t27.5 66.5t39.5 53t53 14q28 -7 36 -34t6.5 -60.5t-7 -67t-5.5 -52.5q0 -35 3.5 -52.5t9 -24.5t11 -8t10.5 -2q26 32 68.5 86t97.5 116.5t121.5 126.5t141 117t155 88t164.5 39zM964 1623
l194 -194l-191 -190l-193 193z" />
    <glyph glyph-name="uniFEC0" unicode="&#x636;" horiz-adv-x="1541" arabic-form="medial" 
d="M1546 477v-477h-122q-42 0 -78 13t-65 32.5t-49.5 41t-30.5 39.5q-47 -35 -99 -64t-109.5 -50.5t-119.5 -33t-128 -10.5q-108 1 -184 12.5t-130.5 34.5t-92.5 57.5t-69 81.5q-22 -44 -55 -78q-29 -29 -72.5 -53t-103.5 -23h-38q-16 1 -28 9q-11 6 -20 19.5t-9 36.5
l-5 329q0 41 11.5 61t50.5 22q24 0 51 2t54.5 15.5t53.5 43.5t49 86q4 9 9.5 27.5t14 41t19.5 45.5t25.5 41t31.5 27t38 4q27 -6 35 -33t7 -61t-6.5 -67.5t-5.5 -52.5q0 -35 5 -52.5t11 -25.5t13 -9.5t12 -3.5q26 33 67.5 88.5t96 119.5t120 130t140 119.5t155.5 87
t166 33.5t146.5 -19.5t102.5 -52.5t64 -76.5t33.5 -93t9.5 -101t-8.5 -100t-19 -90.5t-22.5 -73h78zM600 476q36 -11 93 -17.5t123 -6.5t135.5 9t130.5 29t108.5 52.5t69.5 81.5q11 24 12 55t-17 55.5t-58 37.5t-110 3q-76 -11 -149 -48t-137 -83t-115.5 -92t-85.5 -76z
M995 1615l194 -194l-191 -190l-193 193z" />
    <glyph glyph-name="uniFEBE" unicode="&#x636;" horiz-adv-x="2685" arabic-form="final" 
d="M2688 477v-477q-85 -1 -138 4.5t-88 20t-59.5 40t-52.5 65.5q-93 -68 -195 -103t-202 -45t-191.5 2.5t-162.5 39.5q0 -6 -3 -36t-15.5 -75t-36 -101t-64.5 -113t-101 -111.5t-145 -96.5t-197 -67.5t-257 -25.5q-56 0 -123 9.5t-136 33t-135 61.5t-121.5 95t-95.5 134.5
t-56 179t-4 229.5t61 285q6 21 17 51.5t24.5 62.5t30 63t35 53.5t38.5 33.5t41 4q26 -10 33.5 -34t4 -59t-15 -80t-23.5 -97q-13 -58 -20 -121.5t2 -124.5t38.5 -116t88.5 -97.5t153 -68t231 -26.5q146 1 249.5 30.5t169.5 77t96.5 108.5t30.5 125l-172 277q-15 18 -23 31
t-9 25t4 24.5t16 29.5q16 25 38.5 55t46.5 61t49 60t46 51t37 35t24 13q11 -1 24.5 -30t32.5 -72t45.5 -93t62.5 -92q34 44 78.5 100.5t99 115.5t118.5 114t137.5 96t155.5 62.5t172 13.5q79 -8 135 -39t91.5 -79.5t51 -111.5t13.5 -135q-2 -49 -14 -112t-40 -133h74z
M1748 480q66 -18 138.5 -23.5t143.5 -0.5t137 20.5t118 40.5t86.5 57.5t43.5 72.5q8 35 1 61t-25.5 42.5t-45.5 24t-60 7.5q-57 -1 -116 -20t-115.5 -49t-107.5 -66t-91.5 -69.5t-68.5 -60t-38 -37.5zM2130 1647l194 -194l-191 -190l-193 193z" />
    <glyph glyph-name="uni0638" unicode="&#x638;" horiz-adv-x="1619" arabic-form="isolated" 
d="M1184 1059q84 17 147.5 7.5t109 -39t74.5 -74.5t44 -98.5t18.5 -112t-2 -114.5t-18.5 -105.5t-31 -86.5q-14 -33 -38.5 -79.5t-64.5 -96.5t-96 -98.5t-132.5 -87.5t-174 -63.5t-220.5 -24.5h-43h-63t-99 1q-71 0 -123.5 5.5t-93 16t-72 25t-60.5 32.5q-78 47 -124.5 100
t-71 105t-31.5 100t-5 86q1 31 15 36.5t53 -4.5q31 -8 77 -13.5t117 -10.5q16 -1 42 -1t50 1q28 1 59 2q10 10 16 34t8.5 56.5t3.5 71t-0.5 79t-3.5 79.5t-4 73q-7 106 -14.5 190t-15 152.5t-15.5 126t-17 110.5t-18.5 106t-20.5 113q6 8 36 31t70.5 53t87 63.5t86 61.5
t66 47t29.5 21q22 11 33 6.5t16 -17t5.5 -30t1.5 -32.5q0 -1 1 -44t2.5 -113.5t3 -161.5t2 -188t-1 -192.5t-5 -175.5t-9.5 -137.5t-16 -77.5q53 47 105.5 94.5t105.5 87t107.5 68t111.5 37.5zM1238 499q33 13 55.5 34.5t34.5 46.5t12.5 51.5t-11.5 48.5t-35.5 38t-60.5 20
q-32 3 -75 -9.5t-92 -36t-100 -54.5t-97.5 -63.5t-86 -63t-64.5 -53.5q26 -3 47.5 -5t45 -2.5t53 -0.5t71.5 1q56 1 101 5t81 10t65.5 14t55.5 19zM1219 1634l194 -194l-191 -190l-193 193z" />
    <glyph glyph-name="uniFEC7" unicode="&#x638;" horiz-adv-x="1353" arabic-form="initial" 
d="M910 1072q116 19 193 -6.5t122.5 -79t63.5 -126t16.5 -148t-18 -146t-39.5 -119.5q-12 -32 -36 -77.5t-63.5 -95.5t-97.5 -99.5t-138.5 -89t-186 -64t-239.5 -24.5q-121 0 -221 1q-43 0 -85.5 0.5t-79.5 1t-64 0.5h-38q-45 0 -67.5 8.5t-31.5 24.5t-9 39v50v269
q0 19 9 35t24 27t34 17t39 6h153q10 10 15.5 34t8.5 57t3.5 72t-0.5 79.5t-3.5 79.5t-4.5 73q-7 106 -14.5 190t-15 152.5t-16 126t-17 110.5t-18.5 106t-21 113q5 6 23 20.5t45 34.5t59.5 44t66 48.5t65.5 47t57.5 40.5t42 29.5t18.5 12.5q21 11 32.5 7t16.5 -16.5
t5.5 -29.5t1.5 -32q0 -1 1 -44t3 -113.5t3 -161.5t1.5 -188t-0.5 -192.5t-4.5 -175.5t-10 -137.5t-16.5 -77.5q53 47 105.5 93t105.5 85t108 68t114 41zM975 516q31 14 51 36.5t29 47.5t7 50.5t-15 46.5t-36.5 35t-58.5 16q-32 2 -75.5 -11.5t-92 -36.5t-98.5 -53.5
t-96 -62.5t-85 -62t-64 -53q27 -3 51.5 -5t53.5 -2.5t66 -0.5t88 2q97 3 164 18t111 35zM945 1627l194 -194l-191 -190l-193 193z" />
    <glyph glyph-name="uniFEC8" unicode="&#x638;" horiz-adv-x="1364" arabic-form="medial" 
d="M1368 478l3 -478h-62.5h-34h-21.5h-25q-59 0 -120 10.5t-113.5 27t-92 36.5t-56.5 39q-30 -29 -77 -51t-103 -36t-118 -21t-123 -6h-191h-74.5t-69.5 0.5t-56.5 0.5h-35.5q-37 0 -48.5 15.5t-11.5 53.5v342q0 39 15.5 53t44.5 14h41.5t54.5 1q32 0 66 1q14 15 20 59.5
t6.5 102t-2 119.5t-5.5 112q-7 106 -14.5 189.5t-15 152.5t-16 126t-17 110.5t-18.5 106.5t-21 113q6 7 36 30t70.5 53.5t87 64t86 61.5t66.5 47t30 21q22 11 33 7t16.5 -16.5t6 -29.5t1.5 -32q0 -1 1 -44t3 -114t3 -162t1.5 -187.5t-0.5 -192.5t-4.5 -176t-10 -137
t-16.5 -77q44 48 95.5 95t106.5 86t112.5 66.5t114.5 36.5q81 13 144 2.5t109.5 -38.5t77.5 -69.5t49 -91t22.5 -104t-1.5 -107t-22.5 -100.5t-41.5 -85h115zM974 515q37 16 59.5 40.5t32 52t5 55t-21 48.5t-45.5 32.5t-70 8.5q-33 -3 -75 -18.5t-88.5 -39.5t-94 -54
t-90 -60t-78.5 -58t-58 -49q48 -6 100.5 -7.5t115.5 0.5q100 4 176 15t132 34zM965 1654l194 -194l-191 -190l-193 193z" />
    <glyph glyph-name="uniFEC6" unicode="&#x638;" horiz-adv-x="1676" arabic-form="final" 
d="M1681 476v-476q-41 0 -67.5 -0.5t-46 -1t-37 -0.5t-40.5 2q-41 0 -90 10t-96.5 26t-87.5 36.5t-62 41.5q-15 -17 -49 -37t-80 -37t-101 -28.5t-112 -11.5q-3 0 -19 -1q-14 -1 -41 -1.5t-77 0.5q-133 2 -233.5 23t-158.5 57q-72 44 -118.5 97.5t-73 107t-35 102.5t-3.5 84
q2 15 5.5 24t11 12.5t19.5 2t32 -6.5q15 -3 40 -6.5t55.5 -6.5t65.5 -5.5t71 -3.5q16 -2 36 -2.5t37 0.5q20 0 40 2q10 10 15.5 34t8.5 56.5t3.5 71t-0.5 79t-3 79.5t-4 73q-7 106 -14.5 190t-15 152.5t-16 126t-17 110.5t-18.5 106t-21 113q6 7 36 30.5t70.5 53.5t87 63.5
t86 61.5t66.5 47t30 21q22 11 33 7t16.5 -16.5t6 -29.5t1.5 -32q0 -1 1 -44t3 -113.5t3 -161.5t1.5 -188t-0.5 -192.5t-4.5 -175.5t-10 -137.5t-16.5 -77.5q53 48 105.5 95t106 86t108 67t111.5 37q111 18 188 -6.5t125 -75t69.5 -120t22 -141.5t-17.5 -139t-50 -113h119z
M759 474q47 -6 103.5 -6.5t112.5 -0.5q100 0 176.5 14.5t125.5 31.5q34 12 57.5 34.5t35 49t11 54t-14 50.5t-40 37.5t-66.5 14.5q-32 0 -74.5 -14t-90 -37.5t-96.5 -53t-94 -61t-83 -61t-63 -52.5zM1298 1639l194 -194l-191 -190l-193 193z" />
    <glyph glyph-name="uni063A" unicode="&#x63a;" horiz-adv-x="1407" arabic-form="isolated" 
d="M1280 -221q72 13 105 -0.5t38 -42.5t-14 -68.5t-52 -79.5q-20 -24 -49 -53.5t-70.5 -59.5t-97 -58t-126.5 -48t-159.5 -28.5t-196.5 -0.5q-135 9 -238.5 45.5t-179.5 93t-126 128.5t-78 151.5t-36.5 162.5t0.5 161q9 86 43.5 168t82.5 153t103.5 127.5t106.5 92.5
q-51 36 -80 81.5t-43 96.5t-16 104t2 103q29 75 79.5 144t113.5 123t134 88t143 40q42 3 90 -4t97 -34t96.5 -80t88.5 -141q4 -7 9 -22t7 -32.5t-1.5 -32.5t-17 -21t-39.5 1t-69 35q-9 4 -29.5 13.5t-50.5 18.5t-68 16t-82 7q-55 0 -102 -20t-81 -47t-52.5 -56t-17.5 -47
t23 -44t66.5 -51t112 -45t159.5 -25q23 -2 57 0t73.5 5t80.5 7t79 8q11 1 14.5 -3t3 -11.5t-3.5 -17t-5 -19.5q-1 -3 -3.5 -16.5t-7 -33.5t-9.5 -44.5t-10 -49.5q-12 -59 -28 -131q-7 -2 -40.5 -4.5t-84 -8t-114 -16t-130 -27.5t-131 -42t-119 -60.5t-93 -82.5t-52.5 -108
q-16 -69 5.5 -131.5t76 -113t139 -86.5t194.5 -51q45 -6 98.5 -8t110 -1.5t112.5 4t105.5 8t89 10t64.5 11.5zM696 1963l194 -194l-191 -190l-193 193z" />
    <glyph glyph-name="uniFECF" unicode="&#x63a;" horiz-adv-x="1009" arabic-form="initial" 
d="M952 564q10 4 13.5 -1.5t2.5 -13.5q0 -2 -1 -6t-3.5 -16t-7.5 -33.5t-12 -57.5l-59 -290q-42 -19 -85.5 -33t-79.5 -23q-42 -11 -83 -19q-98 -22 -182 -36.5t-159.5 -23t-144.5 -11.5t-137 -1l-30 2q-27 3 -39.5 16t-17 51t-4.5 108.5t-1 187.5q0 36 3.5 58.5t12.5 34.5
t23 16t34 4h114q-10 15 -23 43t-24 63t-17 73.5t-1 76.5q4 36 25 80.5t55.5 90.5t80 90t100 78t114.5 55t124 21q43 0 90 -11.5t91.5 -39.5t84.5 -75t70 -117q21 -42 22.5 -70.5t-12 -42t-40 -10.5t-60.5 24q-10 6 -31 15.5t-51 19t-66 16.5t-76 8q-22 0 -67 -6.5t-93.5 -23
t-90 -44t-57.5 -68.5q4 -31 27.5 -60.5t60.5 -56t84.5 -47.5t101 -34t110 -17t110.5 5q85 14 131.5 27.5t69.5 23.5zM526 1720l194 -194l-191 -190l-193 193z" />
    <glyph glyph-name="uniFED0" unicode="&#x63a;" horiz-adv-x="1058" arabic-form="medial" 
d="M863 510q14 -14 46.5 -20.5t67.5 -9.5q40 -4 88 -3l-2 -477h-180q-21 0 -51.5 6t-62.5 16.5t-61 23t-47 26.5q-23 14 -43.5 30.5t-40.5 36.5q-42 -30 -84 -55.5t-92.5 -44t-114 -29t-147.5 -10.5h-102h-3q-29 0 -39.5 21t-12.5 63q-1 24 -1.5 66t-1 87t-0.5 86.5v64.5
q0 52 11 70.5t44 19.5q-1 0 12.5 -0.5t35 0t49 1t54 4t50 9t37.5 14.5q-11 5 -26 14q-13 7 -32.5 18t-46.5 27q-37 22 -57 40.5t-28.5 36.5t-8.5 36t3 38l20 142q4 27 7.5 52.5t6.5 45.5t5 33l2 13q39 33 88.5 57t105 39t115 22.5t117.5 7.5q72 0 144 -9t133.5 -28t108 -47
t67.5 -66q17 -37 24 -89.5t-5.5 -114t-48 -129t-103.5 -135.5zM607 620q22 14 48.5 35t48 43.5t32.5 42.5t2 32q-15 18 -54.5 30.5t-92 15.5t-112.5 -6.5t-117 -34.5q6 -5 19.5 -14.5t32 -21.5t40 -26t42.5 -27q50 -32 111 -69zM545 1762l194 -194l-191 -190l-193 193z" />
    <glyph glyph-name="uniFECE" unicode="&#x63a;" horiz-adv-x="1392" arabic-form="final" 
d="M1299 -412q47 11 84.5 8.5t56 -21t14 -54t-41.5 -89.5q-6 -9 -26 -35t-55.5 -59.5t-88.5 -69t-125.5 -64t-166 -45t-209.5 -11.5q-200 9 -336.5 67t-220.5 152t-120.5 217t-36.5 261q0 72 25 156t70 165t106.5 153t135.5 120q-14 10 -35.5 27.5t-44.5 36t-43.5 36
t-32.5 27.5q-3 3 -1.5 21t6 46t11.5 63t15 71q18 84 44 190q1 3 9.5 14t23.5 25t35.5 29.5t44.5 26.5q38 18 70.5 33t68.5 26t80 19t106 11q70 5 142 -1.5t134.5 -24t109 -45t64.5 -65.5q7 -13 4 -59.5t-12 -109.5t-22.5 -134t-27.5 -133q-5 -14 -17 -28t-25.5 -26.5
t-26.5 -22t-20 -15.5h115h291v-477h-376q-64 4 -125.5 30t-118.5 62.5t-108.5 78.5t-95.5 78q-51 -13 -107 -44t-102 -77t-74.5 -106t-23.5 -131q3 -36 19.5 -82t59 -91t117.5 -84t194 -61q19 -5 57 -8.5t88.5 -6t110 -2t121 3.5t121.5 10t112 18zM930 765
q-16 25 -56.5 39.5t-99 14.5t-132.5 -16t-156 -52q11 -11 36 -31t53.5 -42.5t55 -43.5t41.5 -33q70 25 123 48t86.5 43t46 38.5t2.5 34.5zM701 1731l194 -194l-191 -190l-193 193z" />
    <glyph glyph-name="uniFB90" unicode="&#x6a9;" horiz-adv-x="1047" arabic-form="initial" 
d="M76 1406q270 114 486 204q92 38 180.5 75t159.5 65.5t116 46t50 17.5q1 -1 -2 -21t-9 -52.5t-14 -73.5t-17 -84q-20 -100 -47 -227l-524 -230q24 -32 55.5 -72t65 -87t65.5 -100t57.5 -110.5t40.5 -118.5t15 -124q-1 -94 -26.5 -168.5t-67 -131.5t-95 -97t-111 -66
t-114 -38t-103.5 -13h-236q-16 0 -33.5 4t-32 15t-24 31.5t-10.5 53.5q-1 30 -1 63.5v69t0.5 70.5t0.5 67q0 22 5.5 40.5t17.5 32.5t30.5 22t45.5 8h212q77 0 125.5 8t76.5 18q33 11 48 26q-11 13 -34.5 41t-54.5 64.5t-66.5 79.5t-71.5 86t-70 83.5t-61 73t-45 53.5t-22 26
q-2 2 -1 19t3 43.5t6 59.5t8 67q10 80 23 181z" />
    <glyph glyph-name="uniFB91" unicode="&#x6a9;" horiz-adv-x="1098" arabic-form="medial" 
d="M1063 1816q2 -1 -3.5 -33t-14.5 -80t-20 -105t-21.5 -107.5t-18.5 -88t-10 -45.5l-539 -233q74 -101 145 -198q30 -41 63 -85.5t65.5 -88t63.5 -84t57 -73.5t51 -55.5t56 -36.5t70.5 -20t95.5 -6l3 -477h-58q-69 0 -124 4t-103 20.5t-91.5 51t-89.5 94.5
q-28 -33 -71.5 -63.5t-94.5 -54.5t-106 -38t-105 -14h-93q-44 0 -75.5 -0.5t-52.5 -0.5h-41q-14 0 -27 5t-22.5 18.5t-15 38t-4.5 63.5q0 13 -0.5 46t-1 72t-0.5 75.5t2 56.5q3 37 9.5 58t15.5 31t19 12t21 2h193q82 0 129 10t71 23q28 15 36 34q-29 35 -67.5 83.5
t-79.5 101t-81.5 105t-74 95.5t-56.5 72.5t-28 36.5q-4 4 -3 32.5t4.5 69.5t8.5 87t10 86t8.5 67t3.5 29q271 113 487 203q92 38 180.5 75t159 65.5t115 46t49.5 17.5h1z" />
    <glyph glyph-name="uni0641" unicode="&#x641;" horiz-adv-x="1985" arabic-form="isolated" 
d="M1491 872q31 0 59.5 4t51 9t37.5 10.5t20 8.5l7 4q-3 11 -13.5 37t-32.5 53t-57 47.5t-87 20.5q-49 0 -83.5 -10t-56 -25.5t-31.5 -33.5t-10 -34q0 -25 19.5 -42.5t49 -28t63.5 -15.5t64 -5zM1504 1391q76 0 136 -28t106.5 -74.5t80.5 -107t56.5 -125t35.5 -129
t18 -118.5q17 -171 -7.5 -300t-78.5 -223t-132 -157t-168 -103t-186.5 -60.5t-187.5 -29.5t-170.5 -10t-136.5 -2q-90 -2 -182 6.5t-178.5 30t-164 57.5t-138.5 89.5t-102.5 125.5t-57 166.5t0 212t67.5 261.5q17 57 44 78t48 13q13 -6 23.5 -12.5t16 -18.5t5 -32.5
t-10.5 -54.5q-22 -130 9 -214.5t116 -134.5t223.5 -70.5t331.5 -20.5q90 0 179.5 7t171.5 19t154.5 29t127.5 36.5t90 40.5t43 43q6 -3 -18 -6.5t-61 -7t-79 -5.5t-72 -2h-2q-71 0 -123.5 12.5t-89.5 35t-60.5 52t-37 63.5t-18.5 70.5t-5 72.5q0 100 28 194.5t79 168
t121.5 118t154.5 44.5zM1461 1935l194 -194l-191 -190l-193 193z" />
    <glyph glyph-name="uniFED3" unicode="&#x641;" horiz-adv-x="914" arabic-form="initial" 
d="M596 911q-3 11 -14 37t-32.5 53t-56.5 47.5t-86 20.5q-49 0 -83.5 -10t-56.5 -25.5t-32 -33.5t-10 -34q0 -25 19.5 -42.5t49 -28t64 -15.5t64.5 -5q31 0 59 4t50.5 9t37.5 10.5t21 8.5zM867 812q13 -152 0.5 -267.5t-43 -201t-76 -144.5t-99.5 -97t-113.5 -58.5
t-117.5 -30.5t-112 -11.5t-97 -1.5h-201q-46 0 -68.5 14.5t-22.5 54.5v291q0 43 7 67t20.5 35t33 13t45.5 2h317q22 0 64.5 5.5t86.5 18t80 33t45 50.5q-36 -7 -75 -11q-33 -4 -74 -7t-81 -3q-97 0 -161 23.5t-102.5 65t-54.5 97t-16 120.5q0 100 28 194.5t78.5 168t121 118
t155.5 44.5q76 0 136 -28t106.5 -74.5t80.5 -107t57 -125t35.5 -129t16.5 -118.5zM389 1912l194 -194l-191 -190l-193 193z" />
    <glyph glyph-name="uniFED4" unicode="&#x641;" horiz-adv-x="844" arabic-form="medial" 
d="M848 477v-477h-137q-48 0 -97.5 11t-91.5 24q-23 7 -46.5 16t-46.5 19q-34 -20 -74 -32q-18 -7 -45.5 -13.5t-58 -12t-62.5 -8.5t-60 -3l-132 -1q-12 0 -19.5 2.5t-11.5 9.5t-5.5 20t-1.5 33v331q1 31 3 48t6.5 24.5t11.5 8t17 0.5h12h119q-27 33 -46 77q-17 38 -30 93
t-8 127q7 113 48 196.5t98.5 139t125 82.5t127.5 27q84 0 152 -38.5t117 -102t75.5 -146.5t27.5 -171q0 -68 -12 -120t-26 -89q-17 -43 -38 -75h109zM436 602q18 4 40.5 16t44.5 28.5t40 35t27 36.5q-5 18 -19.5 40.5t-35.5 42.5t-46.5 33.5t-51.5 14.5q-26 0 -52 -13
t-48 -33t-38 -43t-21 -42q31 -48 73 -75t87 -41zM424 1823l194 -194l-191 -190l-193 193z" />
    <glyph glyph-name="uniFED2" unicode="&#x641;" horiz-adv-x="1978" arabic-form="final" 
d="M1567 601q18 4 40.5 16t44 28.5t40 35t27.5 36.5q-5 18 -20 40.5t-36 42.5t-46 33.5t-51 13.5h-2q-26 0 -52 -13t-48 -32.5t-37 -42.5t-20 -42q31 -48 73 -75t87 -41zM1573 1233q56 0 105 -18.5t90.5 -51.5t74 -78t55 -97.5t35 -110.5t12.5 -117q0 -68 -12 -120.5
t-26 -88.5q-17 -42 -38 -74h112l2 -477h-141q-78 0 -146 21t-136 48q-36 -23 -110 -45t-171 -38.5t-210 -26.5t-228 -10q-121 0 -239.5 20t-219.5 65t-177.5 117.5t-115 177.5t-32.5 244.5t72 319.5q14 56 39.5 80t50.5 18q13 -3 23 -11t15 -22t4.5 -35t-8.5 -49
q-21 -119 5.5 -202.5t102.5 -136.5t203 -77.5t308 -24.5q72 -1 142 3q30 2 62 5t64 8t62.5 11.5t56.5 15.5q-27 33 -46 77q-17 38 -30 93t-8 127q7 113 47.5 199t98.5 144t125 87.5t127 29.5zM1553 1855l194 -194l-191 -190l-193 193z" />
    <glyph glyph-name="uniFB6A" unicode="&#x6a4;" horiz-adv-x="1982" arabic-form="isolated" 
d="M1491 872q31 0 59.5 4t51 9t37.5 10.5t20 8.5l7 4q-3 11 -13.5 37t-32.5 53t-57 47.5t-87 20.5q-49 0 -83.5 -10t-56 -25.5t-31.5 -33.5t-10 -34q0 -25 19.5 -42.5t49 -28t63.5 -15.5t64 -5zM1504 1391q76 0 136 -28t106.5 -74.5t80.5 -107t56.5 -125t35.5 -129
t18 -118.5q17 -171 -7.5 -300t-78.5 -223t-132 -157t-168 -103t-186.5 -60.5t-187.5 -29.5t-170.5 -10t-136.5 -2q-90 -2 -182 6.5t-178.5 30t-164 57.5t-138.5 89.5t-102.5 125.5t-57 166.5t0 212t67.5 261.5q17 57 44 78t48 13q13 -6 23.5 -12.5t16 -18.5t5 -32.5
t-10.5 -54.5q-22 -130 9 -214.5t116 -134.5t223.5 -70.5t331.5 -20.5q90 0 179.5 7t171.5 19t154.5 29t127.5 36.5t90 40.5t43 43q6 -3 -18 -6.5t-61 -7t-79 -5.5t-72 -2h-2q-71 0 -123.5 12.5t-89.5 35t-60.5 52t-37 63.5t-18.5 70.5t-5 72.5q0 100 28 194.5t79 168
t121.5 118t154.5 44.5zM1644 1896l171 -173l-173 -173l-152 149l-152 -149l-171 171l172 175l152 -151zM1489 1813l-159 159l160 163l161 -161z" />
    <glyph glyph-name="uniFB6C" unicode="&#x6a4;" horiz-adv-x="909" arabic-form="initial" 
d="M596 911q-3 11 -14 37t-32.5 53t-56.5 47.5t-86 20.5q-49 0 -83.5 -10t-56.5 -25.5t-32 -33.5t-10 -34q0 -25 19.5 -42.5t49 -28t64 -15.5t64.5 -5q31 0 59 4t50.5 9t37.5 10.5t21 8.5zM867 812q13 -152 0.5 -267.5t-43 -201t-76 -144.5t-99.5 -97t-113.5 -58.5
t-117.5 -30.5t-112 -11.5t-97 -1.5h-201q-46 0 -68.5 14.5t-22.5 54.5v291q0 43 7 67t20.5 35t33 13t45.5 2h317q22 0 64.5 5.5t86.5 18t80 33t45 50.5q-36 -7 -75 -11q-33 -4 -74 -7t-81 -3q-97 0 -161 23.5t-102.5 65t-54.5 97t-16 120.5q0 100 28 194.5t78.5 168t121 118
t155.5 44.5q76 0 136 -28t106.5 -74.5t80.5 -107t57 -125t35.5 -129t16.5 -118.5zM583 1904l171 -173l-173 -173l-152 149l-152 -149l-171 171l172 175l152 -151zM428 1821l-159 159l160 163l161 -161z" />
    <glyph glyph-name="uniFB6D" unicode="&#x6a4;" horiz-adv-x="840" arabic-form="medial" 
d="M848 477v-477h-137q-48 0 -97.5 11t-91.5 24q-23 7 -46.5 16t-46.5 19q-34 -20 -74 -32q-18 -7 -45.5 -13.5t-58 -12t-62.5 -8.5t-60 -3l-132 -1q-12 0 -19.5 2.5t-11.5 9.5t-5.5 20t-1.5 33v331q1 31 3 48t6.5 24.5t11.5 8t17 0.5h12h119q-27 33 -46 77q-17 38 -30 93
t-8 127q7 113 48 196.5t98.5 139t125 82.5t127.5 27q84 0 152 -38.5t117 -102t75.5 -146.5t27.5 -171q0 -68 -12 -120t-26 -89q-17 -43 -38 -75h109zM436 602q18 4 40.5 16t44.5 28.5t40 35t27 36.5q-5 18 -19.5 40.5t-35.5 42.5t-46.5 33.5t-51.5 14.5q-26 0 -52 -13
t-48 -33t-38 -43t-21 -42q31 -48 73 -75t87 -41zM584 1775l171 -173l-173 -173l-152 149l-152 -149l-171 171l172 175l152 -151zM429 1692l-159 159l160 163l161 -161z" />
    <glyph glyph-name="uniFB6B" unicode="&#x6a4;" horiz-adv-x="1974" arabic-form="final" 
d="M1567 601q18 4 40.5 16t44 28.5t40 35t27.5 36.5q-5 18 -20 40.5t-36 42.5t-46 33.5t-51 13.5h-2q-26 0 -52 -13t-48 -32.5t-37 -42.5t-20 -42q31 -48 73 -75t87 -41zM1573 1233q56 0 105 -18.5t90.5 -51.5t74 -78t55 -97.5t35 -110.5t12.5 -117q0 -68 -12 -120.5
t-26 -88.5q-17 -42 -38 -74h112l2 -477h-141q-78 0 -146 21t-136 48q-36 -23 -110 -45t-171 -38.5t-210 -26.5t-228 -10q-121 0 -239.5 20t-219.5 65t-177.5 117.5t-115 177.5t-32.5 244.5t72 319.5q14 56 39.5 80t50.5 18q13 -3 23 -11t15 -22t4.5 -35t-8.5 -49
q-21 -119 5.5 -202.5t102.5 -136.5t203 -77.5t308 -24.5q72 -1 142 3q30 2 62 5t64 8t62.5 11.5t56.5 15.5q-27 33 -46 77q-17 38 -30 93t-8 127q7 113 47.5 199t98.5 144t125 87.5t127 29.5zM1721 1804l171 -173l-173 -173l-152 149l-152 -149l-171 171l172 175l152 -151z
M1566 1721l-159 159l160 163l161 -161z" />
    <glyph glyph-name="uniFED7" unicode="&#x642;" horiz-adv-x="914" arabic-form="initial" 
d="M596 911q-3 11 -14 37t-32.5 53t-56.5 47.5t-86 20.5q-49 0 -83.5 -10t-56.5 -25.5t-32 -33.5t-10 -34q0 -25 19.5 -42.5t49 -28t64 -15.5t64.5 -5q31 0 59 4t50.5 9t37.5 10.5t21 8.5zM867 812q13 -152 0.5 -267.5t-43 -201t-76 -144.5t-99.5 -97t-113.5 -58.5
t-117.5 -30.5t-112 -11.5t-97 -1.5h-201q-46 0 -68.5 14.5t-22.5 54.5v291q0 43 7 67t20.5 35t33 13t45.5 2h317q22 0 64.5 5.5t86.5 18t80 33t45 50.5q-36 -7 -75 -11q-33 -4 -74 -7t-81 -3q-97 0 -161 23.5t-102.5 65t-54.5 97t-16 120.5q0 100 28 194.5t78.5 168t121 118
t155.5 44.5q76 0 136 -28t106.5 -74.5t80.5 -107t57 -125t35.5 -129t16.5 -118.5zM771 1728l-179 -180l-158 157l-159 -157l-180 181l179 181l158 -157l159 157z" />
    <glyph glyph-name="uniFED8" unicode="&#x642;" horiz-adv-x="844" arabic-form="medial" 
d="M848 477v-477h-137q-48 0 -97.5 11t-91.5 24q-23 7 -46.5 16t-46.5 19q-34 -20 -74 -32q-18 -7 -45.5 -13.5t-58 -12t-62.5 -8.5t-60 -3l-132 -1q-12 0 -19.5 2.5t-11.5 9.5t-5.5 20t-1.5 33v331q1 31 3 48t6.5 24.5t11.5 8t17 0.5h12h119q-27 33 -46 77q-17 38 -30 93
t-8 127q7 113 48 196.5t98.5 139t125 82.5t127.5 27q84 0 152 -38.5t117 -102t75.5 -146.5t27.5 -171q0 -68 -12 -120t-26 -89q-17 -43 -38 -75h109zM436 602q18 4 40.5 16t44.5 28.5t40 35t27 36.5q-5 18 -19.5 40.5t-35.5 42.5t-46.5 33.5t-51.5 14.5q-26 0 -52 -13
t-48 -33t-38 -43t-21 -42q31 -48 73 -75t87 -41zM773 1610l-179 -180l-158 157l-159 -157l-180 181l179 181l158 -157l159 157z" />
    <glyph glyph-name="uni0642" unicode="&#x642;" horiz-adv-x="1659" arabic-form="isolated" 
d="M1259 1017q85 -12 151 -77t110.5 -170.5t65.5 -243.5t16 -295q-8 -227 -65.5 -401t-163 -290.5t-257.5 -172t-349 -44.5q-96 0 -199 21.5t-195 71t-165 131.5t-108.5 202t-25.5 282t84 373q11 32 28 73.5t39.5 76t49.5 53.5t59 6q16 -7 22 -24t3 -46.5t-13 -72.5
t-24 -101q-16 -67 -23.5 -133.5t1 -127t37 -113.5t84.5 -94t142.5 -67.5t211.5 -34.5q118 -5 220.5 10.5t181 43.5t127.5 65t61 76h-156q-88 0 -152 25t-108 67t-70 97t-38 115t-12 121t7 116q13 106 40.5 184t64 133t79 89t85 52.5t82.5 23t72 0.5zM1182 475h72.5t64.5 1
q33 1 64 2q-3 16 -8 33.5t-11.5 35t-13.5 32.5t-14 26q-23 35 -61.5 62t-92.5 32q-24 3 -51.5 -1.5t-51.5 -17.5t-42.5 -36t-24.5 -57q-5 -25 0.5 -45.5t24.5 -35.5t54.5 -23t90.5 -8zM1544 1411l-179 -180l-158 157l-159 -157l-180 181l179 181l158 -157l159 157z" />
    <glyph glyph-name="uniFED6" unicode="&#x642;" horiz-adv-x="1655" arabic-form="final" 
d="M1195 481h72.5t64.5 1q33 1 64 2q-3 16 -8 33.5t-11.5 35t-13.5 32.5t-14 26q-28 43 -73.5 69t-99.5 26q-23 0 -47.5 -6t-45.5 -19.5t-36.5 -35t-21.5 -52.5q-5 -25 0.5 -45.5t24.5 -35.5t54.5 -23t90.5 -8zM1239 1025q63 0 113 -25.5t88.5 -68.5t66.5 -99t47.5 -116.5
t31.5 -122t19 -115.5h54v-478h-79q-11 -144 -67.5 -270t-157.5 -218t-245 -141.5t-330 -41.5q-96 0 -199 21.5t-195 71t-165 131.5t-108.5 202t-25.5 282t84 373q5 13 13 36t20 49t27.5 52t33.5 45t38.5 27t43.5 0q16 -7 22 -24t3 -46.5t-13 -72.5t-24 -101
q-16 -67 -23.5 -133.5t1 -127t37 -113.5t84.5 -94t142.5 -67.5t211.5 -34.5q68 -4 137.5 1.5t133.5 18t120 31.5t99 42t69 49t31 53h-156q-88 0 -152 25t-108 67t-70 97t-38 115t-12 121t7 116q18 145 62.5 239t101 148.5t116.5 75.5t110 21zM1527 1413l-179 -180l-158 157
l-159 -157l-180 181l179 181l158 -157l159 157z" />
    <glyph glyph-name="uniFEE7" unicode="&#x646;" horiz-adv-x="594" arabic-form="initial" 
d="M385 1123q33 -47 62 -110.5t50 -136t33 -152t12 -158.5q0 -160 -25 -268.5t-88 -174.5t-170 -94.5t-272 -28.5q11 1 16 1h5l-12 -1q-15 -2 -24.5 5.5t-15 20t-7.5 27.5t-2 30v310q0 48 11.5 66t39.5 18h86q44 1 80 1t61.5 3.5t41 12t19.5 25.5q3 11 -4.5 31t-21.5 45
t-32 52.5t-36.5 53.5t-35.5 48.5t-29 37.5q-10 15 -6 33.5t10 27.5q18 25 51.5 66t69.5 83.5t68.5 78t47.5 49.5q7 7 11 3.5t6 -5.5zM328 1609l194 -194l-191 -190l-193 193z" />
    <glyph glyph-name="uniFEE8" unicode="&#x646;" horiz-adv-x="623" arabic-form="medial" 
d="M627 1h-19q-85 0 -146.5 43t-92.5 120q-32 -46 -74.5 -77.5t-90.5 -50.5t-100 -27t-103 -8h15q-20 0 -31.5 9t-17.5 24.5t-7.5 35t-1.5 40.5q0 41 0.5 73t0.5 61.5v60t-1 68.5q-2 58 11.5 81t33.5 23h-13q57 0 102 2.5t75 15t43.5 38.5t7.5 73q-5 35 -9.5 67t-8.5 58
q-4 30 -9 57q52 32 99 59q20 12 40 23t38.5 21t33.5 17t25 10q5 1 9 -19.5t8.5 -60t9.5 -97t12 -129.5q3 -33 10 -58t22 -42t41.5 -26t68.5 -9h19v-476zM332 1415l194 -194l-191 -190l-193 193z" />
    <glyph glyph-name="uni0646" unicode="&#x646;" horiz-adv-x="1634" arabic-form="isolated" 
d="M1409 804q8 -1 23.5 -27t33 -70t36 -104.5t33.5 -131.5t24.5 -150.5t9.5 -161.5q0 -190 -49 -342t-144 -259t-234.5 -166.5t-319.5 -63.5q-175 -4 -308.5 33t-226.5 108t-147.5 171t-70.5 222.5t4.5 263t76.5 291.5q9 21 19.5 47t22.5 51.5t26 48.5t30.5 38.5t35 21
t39.5 -3.5q13 -6 20.5 -20t7.5 -40.5t-7.5 -67t-25.5 -99.5q-15 -57 -25.5 -123.5t-4.5 -132t34 -126t89 -107t161 -74.5t250 -28q94 -3 185.5 17.5t165.5 60t122 96.5t56 128q1 12 -10 39.5t-29.5 62t-41 73t-44 73t-39.5 61t-26 38.5q-10 13 -11.5 25.5t2 23.5t10 21
t12.5 19q16 22 38 50t46.5 58t49 58.5t45 50.5t35.5 35t21 12zM796 991l194 -194l-191 -190l-193 193z" />
    <glyph glyph-name="uniFEE6" unicode="&#x646;" horiz-adv-x="1752" arabic-form="final" 
d="M1758 0l-15 -1q-36 1 -66.5 8.5t-54.5 18t-40.5 21.5t-23.5 17q0 1 -1 -29t-9 -80t-25.5 -114.5t-51 -133t-86 -134.5t-129 -119t-181 -87.5t-242.5 -39.5q-250 -8 -420 64.5t-260 209t-99.5 328t62.5 419.5q9 21 20 52t25 64t30.5 65t35.5 55t41.5 33t47.5 1
q22 -8 26.5 -35.5t-2.5 -68t-20.5 -90.5t-27.5 -103q-27 -136 -3.5 -235t91.5 -163t178 -94.5t258 -28.5q94 0 170 15.5t135.5 41t102.5 58t70 67.5t39 69t10 62q-1 6 -5 18t-9.5 25.5t-12.5 27.5t-14 25q-13 21 -30.5 50.5t-37 61.5t-39 63t-36.5 55q-23 29 -17.5 50.5
t18.5 41.5q28 36 65.5 83.5t73.5 89.5t64 70.5t37 28.5q10 -1 21.5 -25t29 -60.5t41.5 -78.5t59.5 -78t83 -60t111.5 -24h9zM760 975l194 -194l-191 -190l-193 193z" />
    <glyph glyph-name="uni06C0" unicode="&#x6c0;" horiz-adv-x="932" arabic-form="isolated" 
d="M434 401q24 0 54 4.5t57 14t45 23.5t18 32q0 31 -22 66t-64 67.5t-103.5 57.5t-141.5 36q-42 -69 -41.5 -125t28.5 -95t74 -60t96 -21zM886 543q12 -139 -21 -244t-96.5 -176t-151 -107t-184.5 -36q-106 0 -185.5 28.5t-128 89t-65 154.5t3.5 226q22 144 52.5 260
t62.5 197t61 124.5t47 43.5q20 0 70.5 -14t115 -43.5t135 -74.5t131 -107t103 -142t50.5 -179zM237 1360q19 15 35 26q14 10 25.5 18.5t13.5 10.5q-22 9 -39 26.5t-29 39.5t-18 46t-7 45q4 29 22 64.5t46.5 68t64.5 57t77 30.5q18 1 39.5 -3.5t44.5 -17.5t46 -36.5t43 -59.5
q8 -15 1 -27.5t-27 -5.5q-4 1 -14.5 5.5t-25.5 8t-34 6t-41 0.5q-47 -4 -77.5 -26.5t-32.5 -56.5q8 -24 34 -37t58 -18t65 -3t54 7q18 5 37 8t30 7q2 1 7.5 0t3.5 -6q1 -35 1 -63v-46t-1 -27q-55 -7 -115 -23.5t-117.5 -43t-107.5 -62.5t-85 -83z" />
    <glyph glyph-name="uniFBA5" unicode="&#x6c0;" horiz-adv-x="1027" arabic-form="final" 
d="M1033 0h-5q-139 0 -227.5 53.5t-133.5 168.5q-17 -13 -63 -21.5t-106 -11t-128 3.5t-128.5 22.5t-108 45t-66.5 71.5q-9 21 -11 53.5t1 71t10 79.5t16 78t18 67.5t17 47.5q19 33 63 71t97 76t107.5 73.5t95.5 65.5l-21 95q4 8 24 28.5t48.5 48t62.5 59t66 61t59 54
t42 37.5q5 5 11.5 3t7.5 -8q11 -72 25.5 -166t30.5 -196t33.5 -206.5t34.5 -198.5q4 -26 13.5 -52.5t24 -48t34.5 -35t47 -13.5h9v-477zM241 619q4 -22 25.5 -35.5t53 -21.5t69 -11t74.5 -2.5t69.5 2.5t52.5 5q-12 57 -24.5 113.5t-29.5 127.5q-43 -18 -95 -41.5t-96.5 -48
t-73 -47.5t-25.5 -41zM378 1508q19 15 35 26q14 10 25.5 18.5t13.5 10.5q-22 9 -39 26.5t-29 39.5t-18 46t-7 45q4 29 22 64.5t46.5 68t64.5 57t77 30.5q18 1 39.5 -3.5t44.5 -17.5t46 -36.5t43 -59.5q8 -15 1 -27.5t-27 -5.5q-4 1 -14.5 5.5t-25.5 8t-34 6t-41 0.5
q-47 -4 -77.5 -26.5t-32.5 -56.5q8 -24 34 -37t58 -18t65 -3t54 7q18 5 37 8t30 7q2 1 7.5 0t3.5 -6q1 -35 1 -63v-46t-1 -27q-55 -7 -115 -23.5t-117.5 -43t-107.5 -62.5t-85 -83z" />
    <glyph glyph-name="uni0624" unicode="&#x624;" horiz-adv-x="921" arabic-form="isolated" 
d="M514 1015q79 -11 136 -61t95 -122t60.5 -155.5t34.5 -161.5t15 -140.5t2 -91.5q-5 -174 -30.5 -320t-69.5 -262t-104.5 -202.5t-135.5 -142.5q-22 -17 -39.5 -26t-35 -12.5t-36.5 -1.5t-43 9q-45 11 -95 26t-97 29.5t-86 28t-62 21.5q-42 12 -58 34t-12 46t26 46t57 35
q98 42 193 88.5t175.5 101t140 119t86.5 141.5q-42 -7 -82 -11q-35 -4 -75 -6.5t-72 1.5q-75 8 -129.5 33t-92 63.5t-58.5 87t-30.5 102.5t-8.5 110.5t9 111.5q13 106 40.5 184t63.5 133t78.5 89t85.5 52.5t82.5 23t71.5 0.5zM437 477q37 0 73 5t64 11q33 7 62 17
q-9 26 -20 49t-25 44q-11 17 -26.5 34t-35 30.5t-42.5 21.5t-50 8q-19 0 -45.5 -4.5t-52 -17t-45.5 -34.5t-27 -56q-5 -25 0.5 -45t25 -34t54.5 -21.5t90 -7.5zM228 1184q19 15 35 26q14 10 25.5 18.5t13.5 10.5q-22 9 -39 26.5t-29 39.5t-18 46t-7 45q4 29 22 64.5t46.5 68
t64.5 57t77 30.5q18 1 39.5 -3.5t44.5 -17.5t46 -36.5t43 -59.5q8 -15 1 -27.5t-27 -5.5q-4 1 -14.5 5.5t-25.5 8t-34 6t-41 0.5q-47 -4 -77.5 -26.5t-32.5 -56.5q8 -24 34 -37t58 -18t65 -3t54 7q18 5 37 8t30 7q2 1 7.5 0t3.5 -6q1 -35 1 -63v-46t-1 -27
q-55 -7 -115 -23.5t-117.5 -43t-107.5 -62.5t-85 -83z" />
    <glyph glyph-name="uniFE86" unicode="&#x624;" horiz-adv-x="897" arabic-form="final" 
d="M903 0l-84 1q-36 -232 -117 -390.5t-197 -246.5q-22 -17 -39.5 -26t-35 -12.5t-36.5 -1.5t-43 9q-45 11 -95.5 26t-97 29.5t-86 28t-61.5 21.5q-42 12 -58 34t-12 46t26 46t57 35q90 38 177.5 80.5t164 91.5t136.5 105.5t95 123.5h-145q-88 0 -152 25t-108 67t-70 97
t-38 115t-12.5 121t7.5 116q13 106 40.5 184t64 133t79 89t85 52.5t82.5 23t72 0.5q57 -8 101.5 -36.5t79.5 -71.5t60.5 -97t43.5 -112t29 -117t18 -112h69v-477zM564 476q35 0 68 1q-3 16 -9 35t-13.5 37.5t-15.5 34.5t-15 27q-11 17 -26.5 33.5t-35 29.5t-42.5 21.5
t-50 9.5q-26 1 -53.5 -3.5t-51 -17t-41.5 -35t-24 -56.5q-5 -25 0 -46.5t23.5 -37t53.5 -24.5t90 -9h142zM195 1191q19 15 35 26q14 10 25.5 18.5t13.5 10.5q-22 9 -39 26.5t-29 39.5t-18 46t-7 45q4 29 22 64.5t46.5 68t64.5 57t77 30.5q18 1 39.5 -3.5t44.5 -17.5
t46 -36.5t43 -59.5q8 -15 1 -27.5t-27 -5.5q-4 1 -14.5 5.5t-25.5 8t-34 6t-41 0.5q-47 -4 -77.5 -26.5t-32.5 -56.5q8 -24 34 -37t58 -18t65 -3t54 7q18 5 37 8t30 7q2 1 7.5 0t3.5 -6q1 -35 1 -63v-46t-1 -27q-55 -7 -115 -23.5t-117.5 -43t-107.5 -62.5t-85 -83z" />
    <glyph glyph-name="uniFBE8" unicode="&#x649;" horiz-adv-x="589" arabic-form="initial" 
d="M380 1123q33 -47 62 -110.5t50 -136t33 -152t12 -158.5q0 -160 -25 -268.5t-88 -174.5t-170 -94.5t-272 -28.5q11 1 16 1h5l-12 -1q-15 -2 -24.5 5.5t-15 20t-7.5 27.5t-2 30v310q0 48 11.5 66t39.5 18h86q44 1 80 1t61.5 3.5t41 12t19.5 25.5q3 11 -4.5 31t-21.5 45
t-32 52.5t-36.5 53.5t-35.5 48.5t-29 37.5q-10 15 -6 33.5t10 27.5q18 25 51.5 66t69.5 83.5t68.5 78t47.5 49.5q7 7 11 3.5t6 -5.5z" />
    <glyph glyph-name="uniFBE9" unicode="&#x649;" horiz-adv-x="621" arabic-form="medial" 
d="M625 1h-19q-85 0 -146.5 43t-92.5 120q-32 -46 -74.5 -77.5t-90.5 -50.5t-100 -27t-103 -8h15q-20 0 -31.5 9t-17.5 24.5t-7.5 35t-1.5 40.5q0 41 0.5 73t0.5 61.5v60t-1 68.5q-2 58 11.5 81t33.5 23h-13q57 0 102 2.5t75 15t43.5 38.5t7.5 73q-5 35 -9.5 67t-8.5 58
q-4 30 -9 57q52 32 99 59q20 12 40 23t38.5 21t33.5 17t25 10q5 1 9 -19.5t8.5 -60t9.5 -97t12 -129.5q3 -33 10 -58t22 -42t41.5 -26t68.5 -9h19v-476z" />
    <glyph glyph-name="uniFEF3" unicode="&#x64a;" horiz-adv-x="737" arabic-form="initial" 
d="M512 1123q33 -47 62 -110.5t50 -136t33 -152t12 -158.5q0 -160 -25 -268.5t-88 -174.5t-170 -94.5t-272 -28.5q-24 1 -46 1h-38t-31 -1q-15 -2 -24.5 5.5t-15 20t-7.5 27.5t-2 30v310q0 48 11.5 66t39.5 18h210q44 1 80 1t61.5 3.5t41 12t19.5 25.5q3 11 -4.5 31
t-21.5 45t-32 52.5t-36.5 53.5t-35.5 48.5t-29 37.5q-10 15 -6 33.5t10 27.5q18 25 51.5 66t69.5 83.5t68.5 78t47.5 49.5q7 7 11 3.5t6 -5.5zM668 -349l-179 -180l-158 157l-159 -157l-180 181l179 181l158 -157l159 157z" />
    <glyph glyph-name="uniFEF4" unicode="&#x64a;" horiz-adv-x="708" arabic-form="medial" 
d="M716 1h-55q-85 0 -146.5 43t-92.5 120q-32 -46 -74.5 -77.5t-90.5 -50.5t-100 -27t-103 -8h-40q-20 0 -31.5 9t-17.5 24.5t-7.5 35t-1.5 40.5q0 41 0.5 73t0.5 61.5v60t-1 68.5q-2 58 11.5 81t33.5 23h42q57 0 102 2.5t75 15t43.5 38.5t7.5 73q-5 35 -9.5 67t-8.5 58
q-4 30 -9 57q52 32 99 59q20 12 40 23t38.5 21t33.5 17t25 10q5 1 9 -19.5t8.5 -60t9.5 -97t12 -129.5q3 -33 10 -58t22 -42t41.5 -26t68.5 -9h55v-476zM674 -349l-179 -180l-158 157l-159 -157l-180 181l179 181l158 -157l159 157z" />
    <glyph glyph-name="uni064A" unicode="&#x64a;" horiz-adv-x="1668" arabic-form="isolated" 
d="M1055 361q87 -40 158 -70.5t126.5 -59.5t95.5 -60t66.5 -71.5t39 -95t12.5 -130.5q0 -124 -56.5 -224.5t-162.5 -172t-256.5 -110.5t-338.5 -39q-128 6 -240.5 34.5t-200.5 84t-148.5 140.5t-85 204.5t-8.5 276.5t80 357q7 23 19.5 56t29 69t35 70.5t38.5 59.5t40 36
t38 0q19 -8 23 -34.5t-1 -67t-17.5 -92.5t-26.5 -111q-17 -71 -32.5 -142t-16 -136.5t18.5 -123.5t71.5 -101.5t143 -71t232.5 -32.5q107 -4 197 -1t159.5 10t117.5 15.5t70 15.5q18 6 24 11t4.5 10t-10 10t-18.5 11q-30 16 -83.5 36t-118 44t-132.5 52t-125 59
q-14 7 -34.5 25t-37 52t-22.5 86t10 127q16 74 53.5 158.5t95.5 163.5t135.5 145.5t172 105.5t205.5 42t237 -45q5 -2 -0.5 -29.5t-18 -66.5t-29.5 -83.5t-34 -80.5t-32.5 -57.5t-24.5 -14.5q-66 26 -135.5 22t-132.5 -28.5t-115 -64t-82 -84.5q-24 -35 -17.5 -53t45.5 -36z
M1040 -968l-179 -180l-158 157l-159 -157l-180 181l179 181l158 -157l159 157z" />
    <glyph glyph-name="uniFEF2" unicode="&#x64a;" horiz-adv-x="1615" arabic-form="final" 
d="M1619 1h-71q3 -6 6.5 -20.5t5.5 -34t3 -41.5t-1 -43q-10 -137 -67 -237.5t-153 -166.5t-227 -98t-287 -32q-89 0 -177 11.5t-169 37t-152 66.5t-126.5 100.5t-92.5 139t-49.5 181.5t3 227.5t63.5 278.5q7 22 18.5 58t26.5 76t33.5 80t38 71.5t40.5 50t42 15.5
q23 -4 32.5 -23t9.5 -48.5t-7 -67t-17.5 -79t-22 -84.5t-20.5 -82q-15 -70 -21 -137.5t4.5 -128t43 -111t95.5 -86.5t160.5 -55.5t238.5 -17.5q73 -2 142.5 5.5t130.5 21t110 31.5t80.5 38t43.5 40.5t-2 37.5q-45 57 -136 107.5t-222 100.5l169 354q77 -23 135 -35
t110.5 -17.5t107.5 -6.5t127 -1v-476zM1055 -964l-179 -180l-158 157l-159 -157l-180 181l179 181l158 -157l159 157z" />
    <glyph glyph-name="uni06CC" unicode="&#x6cc;" horiz-adv-x="1656" arabic-form="isolated" 
d="M1055 361q87 -40 158 -70.5t126.5 -59.5t95.5 -60t66.5 -71.5t39 -95t12.5 -130.5q0 -124 -56.5 -224.5t-162.5 -172t-256.5 -110.5t-338.5 -39q-128 6 -240.5 34.5t-200.5 84t-148.5 140.5t-85 204.5t-8.5 276.5t80 357q7 23 19.5 56t29 69t35 70.5t38.5 59.5t40 36
t38 0q19 -8 23 -34.5t-1 -67t-17.5 -92.5t-26.5 -111q-17 -71 -32.5 -142t-16 -136.5t18.5 -123.5t71.5 -101.5t143 -71t232.5 -32.5q107 -4 197 -1t159.5 10t117.5 15.5t70 15.5q18 6 24 11t4.5 10t-10 10t-18.5 11q-30 16 -83.5 36t-118 44t-132.5 52t-125 59
q-14 7 -34.5 25t-37 52t-22.5 86t10 127q16 74 53.5 158.5t95.5 163.5t135.5 145.5t172 105.5t205.5 42t237 -45q5 -2 -0.5 -29.5t-18 -66.5t-29.5 -83.5t-34 -80.5t-32.5 -57.5t-24.5 -14.5q-66 26 -135.5 22t-132.5 -28.5t-115 -64t-82 -84.5q-24 -35 -17.5 -53t45.5 -36z
" />
    <glyph glyph-name="uniFBFE" unicode="&#x6cc;" horiz-adv-x="732" arabic-form="initial" 
d="M512 1123q33 -47 62 -110.5t50 -136t33 -152t12 -158.5q0 -160 -25 -268.5t-88 -174.5t-170 -94.5t-272 -28.5q-24 1 -46 1h-38t-31 -1q-15 -2 -24.5 5.5t-15 20t-7.5 27.5t-2 30v310q0 48 11.5 66t39.5 18h210q44 1 80 1t61.5 3.5t41 12t19.5 25.5q3 11 -4.5 31
t-21.5 45t-32 52.5t-36.5 53.5t-35.5 48.5t-29 37.5q-10 15 -6 33.5t10 27.5q18 25 51.5 66t69.5 83.5t68.5 78t47.5 49.5q7 7 11 3.5t6 -5.5zM667 -348l-179 -180l-158 157l-159 -157l-180 181l179 181l158 -157l159 157z" />
    <glyph glyph-name="uniFBFF" unicode="&#x6cc;" horiz-adv-x="708" arabic-form="medial" 
d="M716 1h-55q-85 0 -146.5 43t-92.5 120q-32 -46 -74.5 -77.5t-90.5 -50.5t-100 -27t-103 -8h-40q-20 0 -31.5 9t-17.5 24.5t-7.5 35t-1.5 40.5q0 41 0.5 73t0.5 61.5v60t-1 68.5q-2 58 11.5 81t33.5 23h42q57 0 102 2.5t75 15t43.5 38.5t7.5 73q-5 35 -9.5 67t-8.5 58
q-4 30 -9 57q52 32 99 59q20 12 40 23t38.5 21t33.5 17t25 10q5 1 9 -19.5t8.5 -60t9.5 -97t12 -129.5q3 -33 10 -58t22 -42t41.5 -26t68.5 -9h55v-476zM653 -346l-179 -180l-158 157l-159 -157l-180 181l179 181l158 -157l159 157z" />
    <glyph glyph-name="uniFBFD" unicode="&#x6cc;" horiz-adv-x="1615" arabic-form="final" 
d="M1619 1h-71q3 -6 6.5 -20.5t5.5 -34t3 -41.5t-1 -43q-10 -137 -67 -237.5t-153 -166.5t-227 -98t-287 -32q-89 0 -177 11.5t-169 37t-152 66.5t-126.5 100.5t-92.5 139t-49.5 181.5t3 227.5t63.5 278.5q7 22 18.5 58t26.5 76t33.5 80t38 71.5t40.5 50t42 15.5
q23 -4 32.5 -23t9.5 -48.5t-7 -67t-17.5 -79t-22 -84.5t-20.5 -82q-15 -70 -21 -137.5t4.5 -128t43 -111t95.5 -86.5t160.5 -55.5t238.5 -17.5q73 -2 142.5 5.5t130.5 21t110 31.5t80.5 38t43.5 40.5t-2 37.5q-45 57 -136 107.5t-222 100.5l169 354q77 -23 135 -35
t110.5 -17.5t107.5 -6.5t127 -1v-476z" />
    <glyph glyph-name="uni06D3" unicode="&#x6d3;" horiz-adv-x="2087" arabic-form="isolated" 
d="M2018 550q4 -9 6.5 -31.5t4 -51.5t2 -61.5t0 -62t-2.5 -52t-4 -31.5q-7 -26 -46 -56.5t-105 -61t-155.5 -59t-196.5 -50.5t-228.5 -35t-250.5 -13q-44 0 -93.5 1.5t-100.5 3.5t-101.5 5.5t-98.5 7.5t-108 14t-122 23.5t-121 29t-105 30.5t-74 28.5t-28 22.5q0 7 5 38
t13 74.5t18 93.5t19.5 97t17.5 84.5t13 54.5q14 52 24.5 76t20.5 36q26 32 72 66.5t103.5 66.5t121.5 60t126 48q94 30 156 57.5t99.5 51.5t55 43t23.5 32q23 50 49 64t46 3t29.5 -41.5t-0.5 -67.5q-5 -20 -13 -46l-16 -52t-15 -47.5t-11 -30.5q-23 -55 -52 -90.5t-64 -59.5
t-76.5 -42t-88.5 -39q-53 -23 -108 -46.5t-104.5 -46.5t-89 -43.5t-60.5 -35.5q22 -9 62.5 -18t93.5 -17.5t115.5 -15t129.5 -11t135.5 -6.5t132.5 -1q69 1 158 7.5t184.5 16t191.5 21t178 23.5t143.5 23t89.5 19zM367 1179q19 15 35 26q14 10 25.5 18.5t13.5 10.5
q-22 9 -39 26.5t-29 39.5t-18 46t-7 45q4 29 22 64.5t46.5 68t64.5 57t77 30.5q18 1 39.5 -3.5t44.5 -17.5t46 -36.5t43 -59.5q8 -15 1 -27.5t-27 -5.5q-4 1 -14.5 5.5t-25.5 8t-34 6t-41 0.5q-47 -4 -77.5 -26.5t-32.5 -56.5q8 -24 34 -37t58 -18t65 -3t54 7q18 5 37 8
t30 7q2 1 7.5 0t3.5 -6q1 -35 1 -63v-46t-1 -27q-55 -7 -115 -23.5t-117.5 -43t-107.5 -62.5t-85 -83z" />
    <glyph glyph-name="uniFBB1" unicode="&#x6d3;" horiz-adv-x="1698" arabic-form="final" 
d="M337 -161q43 -13 121.5 -20.5t180.5 -10.5t220.5 -1.5t240 5.5t239 11t218 15.5t177 18t116.5 19.5q-1 -13 -4 -30.5t-6.5 -35t-7.5 -33.5t-7 -26q-19 -74 -54.5 -139.5t-88 -114.5t-120.5 -77.5t-151 -27.5q-160 -5 -322 -1.5t-311 14.5t-280 29.5t-229.5 42.5t-159 54
t-69.5 65q-3 13 -0.5 47t10 79t19 95.5t25.5 97t30.5 84t34.5 55.5q69 71 176 129.5t237.5 105.5t276.5 82t293 58.5t286.5 35t257.5 11.5q26 0 26 -27v-425q0 -24 -26 -24q-63 0 -164.5 -1t-223.5 -5.5t-256.5 -14.5t-263 -27.5t-243.5 -45t-198 -67.5zM304 515
q19 15 35 26q14 10 25.5 18.5t13.5 10.5q-22 9 -39 26.5t-29 39.5t-18 46t-7 45q4 29 22 64.5t46.5 68t64.5 57t77 30.5q18 1 39.5 -3.5t44.5 -17.5t46 -36.5t43 -59.5q8 -15 1 -27.5t-27 -5.5q-4 1 -14.5 5.5t-25.5 8t-34 6t-41 0.5q-47 -4 -77.5 -26.5t-32.5 -56.5
q8 -24 34 -37t58 -18t65 -3t54 7q18 5 37 8t30 7q2 1 7.5 0t3.5 -6q1 -35 1 -63v-46t-1 -27q-55 -7 -115 -23.5t-117.5 -43t-107.5 -62.5t-85 -83z" />
    <glyph glyph-name="uni0626" unicode="&#x626;" horiz-adv-x="1635" arabic-form="isolated" 
d="M1011 361q87 -40 158 -70.5t126.5 -59.5t95.5 -60t66.5 -71.5t39 -95t12.5 -130.5q0 -124 -56.5 -224.5t-162.5 -172t-256.5 -110.5t-338.5 -39q-128 6 -240.5 34.5t-200.5 84t-148.5 140.5t-85 204.5t-8.5 276.5t80 357q7 23 19.5 56t29 69t35 70.5t38.5 59.5t40 36
t38 0q19 -8 23 -34.5t-1 -67t-17.5 -92.5t-26.5 -111q-17 -71 -32.5 -142t-16 -136.5t18.5 -123.5t71.5 -101.5t143 -71t232.5 -32.5q107 -4 197 -1t159.5 10t117.5 15.5t70 15.5q18 6 24 11t4.5 10t-10 10t-18.5 11q-30 16 -83.5 36t-118 44t-132.5 52t-125 59
q-14 7 -34.5 25t-37 52t-22.5 86t10 127q16 74 53.5 158.5t95.5 163.5t135.5 145.5t172 105.5t205.5 42t237 -45q5 -2 -0.5 -29.5t-18 -66.5t-29.5 -83.5t-34 -80.5t-32.5 -57.5t-24.5 -14.5q-66 26 -135.5 22t-132.5 -28.5t-115 -64t-82 -84.5q-24 -35 -17.5 -53t45.5 -36z
M579 956q19 15 35 26q14 10 25.5 18.5t13.5 10.5q-22 9 -39 26.5t-29 39.5t-18 46t-7 45q4 29 22 64.5t46.5 68t64.5 57t77 30.5q18 1 39.5 -3.5t44.5 -17.5t46 -36.5t43 -59.5q8 -15 1 -27.5t-27 -5.5q-4 1 -14.5 5.5t-25.5 8t-34 6t-41 0.5q-47 -4 -77.5 -26.5
t-32.5 -56.5q8 -24 34 -37t58 -18t65 -3t54 7q18 5 37 8t30 7q2 1 7.5 0t3.5 -6q1 -35 1 -63v-46t-1 -27q-55 -7 -115 -23.5t-117.5 -43t-107.5 -62.5t-85 -83z" />
    <glyph glyph-name="uniFE8B" unicode="&#x626;" horiz-adv-x="689" arabic-form="initial" 
d="M126 1292q19 15 35 26q14 10 25.5 18.5t13.5 10.5q-22 9 -39 26.5t-29 39.5t-18 46t-7 45q4 29 22 64.5t46.5 68t64.5 57t77 30.5q18 1 39.5 -3.5t44.5 -17.5t46 -36.5t43 -59.5q8 -15 1 -27.5t-27 -5.5q-4 1 -14.5 5.5t-25.5 8t-34 6t-41 0.5q-47 -4 -77.5 -26.5
t-32.5 -56.5q8 -24 34 -37t58 -18t65 -3t54 7q18 5 37 8t30 7q2 1 7.5 0t3.5 -6q1 -35 1 -63v-46t-1 -27q-55 -7 -115 -23.5t-117.5 -43t-107.5 -62.5t-85 -83zM502 1123q33 -47 62 -110.5t50 -136t33 -152t12 -158.5q0 -160 -25 -268.5t-88 -174.5t-170 -94.5t-272 -28.5
q-24 1 -46 1h-38t-31 -1q-15 -2 -24.5 5.5t-15 20t-7.5 27.5t-2 30v310q0 48 11.5 66t39.5 18h210q44 1 80 1t61.5 3.5t41 12t19.5 25.5q3 11 -4.5 31t-21.5 45t-32 52.5t-36.5 53.5t-35.5 48.5t-29 37.5q-10 15 -6 33.5t10 27.5q18 25 51.5 66t69.5 83.5t68.5 78t47.5 49.5
q7 7 11 3.5t6 -5.5z" />
    <glyph glyph-name="uniFE8C" unicode="&#x626;" horiz-adv-x="650" arabic-form="medial" 
d="M658 1h-19q-85 0 -146.5 43t-92.5 120q-32 -46 -74.5 -77.5t-90.5 -50.5t-100 -27t-103 -8h15q-20 0 -31.5 9t-17.5 24.5t-7.5 35t-1.5 40.5q0 41 0.5 73t0.5 61.5v60t-1 68.5q-2 58 11.5 81t33.5 23h-13q57 0 102 2.5t75 15t43.5 38.5t7.5 73q-5 35 -9.5 67t-8.5 58
q-4 30 -9 57q52 32 99 59q20 12 40 23t38.5 21t33.5 17t25 10q5 1 9 -19.5t8.5 -60t9.5 -97t12 -129.5q3 -33 10 -58t22 -42t41.5 -26t68.5 -9h19v-476zM141 1189q19 15 35 26q14 10 25.5 18.5t13.5 10.5q-22 9 -39 26.5t-29 39.5t-18 46t-7 45q4 29 22 64.5t46.5 68
t64.5 57t77 30.5q18 1 39.5 -3.5t44.5 -17.5t46 -36.5t43 -59.5q8 -15 1 -27.5t-27 -5.5q-4 1 -14.5 5.5t-25.5 8t-34 6t-41 0.5q-47 -4 -77.5 -26.5t-32.5 -56.5q8 -24 34 -37t58 -18t65 -3t54 7q18 5 37 8t30 7q2 1 7.5 0t3.5 -6q1 -35 1 -63v-46t-1 -27
q-55 -7 -115 -23.5t-117.5 -43t-107.5 -62.5t-85 -83z" />
    <glyph glyph-name="uniFE8A" unicode="&#x626;" horiz-adv-x="1615" arabic-form="final" 
d="M1619 1h-71q3 -6 6.5 -20.5t5.5 -34t3 -41.5t-1 -43q-10 -137 -67 -237.5t-153 -166.5t-227 -98t-287 -32q-89 0 -177 11.5t-169 37t-152 66.5t-126.5 100.5t-92.5 139t-49.5 181.5t3 227.5t63.5 278.5q7 22 18.5 58t26.5 76t33.5 80t38 71.5t40.5 50t42 15.5
q23 -4 32.5 -23t9.5 -48.5t-7 -67t-17.5 -79t-22 -84.5t-20.5 -82q-15 -70 -21 -137.5t4.5 -128t43 -111t95.5 -86.5t160.5 -55.5t238.5 -17.5q73 -2 142.5 5.5t130.5 21t110 31.5t80.5 38t43.5 40.5t-2 37.5q-45 57 -136 107.5t-222 100.5l169 354q77 -23 135 -35
t110.5 -17.5t107.5 -6.5t127 -1v-476zM635 641q19 15 35 26q14 10 25.5 18.5t13.5 10.5q-22 9 -39 26.5t-29 39.5t-18 46t-7 45q4 29 22 64.5t46.5 68t64.5 57t77 30.5q18 1 39.5 -3.5t44.5 -17.5t46 -36.5t43 -59.5q8 -15 1 -27.5t-27 -5.5q-4 1 -14.5 5.5t-25.5 8t-34 6
t-41 0.5q-47 -4 -77.5 -26.5t-32.5 -56.5q8 -24 34 -37t58 -18t65 -3t54 7q18 5 37 8t30 7q2 1 7.5 0t3.5 -6q1 -35 1 -63v-46t-1 -27q-55 -7 -115 -23.5t-117.5 -43t-107.5 -62.5t-85 -83z" />
    <glyph glyph-name="uni06C2" unicode="&#x6c2;" horiz-adv-x="943" 
d="M444 401q24 0 54 4.5t57 14t45 23.5t18 32q0 31 -22 66t-64 67.5t-103.5 57.5t-141.5 36q-42 -69 -41.5 -125t28.5 -95t74 -60t96 -21zM896 543q12 -139 -21 -244t-96.5 -176t-151 -107t-184.5 -36q-106 0 -185.5 28.5t-128 89t-65 154.5t3.5 226q22 144 52.5 260
t62.5 197t61 124.5t47 43.5q20 0 70.5 -14t115 -43.5t135 -74.5t131 -107t103 -142t50.5 -179zM225 1275q19 15 35 26q14 10 25.5 18.5t13.5 10.5q-22 9 -39 26.5t-29 39.5t-18 46t-7 45q4 29 22 64.5t46.5 68t64.5 57t77 30.5q18 1 39.5 -3.5t44.5 -17.5t46 -36.5t43 -59.5
q8 -15 1 -27.5t-27 -5.5q-4 1 -14.5 5.5t-25.5 8t-34 6t-41 0.5q-47 -4 -77.5 -26.5t-32.5 -56.5q8 -24 34 -37t58 -18t65 -3t54 7q18 5 37 8t30 7q2 1 7.5 0t3.5 -6q1 -35 1 -63v-46t-1 -27q-55 -7 -115 -23.5t-117.5 -43t-107.5 -62.5t-85 -83z" />
    <glyph glyph-name="uniFBA6" unicode="&#x6c1;" horiz-adv-x="943" arabic-form="isolated" 
d="M434 401q24 0 54 4.5t57 14t45 23.5t18 32q0 31 -22 66t-64 67.5t-103.5 57.5t-141.5 36q-42 -69 -41.5 -125t28.5 -95t74 -60t96 -21zM886 543q12 -139 -21 -244t-96.5 -176t-151 -107t-184.5 -36q-106 0 -185.5 28.5t-128 89t-65 154.5t3.5 226q22 144 52.5 260
t62.5 197t61 124.5t47 43.5q20 0 70.5 -14t115 -43.5t135 -74.5t131 -107t103 -142t50.5 -179z" />
    <glyph glyph-name="uni06C3" unicode="&#x6c3;" horiz-adv-x="943" 
d="M429 401q24 0 54 4.5t57 14t45 23.5t18 32q0 31 -22 66t-64 67.5t-103.5 57.5t-141.5 36q-42 -69 -41.5 -125t28.5 -95t74 -60t96 -21zM881 543q12 -139 -21 -244t-96.5 -176t-151 -107t-184.5 -36q-106 0 -185.5 28.5t-128 89t-65 154.5t3.5 226q22 144 52.5 260
t62.5 197t61 124.5t47 43.5q20 0 70.5 -14t115 -43.5t135 -74.5t131 -107t103 -142t50.5 -179zM686 1430l-179 -180l-158 157l-159 -157l-180 181l179 181l158 -157l159 157z" />
    <glyph glyph-name="uniFBAB" unicode="&#x6be;" horiz-adv-x="1136" arabic-form="final" 
d="M990 447q29 11 58.5 16.5t53.5 8.5q28 4 54 4l-2 -476q-7 0 -33.5 0.5t-62 -4t-74.5 -15.5t-71 -34q-48 -35 -57 -68.5t4.5 -62.5t40 -52.5t49.5 -38.5l-179 -366q-126 53 -217 123t-153 152.5t-99 175.5t-54 192q-32 -2 -71.5 -17.5t-77.5 -36.5t-69.5 -43.5
t-47.5 -37.5l-45 389q11 14 31.5 35t47 45t57 48t61 43.5t59 32t51.5 13.5q5 82 22 161.5t43 150.5t59.5 131t71.5 103.5t79.5 68t84.5 24.5q37 0 73 -20.5t69 -57t61 -85t47.5 -104.5t30 -116.5t8.5 -119.5q-3 -60 -16.5 -123t-36.5 -125q17 15 37 28t40 24.5t39 20
t34 13.5zM617 707q-18 -2 -37.5 -21t-37 -49.5t-29.5 -71.5t-15 -87q90 9 140 26.5t71 46.5q12 24 6.5 52t-21 51.5t-37 38.5t-40.5 14zM514 1q6 -20 19.5 -39.5t30 -36.5t35.5 -30.5t37 -22.5q-1 9 0.5 33t6 55t11 66t16.5 67q-35 -34 -74 -57.5t-82 -34.5z" />
    <glyph glyph-name="uniFBAC" unicode="&#x6be;" horiz-adv-x="1315" arabic-form="initial" 
d="M325 1274q4 1 40.5 -14.5t95 -44.5t133.5 -69t155 -88.5t159.5 -103t147.5 -113t119 -118t74 -117.5q-2 -55 -14.5 -130t-36 -154t-58 -154t-80.5 -131q-51 -23 -114.5 -32t-130 -8t-131 9.5t-118.5 19t-92 20t-50 14.5q-45 -23 -92 -35t-96 -17.5t-99 -6.5t-99 -1h-36
q-24 0 -36 13.5t-16.5 31.5t-4.5 37.5v33.5v88.5t0.5 40.5t0.5 15.5v12t-0.5 29.5t-0.5 70q0 11 0.5 28.5t5 34.5t15 29t30.5 12h86q-13 55 -8 118.5t21.5 122t41 106.5t50.5 72l-76 46q5 12 22 41t39.5 65.5t47.5 76t47.5 72.5t38 55t19.5 23zM581 564q16 48 12.5 87
t-20.5 69.5t-45.5 51.5t-61.5 32q-32 11 -61.5 6t-53.5 -21.5t-41 -42t-26 -56.5q-8 -30 -4.5 -60.5t32.5 -63.5q10 -13 30.5 -29t45.5 -30.5t51 -25t49 -11.5q36 16 59.5 41t33.5 53zM1026 358q14 39 -2.5 81t-52.5 82t-87 75.5t-106 61.5q6 -48 -4.5 -100t-25.5 -96
q-18 -51 -41 -99q17 -10 44.5 -21t59.5 -20t66 -14.5t64 -2.5t52.5 15t32.5 38z" />
    <glyph glyph-name="uniFBAD" unicode="&#x6be;" horiz-adv-x="886" arabic-form="medial" 
d="M681 357q24 33 43.5 55.5t42.5 36.5t53 20.5t77 6.5v-475q-39 -2 -73 -10q-29 -8 -59.5 -22.5t-46.5 -42.5q-9 -15 -13 -39t2.5 -52t27 -57.5t59.5 -55.5l-179 -364q-135 54 -229.5 132t-156.5 165.5t-94.5 176.5t-43.5 166l-84 2q-32 -5 -45.5 9.5t-13.5 55.5l2 348
q0 41 10.5 52.5t38.5 10.5h86q8 84 26 164t43.5 150.5t58.5 129t71 101t79.5 66t84.5 23.5q42 0 82.5 -26t75.5 -70.5t63 -103.5t45 -124.5t21.5 -133.5t-6.5 -130q-8 -42 -20 -83.5t-28 -81.5zM465 705q-19 0 -40.5 -20.5t-39.5 -53.5t-30 -74t-13 -81q28 3 61.5 8.5
t63.5 14.5t53.5 21t33.5 29q11 19 7 45.5t-17.5 50.5t-34.5 41.5t-44 18.5zM358 0q4 -17 17.5 -37t31 -38t37 -32.5t35.5 -21.5q3 66 13.5 122t24.5 104q-38 -39 -78 -64t-81 -33z" />
    <glyph glyph-name="uniFE70" unicode="&#xfe70;" arabic-form="isolated" 
d="M360 1721l-391 -169v136l391 161v-128zM360 1537l-391 -169v135l391 162v-128z" />
    <glyph glyph-name="uniFE72" unicode="&#xfe72;" arabic-form="isolated" 
d="M440 1429q-12 -45 -47.5 -95t-86.5 -93.5t-114 -75t-131 -37.5q-9 0 -7.5 19t4 46t2 55.5t-13.5 47.5q-5 7 -20.5 1.5t-33 -14.5t-33.5 -17.5t-21 -6.5l7 99q27 20 54 32q23 11 49 15.5t47 -9.5q19 -12 29 -35t15 -46q5 -27 6 -57q16 5 35 13.5t37 19t33 22.5t24 24
q-67 17 -110 52.5t-45 95.5q-2 42 15 79.5t44 65.5t61.5 44.5t68.5 15.5q35 -1 64.5 -22t48.5 -56t25 -82.5t-6 -100.5zM190 1548q0 -12 10 -30t31 -34t54.5 -27t81.5 -9q-1 19 -4.5 36.5t-12 33.5t-23 29t-37.5 23q-17 7 -35 7t-32.5 -4.5t-23.5 -11.5t-9 -12v-1zM-63 1260
q1 0 1 -1z" />
    <glyph glyph-name="uniFE74" unicode="&#xfe74;" arabic-form="isolated" 
d="M389 -225l-391 -169v136l391 161v-128zM389 -409l-391 -169v135l391 162v-128z" />
    <glyph glyph-name="uniFE76" unicode="&#xfe76;" arabic-form="isolated" 
d="M392 1886l-391 -168v135l391 161v-128z" />
    <glyph glyph-name="uniFE78" unicode="&#xfe78;" arabic-form="isolated" 
d="M462 2205q-11 -33 -34.5 -74t-63 -80.5t-95 -73.5t-128.5 -53q-8 0 -24.5 5.5t-35.5 14t-37 17.5t-28 16l1 -1q-8 5 -10 8.5t0 6.5q2 4 6 6l60 22q68 20 124.5 44t98.5 50q-67 17 -110 52.5t-45 95.5q-2 42 15 79.5t44 65.5t61.5 44.5t68.5 15.5q35 -1 64.5 -22t48.5 -56
t25 -82.5t-6 -100.5zM212 2324q0 -12 10 -30t31 -34t54.5 -27t81.5 -9q-1 19 -4.5 36.5t-12 33.5t-23 29t-37.5 23q-17 7 -35 7t-32.5 -4.5t-23.5 -11.5t-9 -12v-1z" />
    <glyph glyph-name="uniFE7A" unicode="&#xfe7a;" arabic-form="isolated" 
d="M390 -176l-391 -168v135l391 161v-128z" />
    <glyph glyph-name="uniFE7C" unicode="&#xfe7c;" arabic-form="isolated" 
d="M451 1544q4 -61 -7.5 -102t-32.5 -66.5t-47 -37t-49 -13.5q-45 -6 -70 3.5t-45 32.5q-20 -37 -50.5 -50t-65.5 -13q-55 0 -85.5 22.5t-44 56.5t-14 73t5 73.5t12 58.5t7.5 26q6 22 19 30.5t25.5 6t21.5 -14.5t7 -30q0 -5 -2 -25.5t1 -43t12.5 -40.5t32.5 -18
q24 -1 36.5 7.5t18.5 24.5t7.5 39t3.5 51q0 6 1 14t5 15t11.5 12t19.5 5q20 1 30.5 -14.5t13.5 -30.5q3 -20 5 -39t7.5 -34t17 -23.5t35.5 -6.5q6 1 14 3t15.5 6t12.5 10.5t4 15.5q0 8 -8.5 25t-19.5 35.5t-21 34.5t-14 23l36 72q14 27 26 50t14 24q3 0 17 -17.5t30.5 -50
t31 -78t19.5 -102.5z" />
    <glyph glyph-name="uniFE7E" unicode="&#xfe7e;" arabic-form="isolated" 
d="M177 1040q25 0 57.5 -11.5t60.5 -38.5t47.5 -72.5t19.5 -112.5q0 -54 -21 -92t-51 -61t-62 -33.5t-54 -10.5q-43 0 -75.5 16.5t-54.5 44t-33 64t-11 75.5q0 63 18.5 107t46 71.5t58 40.5t54.5 13zM178 748q22 0 40.5 7t32 16.5t21 19.5t7.5 16q0 4 -7 18.5t-21.5 30.5
t-37 28.5t-52.5 12.5q-11 0 -24.5 -4.5t-25 -13.5t-19.5 -22t-8 -31q0 -13 5 -27t16.5 -25t29 -18.5t43.5 -7.5z" />
    <glyph glyph-name="uniFC5E" unicode="&#xfc5e;" arabic-form="isolated" 
d="M456 1556q4 -61 -7.5 -102t-32.5 -66.5t-47 -37t-49 -13.5q-45 -6 -70 3.5t-45 32.5q-20 -37 -50.5 -50t-65.5 -13q-55 0 -85.5 22.5t-44 56.5t-14 73t5 73.5t12 58.5t7.5 26q6 22 19 30.5t25.5 6t21.5 -14.5t7 -30q0 -5 -2 -25.5t1 -43t12.5 -40.5t32.5 -18
q24 -1 36.5 7.5t18.5 24.5t7.5 39t3.5 51q0 6 1 14t5 15t11.5 12t19.5 5q20 1 30.5 -14.5t13.5 -30.5q3 -20 5 -39t7.5 -34t17 -23.5t35.5 -6.5q6 1 14 3t15.5 6t12.5 10.5t4 15.5q0 8 -8.5 25t-19.5 35.5t-21 34.5t-14 23l36 72q14 27 26 50t14 24q3 0 17 -17.5t30.5 -50
t31 -78t19.5 -102.5zM349 2005q-12 -45 -47.5 -95t-86.5 -93.5t-114 -75t-131 -37.5q-9 0 -7.5 19t4 46t2 55.5t-13.5 47.5q-5 7 -20.5 1.5t-33 -14.5t-33.5 -17.5t-21 -6.5l7 99q27 20 54 32q23 11 49 15.5t47 -9.5q19 -12 29 -35t15 -46q5 -27 6 -57q16 5 35 13.5t37 19
t33 22.5t24 24q-67 17 -110 52.5t-45 95.5q-2 42 15 79.5t44 65.5t61.5 44.5t68.5 15.5q35 -1 64.5 -22t48.5 -56t25 -82.5t-6 -100.5zM99 2124q0 -12 10 -30t31 -34t54.5 -27t81.5 -9q-1 19 -4.5 36.5t-12 33.5t-23 29t-37.5 23q-17 7 -35 7t-32.5 -4.5t-23.5 -11.5t-9 -12
v-1zM-154 1836q1 0 1 -1z" />
    <glyph glyph-name="uniFC5F" unicode="&#xfc5f;" arabic-form="isolated" 
d="M445 2030q4 -61 -7.5 -102t-32.5 -66.5t-47 -37t-49 -13.5q-45 -6 -70 3.5t-45 32.5q-20 -37 -50.5 -50t-65.5 -13q-55 0 -85.5 22.5t-44 56.5t-14 73t5 73.5t12 58.5t7.5 26q6 22 19 30.5t25.5 6t21.5 -14.5t7 -30q0 -5 -2 -25.5t1 -43t12.5 -40.5t32.5 -18
q24 -1 36.5 7.5t18.5 24.5t7.5 39t3.5 51q0 6 1 14t5 15t11.5 12t19.5 5q20 1 30.5 -14.5t13.5 -30.5q3 -20 5 -39t7.5 -34t17 -23.5t35.5 -6.5q6 1 14 3t15.5 6t12.5 10.5t4 15.5q0 8 -8.5 25t-19.5 35.5t-21 34.5t-14 23l36 72q14 27 26 50t14 24q3 0 17 -17.5t30.5 -50
t31 -78t19.5 -102.5zM391 1655l-391 -169v136l391 161v-128zM391 1471l-391 -169v135l391 162v-128z" />
    <glyph glyph-name="uniFC60" unicode="&#xfc60;" arabic-form="isolated" 
d="M458 1643q4 -61 -7.5 -102t-32.5 -66.5t-47 -37t-49 -13.5q-45 -6 -70 3.5t-45 32.5q-20 -37 -50.5 -50t-65.5 -13q-55 0 -85.5 22.5t-44 56.5t-14 73t5 73.5t12 58.5t7.5 26q6 22 19 30.5t25.5 6t21.5 -14.5t7 -30q0 -5 -2 -25.5t1 -43t12.5 -40.5t32.5 -18
q24 -1 36.5 7.5t18.5 24.5t7.5 39t3.5 51q0 6 1 14t5 15t11.5 12t19.5 5q20 1 30.5 -14.5t13.5 -30.5q3 -20 5 -39t7.5 -34t17 -23.5t35.5 -6.5q6 1 14 3t15.5 6t12.5 10.5t4 15.5q0 8 -8.5 25t-19.5 35.5t-21 34.5t-14 23l36 72q14 27 26 50t14 24q3 0 17 -17.5t30.5 -50
t31 -78t19.5 -102.5zM366 1982l-391 -168v135l391 161v-128z" />
    <glyph glyph-name="uniFC61" unicode="&#xfc61;" arabic-form="isolated" 
d="M490 1710q4 -61 -7.5 -102t-32.5 -66.5t-47 -37t-49 -13.5q-45 -6 -70 3.5t-45 32.5q-20 -37 -50.5 -50t-65.5 -13q-55 0 -85.5 22.5t-44 56.5t-14 73t5 73.5t12 58.5t7.5 26q6 22 19 30.5t25.5 6t21.5 -14.5t7 -30q0 -5 -2 -25.5t1 -43t12.5 -40.5t32.5 -18
q24 -1 36.5 7.5t18.5 24.5t7.5 39t3.5 51q0 6 1 14t5 15t11.5 12t19.5 5q20 1 30.5 -14.5t13.5 -30.5q3 -20 5 -39t7.5 -34t17 -23.5t35.5 -6.5q6 1 14 3t15.5 6t12.5 10.5t4 15.5q0 8 -8.5 25t-19.5 35.5t-21 34.5t-14 23l36 72q14 27 26 50t14 24q3 0 17 -17.5t30.5 -50
t31 -78t19.5 -102.5zM401 2139q-11 -33 -34.5 -74t-63 -80.5t-95 -73.5t-128.5 -53q-8 0 -24.5 5.5t-35.5 14t-37 17.5t-28 16l1 -1q-8 5 -10 8.5t0 6.5q2 4 6 6l60 22q68 20 124.5 44t98.5 50q-67 17 -110 52.5t-45 95.5q-2 42 15 79.5t44 65.5t61.5 44.5t68.5 15.5
q35 -1 64.5 -22t48.5 -56t25 -82.5t-6 -100.5zM151 2258q0 -12 10 -30t31 -34t54.5 -27t81.5 -9q-1 19 -4.5 36.5t-12 33.5t-23 29t-37.5 23q-17 7 -35 7t-32.5 -4.5t-23.5 -11.5t-9 -12v-1z" />
    <glyph glyph-name="uniFC62" unicode="&#xfc62;" arabic-form="isolated" 
d="M446 1647q4 -61 -7.5 -102t-32.5 -66.5t-47 -37t-49 -13.5q-45 -6 -70 3.5t-45 32.5q-20 -37 -50.5 -50t-65.5 -13q-55 0 -85.5 22.5t-44 56.5t-14 73t5 73.5t12 58.5t7.5 26q6 22 19 30.5t25.5 6t21.5 -14.5t7 -30q0 -5 -2 -25.5t1 -43t12.5 -40.5t32.5 -18
q24 -1 36.5 7.5t18.5 24.5t7.5 39t3.5 51q0 6 1 14t5 15t11.5 12t19.5 5q20 1 30.5 -14.5t13.5 -30.5q3 -20 5 -39t7.5 -34t17 -23.5t35.5 -6.5q6 1 14 3t15.5 6t12.5 10.5t4 15.5q0 8 -8.5 25t-19.5 35.5t-21 34.5t-14 23l36 72q14 27 26 50t14 24q3 0 17 -17.5t30.5 -50
t31 -78t19.5 -102.5zM390 1276l-391 -168v135l391 161v-128z" />
    <glyph glyph-name="uniFC63" unicode="&#xfc63;" arabic-form="isolated" 
d="M433 1972q4 -61 -7.5 -102t-32.5 -66.5t-47 -37t-49 -13.5q-45 -6 -70 3.5t-45 32.5q-20 -37 -50.5 -50t-65.5 -13q-55 0 -85.5 22.5t-44 56.5t-14 73t5 73.5t12 58.5t7.5 26q6 22 19 30.5t25.5 6t21.5 -14.5t7 -30q0 -5 -2 -25.5t1 -43t12.5 -40.5t32.5 -18
q24 -1 36.5 7.5t18.5 24.5t7.5 39t3.5 51q0 6 1 14t5 15t11.5 12t19.5 5q20 1 30.5 -14.5t13.5 -30.5q3 -20 5 -39t7.5 -34t17 -23.5t35.5 -6.5q6 1 14 3t15.5 6t12.5 10.5t4 15.5q0 8 -8.5 25t-19.5 35.5t-21 34.5t-14 23l36 72q14 27 26 50t14 24q3 0 17 -17.5t30.5 -50
t31 -78t19.5 -102.5zM123 2150q-5 -5 -8 -3.5t-3 3.5q2 69 -2.5 140t-12 132.5t-16.5 107t-15 61.5q18 9 34.5 16t31.5 14q26 11 48.5 20t29.5 7q4 -1 6 -8v-5q1 -28 2.5 -73t0.5 -99t-7 -112.5t-19 -113.5q-4 -13 -12.5 -26t-18.5 -24.5t-20.5 -21t-18.5 -15.5z" />
    <glyph glyph-name="uni0672.fina" unicode="&#x672;" horiz-adv-x="670" 
d="M694 478v-478h-87q-95 0 -174 24.5t-138.5 79t-96.5 142t-48 213.5q-4 48 -9.5 118t-11.5 152.5t-12 172.5t-12 178t-11.5 168.5t-10.5 145t-8.5 107t-5.5 53.5q7 8 34 27.5t63.5 45t79.5 55t83.5 57t74.5 50.5t52 36q6 4 15 8t17.5 3.5t13.5 -7.5t3 -23q0 -2 -0.5 -50
t-0.5 -126v-177v-202v-550q0 -115 49 -169.5t141 -54.5v1zM-79 2000q28 58 58.5 85t76.5 31q30 3 54 -3.5t44.5 -15t40 -16t41.5 -5.5q-16 11 -26 37.5t-9 53.5q0 21 19.5 50.5t50.5 55.5t69 44.5t76 18.5q17 0 35.5 -4.5t36.5 -16t33.5 -30t27.5 -46.5q16 -33 3.5 -44.5
t-39.5 5.5q-8 5 -32 13.5t-56 9.5q-9 0 -26 -3.5t-34.5 -11.5t-31.5 -20.5t-17 -30.5q-2 -17 11 -34t36.5 -29.5t54 -18.5t62.5 -1q34 5 52 10.5t27 9.5q5 2 6.5 -0.5t0.5 -5.5l-27 -149q-15 -16 -52 -28.5t-82.5 -19t-92.5 -7t-81 7.5q-43 10 -65 18.5t-38 16t-31.5 12.5
t-44.5 7q-26 2 -46.5 -8.5t-37 -23t-30 -22t-23.5 -6.5t-13 15t-1.5 28.5t7 35t13.5 35.5z" />
    <glyph glyph-name="uni0673.fina" unicode="&#x673;" horiz-adv-x="622" 
d="M634 478v-478h-74q-95 0 -174 24.5t-138.5 79t-96.5 142t-48 213.5q-4 48 -9.5 121.5t-11.5 161.5t-12 185.5t-12 193t-11.5 184t-10.5 158.5t-8.5 116t-5.5 57q7 8 34 27.5t63.5 45t79.5 55t83.5 57t74.5 50.5t52 36q6 4 15 8t17.5 3.5t13.5 -7.5t3 -23q0 -2 -0.5 -53.5
t-0.5 -135v-190v-217.5v-591q0 -115 42.5 -169.5t134.5 -54.5v1zM39 -396q28 58 58.5 85t76.5 31q30 3 54 -3.5t44.5 -15t40 -16t41.5 -5.5q-16 11 -26 37.5t-9 53.5q0 21 19.5 50.5t50.5 55.5t69 44.5t76 18.5q17 0 35.5 -4.5t36.5 -16t33.5 -30t27.5 -46.5
q16 -33 3.5 -44.5t-39.5 5.5q-8 5 -32 13.5t-56 9.5q-9 0 -26 -3.5t-34.5 -11.5t-31.5 -20.5t-17 -30.5q-2 -17 11 -34t36.5 -29.5t54 -18.5t62.5 -1q34 5 52 10.5t27 9.5q5 2 6.5 -0.5t0.5 -5.5l-27 -149q-15 -16 -52 -28.5t-82.5 -19t-92.5 -7t-81 7.5q-43 10 -65 18.5
t-38 16t-31.5 12.5t-44.5 7q-26 2 -46.5 -8.5t-37 -23t-30 -22t-23.5 -6.5t-13 15t-1.5 28.5t7 35t13.5 35.5z" />
    <glyph glyph-name="uni0675.fina" unicode="&#x675;" horiz-adv-x="657" 
d="M674 478v-478h-87q-95 0 -174 24.5t-138.5 79t-96.5 142t-48 213.5q-4 48 -9.5 118t-11.5 152.5t-12 172.5t-12 178t-11.5 168.5t-10.5 145t-8.5 107t-5.5 53.5q7 8 34 27.5t63.5 45t79.5 55t83.5 57t74.5 50.5t52 36q6 4 15 8t17.5 3.5t13.5 -7.5t3 -23q0 -2 -0.5 -50
t-0.5 -126v-177v-202v-550q0 -115 49 -169.5t141 -54.5v1zM600 1607q19 15 35 26q14 10 25 19t13 11q-23 9 -40 26.5t-29 39t-18.5 45.5t-7.5 46q4 28 22 64t46 68.5t64 57t77 30.5q18 1 40 -3t45 -17t46 -36t43 -59q8 -16 1 -28.5t-27 -5.5q-4 2 -14 6.5t-25 8.5t-34.5 6
t-41.5 0q-47 -5 -77 -28t-31 -57q7 -24 33 -36.5t58.5 -17.5t64.5 -3t53 7q19 5 38.5 8t29.5 7q2 2 7.5 1t3.5 -6q1 -35 1 -63v-46t-1 -27q-55 -7 -115 -24t-117 -43.5t-107 -63t-85 -83.5z" />
    <glyph glyph-name="uni0676.fina" unicode="&#x676;" horiz-adv-x="890" 
d="M903 0l-84 1q-36 -232 -117 -390.5t-197 -246.5q-22 -17 -39.5 -26t-35 -12.5t-36.5 -1.5t-43 9q-45 11 -95.5 26t-97 29.5t-86 28t-61.5 21.5q-42 12 -58 34t-12 46t26 46t57 35q90 38 177.5 80.5t164 91.5t136.5 105.5t95 123.5h-145q-88 0 -152 25t-108 67t-70 97
t-38 115t-12.5 121t7.5 116q13 106 40.5 184t64 133t79 89t85 52.5t82.5 23t72 0.5q57 -8 101.5 -36.5t79.5 -71.5t60.5 -97t43.5 -112t29 -117t18 -112h69v-477zM564 476q35 0 68 1q-3 16 -9 35t-13.5 37.5t-15.5 34.5t-15 27q-11 17 -26.5 33.5t-35 29.5t-42.5 21.5
t-50 9.5q-26 1 -53.5 -3.5t-51 -17t-41.5 -35t-24 -56.5q-5 -25 0 -46.5t23.5 -37t53.5 -24.5t90 -9h142zM836 976q19 15 35 26q14 10 25 19t13 11q-23 9 -40 26.5t-29 39t-18.5 45.5t-7.5 46q4 28 22 64t46 68.5t64 57t77 30.5q18 1 40 -3t45 -17t46 -36t43 -59
q8 -16 1 -28.5t-27 -5.5q-4 2 -14 6.5t-25 8.5t-34.5 6t-41.5 0q-47 -5 -77 -28t-31 -57q7 -24 33 -36.5t58.5 -17.5t64.5 -3t53 7q19 5 38.5 8t29.5 7q2 2 7.5 1t3.5 -6q1 -35 1 -63v-46t-1 -27q-55 -7 -115 -24t-117 -43.5t-107 -63t-85 -83.5z" />
    <glyph glyph-name="uni0677.fina" unicode="&#x677;" horiz-adv-x="924" 
d="M934 0l-84 1q-36 -232 -117 -390.5t-197 -246.5q-22 -17 -39.5 -26t-35 -12.5t-36.5 -1.5t-43 9q-45 11 -95.5 26t-97 29.5t-86 28t-61.5 21.5q-42 12 -58 34t-12 46t26 46t57 35q90 38 177.5 80.5t164 91.5t136.5 105.5t95 123.5h-145q-88 0 -152 25t-108 67t-70 97
t-38 115t-12.5 121t7.5 116q13 106 40.5 184t64 133t79 89t85 52.5t82.5 23t72 0.5q57 -8 101.5 -36.5t79.5 -71.5t60.5 -97t43.5 -112t29 -117t18 -112h69v-477zM595 476q35 0 68 1q-3 16 -9 35t-13.5 37.5t-15.5 34.5t-15 27q-11 17 -26.5 33.5t-35 29.5t-42.5 21.5
t-50 9.5q-26 1 -53.5 -3.5t-51 -17t-41.5 -35t-24 -56.5q-5 -25 0 -46.5t23.5 -37t53.5 -24.5t90 -9h142zM439 1261q-11 -33 -34.5 -74t-63 -80.5t-95 -73.5t-128.5 -53q-8 0 -24.5 5.5t-35.5 14t-37 17.5t-28 16l1 -1q-8 5 -10 8.5t0 6.5q2 4 6 6l60 22q68 20 124.5 44
t98.5 50q-67 17 -110 52.5t-45 95.5q-2 42 15 79.5t44 65.5t61.5 44.5t68.5 15.5q35 -1 64.5 -22t48.5 -56t25 -82.5t-6 -100.5zM189 1380q0 -12 10 -30t31 -34t54.5 -27t81.5 -9q-1 19 -4.5 36.5t-12 33.5t-23 29t-37.5 23q-17 7 -35 7t-32.5 -4.5t-23.5 -11.5t-9 -12v-1z
M756 1128q19 15 35 26q14 10 25 19t13 11q-23 9 -40 26.5t-29 39t-18.5 45.5t-7.5 46q4 28 22 64t46 68.5t64 57t77 30.5q18 1 40 -3t45 -17t46 -36t43 -59q8 -16 1 -28.5t-27 -5.5q-4 2 -14 6.5t-25 8.5t-34.5 6t-41.5 0q-47 -5 -77 -28t-31 -57q7 -24 33 -36.5t58.5 -17.5
t64.5 -3t53 7q19 5 38.5 8t29.5 7q2 2 7.5 1t3.5 -6q1 -35 1 -63v-46t-1 -27q-55 -7 -115 -24t-117 -43.5t-107 -63t-85 -83.5z" />
    <glyph glyph-name="uni0678.fina" unicode="&#x678;" horiz-adv-x="1613" 
d="M1619 1h-71q3 -6 6.5 -20.5t5.5 -34t3 -41.5t-1 -43q-10 -137 -67 -237.5t-153 -166.5t-227 -98t-287 -32q-89 0 -177 11.5t-169 37t-152 66.5t-126.5 100.5t-92.5 139t-49.5 181.5t3 227.5t63.5 278.5q7 22 18.5 58t26.5 76t33.5 80t38 71.5t40.5 50t42 15.5
q23 -4 32.5 -23t9.5 -48.5t-7 -67t-17.5 -79t-22 -84.5t-20.5 -82q-15 -70 -21 -137.5t4.5 -128t43 -111t95.5 -86.5t160.5 -55.5t238.5 -17.5q73 -2 142.5 5.5t130.5 21t110 31.5t80.5 38t43.5 40.5t-2 37.5q-45 57 -136 107.5t-222 100.5l169 354q77 -23 135 -35
t110.5 -17.5t107.5 -6.5t127 -1v-476zM704 634q19 15 35 26q14 10 25 19t13 11q-23 9 -40 26.5t-29 39t-18.5 45.5t-7.5 46q4 28 22 64t46 68.5t64 57t77 30.5q18 1 40 -3t45 -17t46 -36t43 -59q8 -16 1 -28.5t-27 -5.5q-4 2 -14 6.5t-25 8.5t-34.5 6t-41.5 0
q-47 -5 -77 -28t-31 -57q7 -24 33 -36.5t58.5 -17.5t64.5 -3t53 7q19 5 38.5 8t29.5 7q2 2 7.5 1t3.5 -6q1 -35 1 -63v-46t-1 -27q-55 -7 -115 -24t-117 -43.5t-107 -63t-85 -83.5z" />
    <glyph glyph-name="uni067A.init" unicode="&#x67a;" horiz-adv-x="699" arabic-form="initial" 
d="M512 1123q33 -47 62 -110.5t50 -136t33 -152t12 -158.5q0 -160 -25 -268.5t-88 -174.5t-170 -94.5t-272 -28.5q-24 1 -46 1h-38t-31 -1q-15 -2 -24.5 5.5t-15 20t-7.5 27.5t-2 30v310q0 48 11.5 66t39.5 18h210q44 1 80 1t61.5 3.5t41 12t19.5 25.5q3 11 -4.5 31
t-21.5 45t-32 52.5t-36.5 53.5t-35.5 48.5t-29 37.5q-10 15 -6 33.5t10 27.5q18 25 51.5 66t69.5 83.5t68.5 78t47.5 49.5q7 7 11 3.5t6 -5.5zM331 1339l-150 149l132 131l-132 133l151 150l151 -150l-131 -131l131 -133z" />
    <glyph glyph-name="uni067A.medi" unicode="&#x67a;" horiz-adv-x="708" arabic-form="medial" 
d="M716 1h-55q-85 0 -146.5 43t-92.5 120q-32 -46 -74.5 -77.5t-90.5 -50.5t-100 -27t-103 -8h-40q-20 0 -31.5 9t-17.5 24.5t-7.5 35t-1.5 40.5q0 41 0.5 73t0.5 61.5v60t-1 68.5q-2 58 11.5 81t33.5 23h42q57 0 102 2.5t75 15t43.5 38.5t7.5 73q-5 35 -9.5 67t-8.5 58
q-4 30 -9 57q52 32 99 59q20 12 40 23t38.5 21t33.5 17t25 10q5 1 9 -19.5t8.5 -60t9.5 -97t12 -129.5q3 -33 10 -58t22 -42t41.5 -26t68.5 -9h55v-476zM346 1126l-150 149l132 131l-132 133l151 150l151 -150l-131 -131l131 -133z" />
    <glyph glyph-name="uni067A.fina" unicode="&#x67a;" horiz-adv-x="1929" arabic-form="final" 
d="M1932 1q-56 0 -99 14t-75.5 38t-54 56t-33.5 68q-64 -61 -137 -103t-166.5 -68.5t-213.5 -40t-279 -17.5q-251 -6 -431.5 52t-283 173.5t-122 286t52.5 390.5q2 7 6 19t9 24t9.5 23t6.5 16q13 34 35 46.5t41.5 7.5t31 -27.5t4.5 -59.5l-12 -76q-13 -79 5.5 -140.5
t62.5 -107.5t110.5 -77t149.5 -49.5t180 -25t202 -2.5q139 5 246.5 12.5t189.5 20t142 32t104 48.5t75 69.5t55 95.5q27 62 58 85.5t55 16t36 -41t1 -85.5q-5 -23 -11 -49.5t-11 -50.5l-12 -56q4 -11 14 -20q8 -8 22 -14t37 -6v-477zM937 792l-150 149l132 131l-132 133
l151 150l151 -150l-131 -131l131 -133z" />
    <glyph glyph-name="uni067B.init" unicode="&#x67b;" horiz-adv-x="542" arabic-form="initial" 
d="M365 1123q33 -47 62 -110.5t50 -136t33 -152t12 -158.5q0 -160 -25 -268.5t-88 -174.5t-170 -94.5t-272 -28.5q11 1 16 1h5l-12 -1q-15 -2 -24.5 5.5t-15 20t-7.5 27.5t-2 30v310q0 48 11.5 66t39.5 18h86q44 1 80 1t61.5 3.5t41 12t19.5 25.5q3 11 -4.5 31t-21.5 45
t-32 52.5t-36.5 53.5t-35.5 48.5t-29 37.5q-10 15 -6 33.5t10 27.5q18 25 51.5 66t69.5 83.5t68.5 78t47.5 49.5q7 7 11 3.5t6 -5.5zM171 -773l-150 149l132 131l-132 133l151 150l151 -150l-131 -131l131 -133z" />
    <glyph glyph-name="uni067B.medi" unicode="&#x67b;" horiz-adv-x="622" arabic-form="medial" 
d="M628 1h-19q-85 0 -146.5 43t-92.5 120q-32 -46 -74.5 -77.5t-90.5 -50.5t-100 -27t-103 -8h15q-20 0 -31.5 9t-17.5 24.5t-7.5 35t-1.5 40.5q0 41 0.5 73t0.5 61.5v60t-1 68.5q-2 58 11.5 81t33.5 23h-13q57 0 102 2.5t75 15t43.5 38.5t7.5 73q-5 35 -9.5 67t-8.5 58
q-4 30 -9 57q52 32 99 59q20 12 40 23t38.5 21t33.5 17t25 10q5 1 9 -19.5t8.5 -60t9.5 -97t12 -129.5q3 -33 10 -58t22 -42t41.5 -26t68.5 -9h19v-476zM315 -768l-150 149l132 131l-132 133l151 150l151 -150l-131 -131l131 -133z" />
    <glyph glyph-name="uni067B.fina" unicode="&#x67b;" horiz-adv-x="1900" arabic-form="final" 
d="M1908 1q-56 0 -99 14t-75.5 38t-54 56t-33.5 68q-64 -61 -137 -103t-166.5 -68.5t-213.5 -40t-279 -17.5q-251 -6 -431.5 52t-283 173.5t-122 286t52.5 390.5q2 7 6 19t9 24t9.5 23t6.5 16q13 34 35 46.5t41.5 7.5t31 -27.5t4.5 -59.5l-12 -76q-13 -79 5.5 -140.5
t62.5 -107.5t110.5 -77t149.5 -49.5t180 -25t202 -2.5q139 5 246.5 12.5t189.5 20t142 32t104 48.5t75 69.5t55 95.5q27 62 58 85.5t55 16t36 -41t1 -85.5q-5 -23 -11 -49.5t-11 -50.5l-12 -56q4 -11 14 -20q8 -8 22 -14t37 -6v-477zM863 -761l-150 149l132 131l-132 133
l151 150l151 -150l-131 -131l131 -133z" />
    <glyph glyph-name="uni067C.init" unicode="&#x67c;" horiz-adv-x="646" 
d="M387 1123q33 -47 62 -110.5t50 -136t33 -152t12 -158.5q0 -160 -25 -268.5t-88 -174.5t-170 -94.5t-272 -28.5q11 1 16 1h5l-12 -1q-15 -2 -24.5 5.5t-15 20t-7.5 27.5t-2 30v310q0 48 11.5 66t39.5 18h86q44 1 80 1t61.5 3.5t41 12t19.5 25.5q3 11 -4.5 31t-21.5 45
t-32 52.5t-36.5 53.5t-35.5 48.5t-29 37.5q-10 15 -6 33.5t10 27.5q18 25 51.5 66t69.5 83.5t68.5 78t47.5 49.5q7 7 11 3.5t6 -5.5zM332 158q25 0 57.5 -11.5t60.5 -38.5t47.5 -72.5t19.5 -112.5q0 -54 -21 -92t-51 -61t-62 -33.5t-54 -10.5q-43 0 -75.5 16.5t-54.5 44
t-33 64t-11 75.5q0 63 18.5 107t46 71.5t58 40.5t54.5 13zM333 -134q22 0 40.5 7t32 16.5t21 19.5t7.5 16q0 4 -7 18.5t-21.5 30.5t-37 28.5t-52.5 12.5q-11 0 -24.5 -4.5t-25 -13.5t-19.5 -22t-8 -31q0 -13 5 -27t16.5 -25t29 -18.5t43.5 -7.5zM639 1560l-179 -180
l-158 157l-159 -157l-180 181l179 181l158 -157l159 157z" />
    <glyph glyph-name="uni067C.medi" unicode="&#x67c;" horiz-adv-x="713" 
d="M716 1h-55q-85 0 -146.5 43t-92.5 120q-32 -46 -74.5 -77.5t-90.5 -50.5t-100 -27t-103 -8h-40q-20 0 -31.5 9t-17.5 24.5t-7.5 35t-1.5 40.5q0 41 0.5 73t0.5 61.5v60t-1 68.5q-2 58 11.5 81t33.5 23h42q57 0 102 2.5t75 15t43.5 38.5t7.5 73q-5 35 -9.5 67t-8.5 58
q-4 30 -9 57q52 32 99 59q20 12 40 23t38.5 21t33.5 17t25 10q5 1 9 -19.5t8.5 -60t9.5 -97t12 -129.5q3 -33 10 -58t22 -42t41.5 -26t68.5 -9h55v-476zM697 1353l-179 -180l-158 157l-159 -157l-180 181l179 181l158 -157l159 157zM319 172q25 0 57.5 -11.5t60.5 -38.5
t47.5 -72.5t19.5 -112.5q0 -54 -21 -92t-51 -61t-62 -33.5t-54 -10.5q-43 0 -75.5 16.5t-54.5 44t-33 64t-11 75.5q0 63 18.5 107t46 71.5t58 40.5t54.5 13zM320 -120q22 0 40.5 7t32 16.5t21 19.5t7.5 16q0 4 -7 18.5t-21.5 30.5t-37 28.5t-52.5 12.5q-11 0 -24.5 -4.5
t-25 -13.5t-19.5 -22t-8 -31q0 -13 5 -27t16.5 -25t29 -18.5t43.5 -7.5z" />
    <glyph glyph-name="uni067C.fina" unicode="&#x67c;" horiz-adv-x="1895" 
d="M1902 1q-56 0 -99 14t-75.5 38t-54 56t-33.5 68q-64 -61 -137 -103t-166.5 -68.5t-213.5 -40t-279 -17.5q-251 -6 -431.5 52t-283 173.5t-122 286t52.5 390.5q2 7 6 19t9 24t9.5 23t6.5 16q13 34 35 46.5t41.5 7.5t31 -27.5t4.5 -59.5l-12 -76q-13 -79 5.5 -140.5
t62.5 -107.5t110.5 -77t149.5 -49.5t180 -25t202 -2.5q139 5 246.5 12.5t189.5 20t142 32t104 48.5t75 69.5t55 95.5q27 62 58 85.5t55 16t36 -41t1 -85.5q-5 -23 -11 -49.5t-11 -50.5l-12 -56q4 -11 14 -20q8 -8 22 -14t37 -6v-477zM1299 987l-179 -180l-158 157l-159 -157
l-180 181l179 181l158 -157l159 157zM1034 76q25 0 57.5 -11.5t60.5 -38.5t47.5 -72.5t19.5 -112.5q0 -54 -21 -92t-51 -61t-62 -33.5t-54 -10.5q-43 0 -75.5 16.5t-54.5 44t-33 64t-11 75.5q0 63 18.5 107t46 71.5t58 40.5t54.5 13zM1035 -216q22 0 40.5 7t32 16.5t21 19.5
t7.5 16q0 4 -7 18.5t-21.5 30.5t-37 28.5t-52.5 12.5q-11 0 -24.5 -4.5t-25 -13.5t-19.5 -22t-8 -31q0 -13 5 -27t16.5 -25t29 -18.5t43.5 -7.5z" />
    <glyph glyph-name="uni067D.init" unicode="&#x67d;" horiz-adv-x="699" 
d="M512 1123q33 -47 62 -110.5t50 -136t33 -152t12 -158.5q0 -160 -25 -268.5t-88 -174.5t-170 -94.5t-272 -28.5q-24 1 -46 1h-38t-31 -1q-15 -2 -24.5 5.5t-15 20t-7.5 27.5t-2 30v310q0 48 11.5 66t39.5 18h210q44 1 80 1t61.5 3.5t41 12t19.5 25.5q3 11 -4.5 31
t-21.5 45t-32 52.5t-36.5 53.5t-35.5 48.5t-29 37.5q-10 15 -6 33.5t10 27.5q18 25 51.5 66t69.5 83.5t68.5 78t47.5 49.5q7 7 11 3.5t6 -5.5zM180 1537l-180 182l182 183l160 -158l160 158l181 -181l-182 -184l-160 159zM343 1624l168 -168l-169 -171l-170 169z" />
    <glyph glyph-name="uni067D.medi" unicode="&#x67d;" horiz-adv-x="713" 
d="M716 1h-55q-85 0 -146.5 43t-92.5 120q-32 -46 -74.5 -77.5t-90.5 -50.5t-100 -27t-103 -8h-40q-20 0 -31.5 9t-17.5 24.5t-7.5 35t-1.5 40.5q0 41 0.5 73t0.5 61.5v60t-1 68.5q-2 58 11.5 81t33.5 23h42q57 0 102 2.5t75 15t43.5 38.5t7.5 73q-5 35 -9.5 67t-8.5 58
q-4 30 -9 57q52 32 99 59q20 12 40 23t38.5 21t33.5 17t25 10q5 1 9 -19.5t8.5 -60t9.5 -97t12 -129.5q3 -33 10 -58t22 -42t41.5 -26t68.5 -9h55v-476zM194 1365l-180 182l182 183l160 -158l160 158l181 -181l-182 -184l-160 159zM357 1452l168 -168l-169 -171l-170 169z
" />
    <glyph glyph-name="uni067D.fina" unicode="&#x67d;" horiz-adv-x="1886" 
d="M1892 1q-56 0 -99 14t-75.5 38t-54 56t-33.5 68q-64 -61 -137 -103t-166.5 -68.5t-213.5 -40t-279 -17.5q-251 -6 -431.5 52t-283 173.5t-122 286t52.5 390.5q2 7 6 19t9 24t9.5 23t6.5 16q13 34 35 46.5t41.5 7.5t31 -27.5t4.5 -59.5l-12 -76q-13 -79 5.5 -140.5
t62.5 -107.5t110.5 -77t149.5 -49.5t180 -25t202 -2.5q139 5 246.5 12.5t189.5 20t142 32t104 48.5t75 69.5t55 95.5q27 62 58 85.5t55 16t36 -41t1 -85.5q-5 -23 -11 -49.5t-11 -50.5l-12 -56q4 -11 14 -20q8 -8 22 -14t37 -6v-477zM783 1028l-180 182l182 183l160 -158
l160 158l181 -181l-182 -184l-160 159zM946 1115l168 -168l-169 -171l-170 169z" />
    <glyph glyph-name="uni067F.init" unicode="&#x67f;" horiz-adv-x="704" arabic-form="initial" 
d="M512 1123q33 -47 62 -110.5t50 -136t33 -152t12 -158.5q0 -160 -25 -268.5t-88 -174.5t-170 -94.5t-272 -28.5q-24 1 -46 1h-38t-31 -1q-15 -2 -24.5 5.5t-15 20t-7.5 27.5t-2 30v310q0 48 11.5 66t39.5 18h210q44 1 80 1t61.5 3.5t41 12t19.5 25.5q3 11 -4.5 31
t-21.5 45t-32 52.5t-36.5 53.5t-35.5 48.5t-29 37.5q-10 15 -6 33.5t10 27.5q18 25 51.5 66t69.5 83.5t68.5 78t47.5 49.5q7 7 11 3.5t6 -5.5zM621 1414l-148 -150l-132 132l-132 -132l-151 151l150 150l131 -131l133 131zM609 1759l-149 -150l-131 132l-133 -132l-150 151
l149 150l132 -130l132 130z" />
    <glyph glyph-name="uni067F.medi" unicode="&#x67f;" horiz-adv-x="713" arabic-form="medial" 
d="M716 1h-55q-85 0 -146.5 43t-92.5 120q-32 -46 -74.5 -77.5t-90.5 -50.5t-100 -27t-103 -8h-40q-20 0 -31.5 9t-17.5 24.5t-7.5 35t-1.5 40.5q0 41 0.5 73t0.5 61.5v60t-1 68.5q-2 58 11.5 81t33.5 23h42q57 0 102 2.5t75 15t43.5 38.5t7.5 73q-5 35 -9.5 67t-8.5 58
q-4 30 -9 57q52 32 99 59q20 12 40 23t38.5 21t33.5 17t25 10q5 1 9 -19.5t8.5 -60t9.5 -97t12 -129.5q3 -33 10 -58t22 -42t41.5 -26t68.5 -9h55v-476zM639 1271l-148 -150l-132 132l-132 -132l-151 151l150 150l131 -131l133 131zM627 1616l-149 -150l-131 132l-133 -132
l-150 151l149 150l132 -130l132 130z" />
    <glyph glyph-name="uni067F.fina" unicode="&#x67f;" horiz-adv-x="1910" arabic-form="final" 
d="M1913 1q-56 0 -99 14t-75.5 38t-54 56t-33.5 68q-64 -61 -137 -103t-166.5 -68.5t-213.5 -40t-279 -17.5q-251 -6 -431.5 52t-283 173.5t-122 286t52.5 390.5q2 7 6 19t9 24t9.5 23t6.5 16q13 34 35 46.5t41.5 7.5t31 -27.5t4.5 -59.5l-12 -76q-13 -79 5.5 -140.5
t62.5 -107.5t110.5 -77t149.5 -49.5t180 -25t202 -2.5q139 5 246.5 12.5t189.5 20t142 32t104 48.5t75 69.5t55 95.5q27 62 58 85.5t55 16t36 -41t1 -85.5q-5 -23 -11 -49.5t-11 -50.5l-12 -56q4 -11 14 -20q8 -8 22 -14t37 -6v-477zM1222 936l-148 -150l-132 132l-132 -132
l-151 151l150 150l131 -131l133 131zM1210 1281l-149 -150l-131 132l-133 -132l-150 151l149 150l132 -130l132 130z" />
    <glyph glyph-name="uni0680.init" unicode="&#x680;" horiz-adv-x="699" arabic-form="initial" 
d="M514 1123q33 -47 62 -110.5t50 -136t33 -152t12 -158.5q0 -160 -25 -268.5t-88 -174.5t-170 -94.5t-272 -28.5q-24 1 -46 1h-38t-31 -1q-15 -2 -24.5 5.5t-15 20t-7.5 27.5t-2 30v310q0 48 11.5 66t39.5 18h210q44 1 80 1t61.5 3.5t41 12t19.5 25.5q3 11 -4.5 31
t-21.5 45t-32 52.5t-36.5 53.5t-35.5 48.5t-29 37.5q-10 15 -6 33.5t10 27.5q18 25 51.5 66t69.5 83.5t68.5 78t47.5 49.5q7 7 11 3.5t6 -5.5zM609 -643l-148 -150l-132 132l-132 -132l-151 151l150 150l131 -131l133 131zM597 -298l-149 -150l-131 132l-133 -132l-150 151
l149 150l132 -130l132 130z" />
    <glyph glyph-name="uni0680.medi" unicode="&#x680;" horiz-adv-x="737" arabic-form="medial" 
d="M742 1h-55q-85 0 -146.5 43t-92.5 120q-32 -46 -74.5 -77.5t-90.5 -50.5t-100 -27t-103 -8h-40q-20 0 -31.5 9t-17.5 24.5t-7.5 35t-1.5 40.5q0 41 0.5 73t0.5 61.5v60t-1 68.5q-2 58 11.5 81t33.5 23h42q57 0 102 2.5t75 15t43.5 38.5t7.5 73q-5 35 -9.5 67t-8.5 58
q-4 30 -9 57q52 32 99 59q20 12 40 23t38.5 21t33.5 17t25 10q5 1 9 -19.5t8.5 -60t9.5 -97t12 -129.5q3 -33 10 -58t22 -42t41.5 -26t68.5 -9h55v-476zM664 -621l-148 -150l-132 132l-132 -132l-151 151l150 150l131 -131l133 131zM652 -276l-149 -150l-131 132l-133 -132
l-150 151l149 150l132 -130l132 130z" />
    <glyph glyph-name="uni0680.fina" unicode="&#x680;" horiz-adv-x="1905" arabic-form="final" 
d="M1910 1q-56 0 -99 14t-75.5 38t-54 56t-33.5 68q-64 -61 -137 -103t-166.5 -68.5t-213.5 -40t-279 -17.5q-251 -6 -431.5 52t-283 173.5t-122 286t52.5 390.5q2 7 6 19t9 24t9.5 23t6.5 16q13 34 35 46.5t41.5 7.5t31 -27.5t4.5 -59.5l-12 -76q-13 -79 5.5 -140.5
t62.5 -107.5t110.5 -77t149.5 -49.5t180 -25t202 -2.5q139 5 246.5 12.5t189.5 20t142 32t104 48.5t75 69.5t55 95.5q27 62 58 85.5t55 16t36 -41t1 -85.5q-5 -23 -11 -49.5t-11 -50.5l-12 -56q4 -11 14 -20q8 -8 22 -14t37 -6v-477zM1225 -696l-148 -150l-132 132
l-132 -132l-151 151l150 150l131 -131l133 131zM1213 -351l-149 -150l-131 132l-133 -132l-150 151l149 150l132 -130l132 130z" />
    <glyph glyph-name="uni0681.init" unicode="&#x681;" horiz-adv-x="1430" 
d="M1329 835q25 -2 38.5 -7.5t19 -13.5t4.5 -17.5t-5 -19.5l-138 -388q-88 -12 -168 -46t-161 -77.5t-166.5 -91t-184.5 -86.5t-215 -64t-257 -23q-23 0 -41 1t-39 -1q-42 -3 -54 19t-12 64v317q0 27 3.5 42t9.5 22.5t15.5 10t21.5 2.5q21 1 45.5 0.5t51.5 -1.5
q56 1 122 2.5t136 5.5t141.5 11t138 19.5t125.5 31t105 45.5q-54 22 -117 46.5t-124.5 46t-117.5 38.5t-97 25q-37 8 -73 -5.5t-66 -34.5t-51.5 -42.5t-30.5 -29.5q-21 -24 -42.5 -32t-36 1t-18.5 36t10 72q33 111 71.5 185t81 118t90 62t98.5 18q53 0 111.5 -16.5
t124 -42.5t138 -57t153.5 -60t171 -52.5t189 -32.5zM259 1387q19 15 35 26q14 10 25 19t13 11q-23 9 -40 26.5t-29 39t-18.5 45.5t-7.5 46q4 28 22 64t46 68.5t64 57t77 30.5q18 1 40 -3t45 -17t46 -36t43 -59q8 -16 1 -28.5t-27 -5.5q-4 2 -14 6.5t-25 8.5t-34.5 6t-41.5 0
q-47 -5 -77 -28t-31 -57q7 -24 33 -36.5t58.5 -17.5t64.5 -3t53 7q19 5 38.5 8t29.5 7q2 2 7.5 1t3.5 -6q1 -35 1 -63v-46t-1 -27q-55 -7 -115 -24t-117 -43.5t-107 -63t-85 -83.5z" />
    <glyph glyph-name="uni0681.medi" unicode="&#x681;" horiz-adv-x="1431" 
d="M1284 479q-10 -1 -9 -1.5t9.5 -0.5h23h31.5h96l-1 -477h-97q-56 -1 -112.5 14.5t-105.5 52t-86 96.5t-52 150q-51 -24 -107 -57t-121 -68t-142 -69t-170 -60.5t-204 -43t-245 -15.5q-13 0 -22.5 3t-15.5 12t-9 25.5t-2 43.5v49v74v86.5v86.5q0 33 2 52.5t7.5 29
t15.5 12.5t26 3q187 -1 353 10q71 5 144.5 13t141 20.5t124 29.5t94.5 41q-51 20 -103 41t-101.5 39.5t-95.5 34t-85 24.5q-24 5 -53 12.5t-63.5 4.5t-74 -23t-82.5 -69q-32 -36 -57 -48t-40.5 -3.5t-18.5 36.5t10 72q26 88 57.5 159t72.5 120.5t93 76.5t118 27
q56 0 115 -17t123.5 -43t137.5 -58t156.5 -61t180 -52.5t209.5 -32.5q24 -2 34.5 -9t12 -19t-3.5 -28t-11 -36zM282 1400q19 15 35 26q14 10 25 19t13 11q-23 9 -40 26.5t-29 39t-18.5 45.5t-7.5 46q4 28 22 64t46 68.5t64 57t77 30.5q18 1 40 -3t45 -17t46 -36t43 -59
q8 -16 1 -28.5t-27 -5.5q-4 2 -14 6.5t-25 8.5t-34.5 6t-41.5 0q-47 -5 -77 -28t-31 -57q7 -24 33 -36.5t58.5 -17.5t64.5 -3t53 7q19 5 38.5 8t29.5 7q2 2 7.5 1t3.5 -6q1 -35 1 -63v-46t-1 -27q-55 -7 -115 -24t-117 -43.5t-107 -63t-85 -83.5z" />
    <glyph glyph-name="uni0681.fina" unicode="&#x681;" horiz-adv-x="1503" 
d="M85 688q10 43 26 91t38.5 95t52 89.5t66.5 73t82 46.5t100 10q58 -5 121 -23.5t133 -44t148.5 -55t168 -57t191.5 -50.5t219 -35q28 -5 36 -20t-3 -45l-103 -286h100h62l-2 -477h-104q-101 2 -175 29.5t-123 76.5t-72.5 117t-23.5 152q-176 -17 -311 -61.5t-226.5 -107.5
t-137 -139.5t-42.5 -155.5q3 -57 24.5 -103t57 -82.5t81 -63.5t97 -46.5t105 -31t104.5 -16.5q143 -15 288 -8.5t289 35.5q45 9 80.5 1.5t46.5 -34.5t-8.5 -75.5t-85.5 -121.5q-60 -69 -142.5 -114t-175.5 -69.5t-189.5 -30.5t-184.5 5q-136 17 -239.5 57.5t-178.5 97.5
t-124 127.5t-76.5 147.5t-35.5 156.5t-2 155.5q5 60 23.5 130t54.5 142.5t92 144.5t135 135t183 113t238 80q-58 19 -98.5 32.5t-75.5 23t-69.5 18t-79.5 18.5q-40 10 -84.5 9.5t-82.5 -26.5q-12 -6 -26.5 -17.5t-28.5 -24.5t-26 -25.5t-19 -21.5q-23 -20 -42.5 -26t-32 2
t-17 29t3.5 54zM298 1383q19 15 35 26q14 10 25 19t13 11q-23 9 -40 26.5t-29 39t-18.5 45.5t-7.5 46q4 28 22 64t46 68.5t64 57t77 30.5q18 1 40 -3t45 -17t46 -36t43 -59q8 -16 1 -28.5t-27 -5.5q-4 2 -14 6.5t-25 8.5t-34.5 6t-41.5 0q-47 -5 -77 -28t-31 -57
q7 -24 33 -36.5t58.5 -17.5t64.5 -3t53 7q19 5 38.5 8t29.5 7q2 2 7.5 1t3.5 -6q1 -35 1 -63v-46t-1 -27q-55 -7 -115 -24t-117 -43.5t-107 -63t-85 -83.5z" />
    <glyph glyph-name="uni0682.init" unicode="&#x682;" horiz-adv-x="1417" 
d="M1329 835q25 -2 38.5 -7.5t19 -13.5t4.5 -17.5t-5 -19.5l-138 -388q-88 -12 -168 -46t-161 -77.5t-166.5 -91t-184.5 -86.5t-215 -64t-257 -23q-23 0 -41 1t-39 -1q-42 -3 -54 19t-12 64v317q0 27 3.5 42t9.5 22.5t15.5 10t21.5 2.5q21 1 45.5 0.5t51.5 -1.5
q56 1 122 2.5t136 5.5t141.5 11t138 19.5t125.5 31t105 45.5q-54 22 -117 46.5t-124.5 46t-117.5 38.5t-97 25q-37 8 -73 -5.5t-66 -34.5t-51.5 -42.5t-30.5 -29.5q-21 -24 -42.5 -32t-36 1t-18.5 36t10 72q33 111 71.5 185t81 118t90 62t98.5 18q53 0 111.5 -16.5
t124 -42.5t138 -57t153.5 -60t171 -52.5t189 -32.5zM411 1233l-150 149l132 131l-132 133l151 150l151 -150l-131 -131l131 -133z" />
    <glyph glyph-name="uni0682.medi" unicode="&#x682;" horiz-adv-x="1431" 
d="M1284 479q-10 -1 -9 -1.5t9.5 -0.5h23h31.5h96l-1 -477h-97q-56 -1 -112.5 14.5t-105.5 52t-86 96.5t-52 150q-51 -24 -107 -57t-121 -68t-142 -69t-170 -60.5t-204 -43t-245 -15.5q-13 0 -22.5 3t-15.5 12t-9 25.5t-2 43.5v49v74v86.5v86.5q0 33 2 52.5t7.5 29
t15.5 12.5t26 3q187 -1 353 10q71 5 144.5 13t141 20.5t124 29.5t94.5 41q-51 20 -103 41t-101.5 39.5t-95.5 34t-85 24.5q-24 5 -53 12.5t-63.5 4.5t-74 -23t-82.5 -69q-32 -36 -57 -48t-40.5 -3.5t-18.5 36.5t10 72q26 88 57.5 159t72.5 120.5t93 76.5t118 27
q56 0 115 -17t123.5 -43t137.5 -58t156.5 -61t180 -52.5t209.5 -32.5q24 -2 34.5 -9t12 -19t-3.5 -28t-11 -36zM388 1217l-150 149l132 131l-132 133l151 150l151 -150l-131 -131l131 -133z" />
    <glyph glyph-name="uni0682.fina" unicode="&#x682;" horiz-adv-x="1525" 
d="M109 688q10 43 26 91t38.5 95t52 89.5t66.5 73t82 46.5t100 10q58 -5 121 -23.5t133 -44t148.5 -55t168 -57t191.5 -50.5t219 -35q28 -5 36 -20t-3 -45l-103 -286h100h62l-2 -477h-104q-101 2 -175 29.5t-123 76.5t-72.5 117t-23.5 152q-176 -17 -311 -61.5
t-226.5 -107.5t-137 -139.5t-42.5 -155.5q3 -57 24.5 -103t57 -82.5t81 -63.5t97 -46.5t105 -31t104.5 -16.5q143 -15 288 -8.5t289 35.5q45 9 80.5 1.5t46.5 -34.5t-8.5 -75.5t-85.5 -121.5q-60 -69 -142.5 -114t-175.5 -69.5t-189.5 -30.5t-184.5 5q-136 17 -239.5 57.5
t-178.5 97.5t-124 127.5t-76.5 147.5t-35.5 156.5t-2 155.5q5 60 23.5 130t54.5 142.5t92 144.5t135 135t183 113t238 80q-58 19 -98.5 32.5t-75.5 23t-69.5 18t-79.5 18.5q-40 10 -84.5 9.5t-82.5 -26.5q-12 -6 -26.5 -17.5t-28.5 -24.5t-26 -25.5t-19 -21.5
q-23 -20 -42.5 -26t-32 2t-17 29t3.5 54zM383 1210l-150 149l132 131l-132 133l151 150l151 -150l-131 -131l131 -133z" />
    <glyph glyph-name="uni0683.init" unicode="&#x683;" horiz-adv-x="1436" arabic-form="initial" 
d="M1329 835q25 -2 38.5 -7.5t19 -13.5t4.5 -17.5t-5 -19.5l-138 -388q-88 -12 -168 -46t-161 -77.5t-166.5 -91t-184.5 -86.5t-215 -64t-257 -23q-23 0 -41 1t-39 -1q-42 -3 -54 19t-12 64v317q0 27 3.5 42t9.5 22.5t15.5 10t21.5 2.5q21 1 45.5 0.5t51.5 -1.5
q56 1 122 2.5t136 5.5t141.5 11t138 19.5t125.5 31t105 45.5q-54 22 -117 46.5t-124.5 46t-117.5 38.5t-97 25q-37 8 -73 -5.5t-66 -34.5t-51.5 -42.5t-30.5 -29.5q-21 -24 -42.5 -32t-36 1t-18.5 36t10 72q33 111 71.5 185t81 118t90 62t98.5 18q53 0 111.5 -16.5
t124 -42.5t138 -57t153.5 -60t171 -52.5t189 -32.5zM1067 -515l-179 -180l-158 157l-159 -157l-180 181l179 181l158 -157l159 157z" />
    <glyph glyph-name="uni0683.medi" unicode="&#x683;" horiz-adv-x="1431" arabic-form="medial" 
d="M1284 479q-10 -1 -9 -1.5t9.5 -0.5h23h31.5h96l-1 -477h-97q-56 -1 -112.5 14.5t-105.5 52t-86 96.5t-52 150q-51 -24 -107 -57t-121 -68t-142 -69t-170 -60.5t-204 -43t-245 -15.5q-13 0 -22.5 3t-15.5 12t-9 25.5t-2 43.5v49v74v86.5v86.5q0 33 2 52.5t7.5 29
t15.5 12.5t26 3q187 -1 353 10q71 5 144.5 13t141 20.5t124 29.5t94.5 41q-51 20 -103 41t-101.5 39.5t-95.5 34t-85 24.5q-24 5 -53 12.5t-63.5 4.5t-74 -23t-82.5 -69q-32 -36 -57 -48t-40.5 -3.5t-18.5 36.5t10 72q26 88 57.5 159t72.5 120.5t93 76.5t118 27
q56 0 115 -17t123.5 -43t137.5 -58t156.5 -61t180 -52.5t209.5 -32.5q24 -2 34.5 -9t12 -19t-3.5 -28t-11 -36zM1044 -529l-179 -180l-158 157l-159 -157l-180 181l179 181l158 -157l159 157z" />
    <glyph glyph-name="uni0683.fina" unicode="&#x683;" horiz-adv-x="1520" arabic-form="final" 
d="M109 688q10 43 26 91t38.5 95t52 89.5t66.5 73t82 46.5t100 10q58 -5 121 -23.5t133 -44t148.5 -55t168 -57t191.5 -50.5t219 -35q28 -5 36 -20t-3 -45l-103 -286h100h62l-2 -477h-104q-101 2 -175 29.5t-123 76.5t-72.5 117t-23.5 152q-176 -17 -311 -61.5
t-226.5 -107.5t-137 -139.5t-42.5 -155.5q3 -57 24.5 -103t57 -82.5t81 -63.5t97 -46.5t105 -31t104.5 -16.5q143 -15 288 -8.5t289 35.5q45 9 80.5 1.5t46.5 -34.5t-8.5 -75.5t-85.5 -121.5q-60 -69 -142.5 -114t-175.5 -69.5t-189.5 -30.5t-184.5 5q-136 17 -239.5 57.5
t-178.5 97.5t-124 127.5t-76.5 147.5t-35.5 156.5t-2 155.5q5 60 23.5 130t54.5 142.5t92 144.5t135 135t183 113t238 80q-58 19 -98.5 32.5t-75.5 23t-69.5 18t-79.5 18.5q-40 10 -84.5 9.5t-82.5 -26.5q-12 -6 -26.5 -17.5t-28.5 -24.5t-26 -25.5t-19 -21.5
q-23 -20 -42.5 -26t-32 2t-17 29t3.5 54zM1133 -102l-179 -180l-158 157l-159 -157l-180 181l179 181l158 -157l159 157z" />
    <glyph glyph-name="uni0684.init" unicode="&#x684;" horiz-adv-x="1410" arabic-form="initial" 
d="M1329 835q25 -2 38.5 -7.5t19 -13.5t4.5 -17.5t-5 -19.5l-138 -388q-88 -12 -168 -46t-161 -77.5t-166.5 -91t-184.5 -86.5t-215 -64t-257 -23q-23 0 -41 1t-39 -1q-42 -3 -54 19t-12 64v317q0 27 3.5 42t9.5 22.5t15.5 10t21.5 2.5q21 1 45.5 0.5t51.5 -1.5
q56 1 122 2.5t136 5.5t141.5 11t138 19.5t125.5 31t105 45.5q-54 22 -117 46.5t-124.5 46t-117.5 38.5t-97 25q-37 8 -73 -5.5t-66 -34.5t-51.5 -42.5t-30.5 -29.5q-21 -24 -42.5 -32t-36 1t-18.5 36t10 72q33 111 71.5 185t81 118t90 62t98.5 18q53 0 111.5 -16.5
t124 -42.5t138 -57t153.5 -60t171 -52.5t189 -32.5zM608 -668l-150 149l132 131l-132 133l151 150l151 -150l-131 -131l131 -133z" />
    <glyph glyph-name="uni0684.medi" unicode="&#x684;" horiz-adv-x="1431" arabic-form="medial" 
d="M1284 479q-10 -1 -9 -1.5t9.5 -0.5h23h31.5h96l-1 -477h-97q-56 -1 -112.5 14.5t-105.5 52t-86 96.5t-52 150q-51 -24 -107 -57t-121 -68t-142 -69t-170 -60.5t-204 -43t-245 -15.5q-13 0 -22.5 3t-15.5 12t-9 25.5t-2 43.5v49v74v86.5v86.5q0 33 2 52.5t7.5 29
t15.5 12.5t26 3q187 -1 353 10q71 5 144.5 13t141 20.5t124 29.5t94.5 41q-51 20 -103 41t-101.5 39.5t-95.5 34t-85 24.5q-24 5 -53 12.5t-63.5 4.5t-74 -23t-82.5 -69q-32 -36 -57 -48t-40.5 -3.5t-18.5 36.5t10 72q26 88 57.5 159t72.5 120.5t93 76.5t118 27
q56 0 115 -17t123.5 -43t137.5 -58t156.5 -61t180 -52.5t209.5 -32.5q24 -2 34.5 -9t12 -19t-3.5 -28t-11 -36zM671 -676l-150 149l132 131l-132 133l151 150l151 -150l-131 -131l131 -133z" />
    <glyph glyph-name="uni0684.fina" unicode="&#x684;" horiz-adv-x="1583" arabic-form="final" 
d="M1594 478v-478h-94q-101 -2 -177.5 24t-127.5 75.5t-76.5 120t-25.5 156.5q-173 -17 -298.5 -59.5t-209.5 -99.5t-128.5 -123t-54.5 -130q-8 -47 -1 -78.5t15 -62.5l-274 -189q-8 34 -12.5 73t-5.5 80t2.5 82.5t11.5 80.5q9 46 30.5 108t60 129t97.5 134.5t142.5 125.5
t195 102.5t256.5 65.5q-58 19 -112.5 40.5t-106.5 40.5t-102 32.5t-98 16.5q-28 3 -49 -1.5t-38 -12.5t-31.5 -19t-29.5 -23q-17 -15 -32.5 -30.5l-31.5 -31.5q-22 -20 -40.5 -24.5t-30.5 3.5t-16 28.5t3 49.5q18 75 46.5 147t69.5 130t94 95t119 40q54 3 119 -14.5t139 -45
t157 -61.5t172.5 -64.5t185 -53.5t195.5 -28q17 -2 26 -9t12 -17t1 -20.5t-7 -18.5l-103 -286h163zM843 -511l-150 149l132 131l-132 133l151 150l151 -150l-131 -131l131 -133z" />
    <glyph glyph-name="uni0685.init" unicode="&#x685;" horiz-adv-x="1423" 
d="M1329 835q25 -2 38.5 -7.5t19 -13.5t4.5 -17.5t-5 -19.5l-138 -388q-88 -12 -168 -46t-161 -77.5t-166.5 -91t-184.5 -86.5t-215 -64t-257 -23q-23 0 -41 1t-39 -1q-42 -3 -54 19t-12 64v317q0 27 3.5 42t9.5 22.5t15.5 10t21.5 2.5q21 1 45.5 0.5t51.5 -1.5
q56 1 122 2.5t136 5.5t141.5 11t138 19.5t125.5 31t105 45.5q-54 22 -117 46.5t-124.5 46t-117.5 38.5t-97 25q-37 8 -73 -5.5t-66 -34.5t-51.5 -42.5t-30.5 -29.5q-21 -24 -42.5 -32t-36 1t-18.5 36t10 72q33 111 71.5 185t81 118t90 62t98.5 18q53 0 111.5 -16.5
t124 -42.5t138 -57t153.5 -60t171 -52.5t189 -32.5zM555 1688l171 -173l-173 -173l-152 149l-152 -149l-171 171l172 175l152 -151zM400 1605l-159 159l160 163l161 -161z" />
    <glyph glyph-name="uni0685.medi" unicode="&#x685;" horiz-adv-x="1431" 
d="M1284 479q-10 -1 -9 -1.5t9.5 -0.5h23h31.5h96l-1 -477h-97q-56 -1 -112.5 14.5t-105.5 52t-86 96.5t-52 150q-51 -24 -107 -57t-121 -68t-142 -69t-170 -60.5t-204 -43t-245 -15.5q-13 0 -22.5 3t-15.5 12t-9 25.5t-2 43.5v49v74v86.5v86.5q0 33 2 52.5t7.5 29
t15.5 12.5t26 3q187 -1 353 10q71 5 144.5 13t141 20.5t124 29.5t94.5 41q-51 20 -103 41t-101.5 39.5t-95.5 34t-85 24.5q-24 5 -53 12.5t-63.5 4.5t-74 -23t-82.5 -69q-32 -36 -57 -48t-40.5 -3.5t-18.5 36.5t10 72q26 88 57.5 159t72.5 120.5t93 76.5t118 27
q56 0 115 -17t123.5 -43t137.5 -58t156.5 -61t180 -52.5t209.5 -32.5q24 -2 34.5 -9t12 -19t-3.5 -28t-11 -36zM557 1696l171 -173l-173 -173l-152 149l-152 -149l-171 171l172 175l152 -151zM402 1613l-159 159l160 163l161 -161z" />
    <glyph glyph-name="uni0685.fina" unicode="&#x685;" horiz-adv-x="1520" 
d="M109 688q10 43 26 91t38.5 95t52 89.5t66.5 73t82 46.5t100 10q58 -5 121 -23.5t133 -44t148.5 -55t168 -57t191.5 -50.5t219 -35q28 -5 36 -20t-3 -45l-103 -286h100h62l-2 -477h-104q-101 2 -175 29.5t-123 76.5t-72.5 117t-23.5 152q-176 -17 -311 -61.5
t-226.5 -107.5t-137 -139.5t-42.5 -155.5q3 -57 24.5 -103t57 -82.5t81 -63.5t97 -46.5t105 -31t104.5 -16.5q143 -15 288 -8.5t289 35.5q45 9 80.5 1.5t46.5 -34.5t-8.5 -75.5t-85.5 -121.5q-60 -69 -142.5 -114t-175.5 -69.5t-189.5 -30.5t-184.5 5q-136 17 -239.5 57.5
t-178.5 97.5t-124 127.5t-76.5 147.5t-35.5 156.5t-2 155.5q5 60 23.5 130t54.5 142.5t92 144.5t135 135t183 113t238 80q-58 19 -98.5 32.5t-75.5 23t-69.5 18t-79.5 18.5q-40 10 -84.5 9.5t-82.5 -26.5q-12 -6 -26.5 -17.5t-28.5 -24.5t-26 -25.5t-19 -21.5
q-23 -20 -42.5 -26t-32 2t-17 29t3.5 54zM581 1686l171 -173l-173 -173l-152 149l-152 -149l-171 171l172 175l152 -151zM426 1603l-159 159l160 163l161 -161z" />
    <glyph glyph-name="uni0687.init" unicode="&#x687;" horiz-adv-x="1417" arabic-form="initial" 
d="M1329 835q25 -2 38.5 -7.5t19 -13.5t4.5 -17.5t-5 -19.5l-138 -388q-88 -12 -168 -46t-161 -77.5t-166.5 -91t-184.5 -86.5t-215 -64t-257 -23q-23 0 -41 1t-39 -1q-42 -3 -54 19t-12 64v317q0 27 3.5 42t9.5 22.5t15.5 10t21.5 2.5q21 1 45.5 0.5t51.5 -1.5
q56 1 122 2.5t136 5.5t141.5 11t138 19.5t125.5 31t105 45.5q-54 22 -117 46.5t-124.5 46t-117.5 38.5t-97 25q-37 8 -73 -5.5t-66 -34.5t-51.5 -42.5t-30.5 -29.5q-21 -24 -42.5 -32t-36 1t-18.5 36t10 72q33 111 71.5 185t81 118t90 62t98.5 18q53 0 111.5 -16.5
t124 -42.5t138 -57t153.5 -60t171 -52.5t189 -32.5zM963 -596l-148 -150l-132 132l-132 -132l-151 151l150 150l131 -131l133 131zM951 -251l-149 -150l-131 132l-133 -132l-150 151l149 150l132 -130l132 130z" />
    <glyph glyph-name="uni0687.medi" unicode="&#x687;" horiz-adv-x="1431" arabic-form="medial" 
d="M1284 479q-10 -1 -9 -1.5t9.5 -0.5h23h31.5h96l-1 -477h-97q-56 -1 -112.5 14.5t-105.5 52t-86 96.5t-52 150q-51 -24 -107 -57t-121 -68t-142 -69t-170 -60.5t-204 -43t-245 -15.5q-13 0 -22.5 3t-15.5 12t-9 25.5t-2 43.5v49v74v86.5v86.5q0 33 2 52.5t7.5 29
t15.5 12.5t26 3q187 -1 353 10q71 5 144.5 13t141 20.5t124 29.5t94.5 41q-51 20 -103 41t-101.5 39.5t-95.5 34t-85 24.5q-24 5 -53 12.5t-63.5 4.5t-74 -23t-82.5 -69q-32 -36 -57 -48t-40.5 -3.5t-18.5 36.5t10 72q26 88 57.5 159t72.5 120.5t93 76.5t118 27
q56 0 115 -17t123.5 -43t137.5 -58t156.5 -61t180 -52.5t209.5 -32.5q24 -2 34.5 -9t12 -19t-3.5 -28t-11 -36zM987 -580l-148 -150l-132 132l-132 -132l-151 151l150 150l131 -131l133 131zM975 -235l-149 -150l-131 132l-133 -132l-150 151l149 150l132 -130l132 130z" />
    <glyph glyph-name="uni0687.fina" unicode="&#x687;" horiz-adv-x="1576" arabic-form="final" 
d="M1594 478v-478h-94q-101 -2 -177.5 24t-127.5 75.5t-76.5 120t-25.5 156.5q-173 -17 -298.5 -59.5t-209.5 -99.5t-128.5 -123t-54.5 -130q-8 -47 -1 -78.5t15 -62.5l-274 -189q-8 34 -12.5 73t-5.5 80t2.5 82.5t11.5 80.5q9 46 30.5 108t60 129t97.5 134.5t142.5 125.5
t195 102.5t256.5 65.5q-58 19 -112.5 40.5t-106.5 40.5t-102 32.5t-98 16.5q-28 3 -49 -1.5t-38 -12.5t-31.5 -19t-29.5 -23q-17 -15 -32.5 -30.5l-31.5 -31.5q-22 -20 -40.5 -24.5t-30.5 3.5t-16 28.5t3 49.5q18 75 46.5 147t69.5 130t94 95t119 40q54 3 119 -14.5t139 -45
t157 -61.5t172.5 -64.5t185 -53.5t195.5 -28q17 -2 26 -9t12 -17t1 -20.5t-7 -18.5l-103 -286h163zM1114 -373l-148 -150l-132 132l-132 -132l-151 151l150 150l131 -131l133 131zM1102 -28l-149 -150l-131 132l-133 -132l-150 151l149 150l132 -130l132 130z" />
    </font>
</defs>
</svg>
