<svg id="visual" viewBox="0 0 1511 1000" width="1511" height="1000" xmlns="http://www.w3.org/2000/svg" xmlns:xlink="http://www.w3.org/1999/xlink" version="1.1">
    <rect x="0" y="0" width="1511" height="1000" fill="#eff6ff"></rect>
    <defs>
        <linearGradient id="grad1_0" x1="33.8%" y1="0%" x2="100%" y2="100%">
            <stop offset="19.78%" stop-color="#dbebfe" stop-opacity="1"></stop>
            <stop offset="80.22%" stop-color="#dbebfe" stop-opacity="1"></stop>
        </linearGradient>
    </defs>
    <defs>
        <linearGradient id="grad1_1" x1="33.8%" y1="0%" x2="100%" y2="100%">
            <stop offset="19.78%" stop-color="#dbebfe" stop-opacity="1"></stop>
            <stop offset="80.22%" stop-color="#eff6ff" stop-opacity="1"></stop>
        </linearGradient>
    </defs>
    <defs>
        <linearGradient id="grad2_0" x1="0%" y1="0%" x2="66.2%" y2="100%">
            <stop offset="19.78%" stop-color="#dbebfe" stop-opacity="1"></stop>
            <stop offset="80.22%" stop-color="#dbebfe" stop-opacity="1"></stop>
        </linearGradient>
    </defs>
    <defs>
        <linearGradient id="grad2_1" x1="0%" y1="0%" x2="66.2%" y2="100%">
            <stop offset="19.78%" stop-color="#eff6ff" stop-opacity="1"></stop>
            <stop offset="80.22%" stop-color="#dbebfe" stop-opacity="1"></stop>
        </linearGradient>
    </defs>
    <g transform="translate(1511, 0)">
        <path d="M0 588.9C-39.5 561.1 -79 533.4 -118.2 517.7C-157.3 502 -196 498.4 -235.6 489.2C-275.2 480 -315.6 465.3 -355.4 445.6C-395.2 426 -434.3 401.5 -460.4 367.2C-486.6 332.8 -499.7 288.5 -512.7 246.9C-525.6 205.3 -538.2 166.4 -550.8 125.7C-563.5 85 -576.2 42.5 -588.9 0L0 0Z" fill="#e5f0ff"></path>
        <path d="M0 294.4C-19.8 280.6 -39.5 266.7 -59.1 258.8C-78.6 251 -98 249.2 -117.8 244.6C-137.6 240 -157.8 232.6 -177.7 222.8C-197.6 213 -217.1 200.8 -230.2 183.6C-243.3 166.4 -249.9 144.2 -256.3 123.4C-262.8 102.6 -269.1 83.2 -275.4 62.9C-281.7 42.5 -288.1 21.3 -294.4 0L0 0Z" fill="#dbebfe"></path>
    </g>
    <g transform="translate(0, 1000)">
        <path d="M0 -588.9C39.9 -566.6 79.8 -544.3 122.4 -536.2C164.9 -528.1 210.1 -534.2 253 -525.3C295.8 -516.4 336.4 -492.5 367.2 -460.4C397.9 -428.4 418.7 -388.2 437.8 -349.2C457 -310.1 474.4 -272.3 486.5 -234.3C498.6 -196.3 505.4 -158.1 521.6 -119C537.8 -80 563.3 -40 588.9 0L0 0Z" fill="#eff6ff"></path>
        <path d="M0 -294.4C20 -283.3 39.9 -272.2 61.2 -268.1C82.5 -264.1 105 -267.1 126.5 -262.6C147.9 -258.2 168.2 -246.2 183.6 -230.2C198.9 -214.2 209.3 -194.1 218.9 -174.6C228.5 -155.1 237.2 -136.2 243.3 -117.1C249.3 -98.1 252.7 -79.1 260.8 -59.5C268.9 -40 281.7 -20 294.4 0L0 0Z" fill="#eff6ff"></path>
    </g>
</svg>
